<svg xmlns="http://www.w3.org/2000/svg" width="270" height="347" viewBox="0 0 270 347">
<path fill="#0a1410" transform="scale(0.301339 0.301215)" d="M445.116 30.6484C487.754 29.9873 528.892 33.5218 570.408 43.7412C574.312 44.702 594.312 49.0484 595.118 53.8357C595.81 57.94 591.746 70.2101 591.035 74.7775C582.254 110.681 576.046 146.691 579.293 183.815C580.137 193.816 581.625 203.875 582.934 213.89C610.287 202.728 632.997 193 661.745 207.839C673.987 214.158 678.952 231.047 671.25 242.28C657.556 262.254 629.214 274.705 606.349 280.287C616.4 293.108 618.999 296.847 626.486 311.26C630.153 312.369 641.041 315.314 643.203 317.87C648.534 324.172 655.148 344.405 648.121 351.297C645.719 353.653 642.159 353.253 639.042 353.165C645.937 381.153 646.547 410.321 640.828 438.573C666.915 440.906 711.677 465.721 721.304 490.534C726.104 491.404 730.525 492.897 734.213 496.231C752.292 512.577 774.194 539.442 777.332 563.976C806.493 583.027 814.304 659.447 815.53 692.159C815.726 697.404 815.248 707.973 813.511 712.749C838.827 742.982 864.478 796.913 832.53 831.065L832.52 831.515C831.653 867.787 811.677 867.128 792.12 841.975L782.92 842.022C775.114 861.736 758.505 885.771 740.248 896.9C740.259 917.682 722.744 938.677 702.392 941.795C701.13 972.218 707.712 998.02 716.599 1027.14C720.314 1039.32 725.549 1051.99 727.697 1064.41C731.346 1073.24 717.128 1082.12 715.783 1085.94C705.934 1113.9 682.501 1090.22 663.72 1092.43C655.846 1093.36 645.356 1107.57 633.392 1107.95C618.082 1108.44 617.464 1097.25 609.192 1090.06C602.852 1088.15 579.446 1099.17 572.285 1092.89C564.535 1086.1 572.991 1073.28 576.623 1066.57C577.748 1064.49 578.419 1060.35 579.385 1058.01C585.316 1042.31 585.797 1030.44 582.361 1014.02C578.599 996.039 575.422 977.427 573.722 959.214C545.69 967.383 501.272 969.016 472.008 966.844C463.2 966.19 451.849 964.104 442.968 962.512C441.374 980.547 442.094 998.711 445.113 1016.56C446.626 1025.62 452.519 1046.72 448.581 1053.11C443.195 1061.86 412.082 1066.59 402.812 1068.28C387.754 1070.44 373.185 1072.1 358.013 1073.83C347.961 1074.97 336.076 1078.07 325.624 1077.9C321.824 1077.84 318.557 1073.64 316.424 1070.84C306.808 1069.87 294.926 1073.65 285.06 1073.73C275.414 1073.8 272.897 1072.98 272.75 1063C268.44 1063.22 254.065 1064.76 251.501 1061.49C245.578 1054.21 257.752 1038.44 263.749 1034.44C270.995 1029.61 278.358 1024.79 285.408 1019.45C292.35 1014.2 301.485 1009.71 307.557 1003.35L308.028 1002.85C294.494 955.268 293.105 915.322 305.911 867.301C303.937 864.482 302.049 861.604 300.251 858.67C289.795 841.596 279.016 813.794 279.787 793.52C279.899 790.552 280.882 786.521 281.596 783.55C273.608 764.954 276.704 747.464 279.297 728.027C258.656 744.682 238.523 758.728 214.387 769.775C174.072 788.226 124.563 782.437 91.6253 752.067C86.7377 747.561 83.605 741.587 80.9919 735.618C80.0547 735.257 79.1294 734.866 78.2175 734.445C63.8246 727.926 51.3811 710.958 55.7326 694.661C57.3377 688.65 67.2828 695.71 69.5074 691.409C69.6615 685.492 61.5324 680.297 58.9872 672.851C48.9837 643.583 68.5049 649.198 87.4858 658.604C91.0518 658.22 94.6209 657.864 98.1926 657.537C95.1846 648.369 93.8315 633.589 108.117 637.51C117.12 639.981 125.323 643.585 134.172 646.404C150.573 651.628 167.323 653.112 184.332 654.864C195.77 649.614 216.781 634.978 227.802 627.707C249.55 613.079 271.624 598.944 294.009 585.312C294.963 564.973 303.61 556.231 320.463 547.112C322.832 536.302 323.615 534.833 329.979 525.531C328.87 525.064 327.767 524.587 326.668 524.098C282.06 504.297 238.097 460.768 261.502 408.117C256.331 407.082 247.492 405.115 243.101 402.027C230.7 393.309 227.996 365.76 226.181 351.692C225.624 347.378 225.344 338.503 224.568 334.978C221.795 328.016 216.211 329.482 215.338 320.712C212.852 295.758 212.088 295.23 236.495 289.735C250.428 286.597 260.897 285.166 275.219 284.051C278.12 278.905 280.808 276.315 284.842 272.088C266.415 266.329 241.934 252.61 232.213 235.824C223.324 220.475 239.451 200.243 256.365 203.801C261.027 205.207 265.58 207.989 269.711 210.406C287.617 220.879 305.496 229.827 325.31 236.144C335.632 193.913 335.744 141.994 327.204 99.4959C325.339 90.2149 322.943 81.0413 320.608 71.8697C319.349 66.9242 317.168 61.0387 317.021 55.9499C316.982 54.6056 318.193 53.2343 319.078 52.3093C334.716 35.9628 419.62 31.2772 445.116 30.6484Z"/>
</svg>