<svg xmlns="http://www.w3.org/2000/svg" width="896" height="1152" viewBox="0 0 896 1152"><path fill="#131213" d="M456.753 30.07C491.549 28.644 536.36 35.39 570.448 43c7.04 1.572 18.513 3.891 24.164 8.253.577.446 1.882 2.095 1.908 2.63.29 5.918-2.804 16.38-4.084 21.96-7.375 32.158-13.705 64.189-11.924 97.371.748 13.941 2.803 26.835 4.163 40.589 7.276-3.525 14.432-5.96 22.234-8.87 18.919-8.158 61.894-7.243 68.793 17.206 8.989 31.854-46.024 51.6-67.318 57.867 8.751 11.32 13.098 18.733 19.938 31.071 4.583 1.248 12.825 3.17 16.164 6.598 6.659 6.837 12.235 24.728 4.765 32.679-2.395 2.549-5.301 2.407-8.53 2.485 7.216 31.105 7.193 54.213 1.829 85.224 30.785 5.293 64.981 23.487 79.993 51.863 11.848 3.194 17.435 9.344 25.469 18.231 14.808 16.38 26.622 33.608 30.748 55.731 11.645 7.833 18.089 21.499 22.67 34.347 8.152 22.861 17.929 80.643 15.156 105.188-.791 6.994-2.833 12.938-5.831 19.241 10.6 24.257 1.102 52.279-7.237 75.65 9.91 1.204 18.804 1.098 29.011 3.202 4.153 43.236 6.61 90.074 9.664 133.646l3.691 50.153c.802 11.007 1.897 23.646 1.806 34.576-5.609 1.3-18.749 3.93-23.327 5.72-10.467 4.11-22.268 14.54-32.367 20.96-8.906-.63-19.988-2.5-29.03-3.78a2398 2398 0 0 1-41.328-5.98c3.679 12.8 7.078 18.61 8.304 32.74-3.185 5.85-7.317 9.85-11.307 15.06-2.528 3.3-4.423 9.35-7.798 11.73-12.912 9.1-29.108-5.21-42.957-4.33-12.534 1.15-22.281 17.85-36.842 15.62-9.233-1.42-13.073-9.75-18.294-16.64-10.194-3.14-17.745 1.92-27.879 3.33-14.633 2.04-15.452-8.99-11.086-19.52 3.866-9.32 9.056-18.51 10.772-28.54 3.424-20.75-2.399-41.31-5.892-61.613-1.479-8.603-2.316-17.346-3.219-26.036-32.786 8.502-66.107 9.978-99.844 7.844-10.335-.653-20.538-2.619-30.731-4.396a195.2 195.2 0 0 0 1.928 53.461c1.592 9.16 4.316 18.35 4.668 27.66.145 3.84-.128 8.29-2.973 11.18-12.123 12.34-68.372 16.46-87.55 19.06-10.063 1.37-21.415 4.39-31.521 4.11-6.709-.18-7.373-5.98-11.843-7.06-.967-.23-2.672-.05-3.706-.07-9.264.58-18.702 2.68-27.995 3.08-3.163.13-6.713-.62-9.019-2.97-2.183-2.22-1.829-5.15-1.801-8.14-6.777.89-24.824 3.99-22.748-7.95 2.978-17.25 23.387-26.52 36.37-35.99 7.196-5.25 14.17-9.82 21.368-15.48-13.16-49.586-15.21-85.873-1.981-135.738a134 134 0 0 1-2.774-4.312c-14.082-22.824-27.883-52.223-21.439-79.526-7.971-19.513-4.691-39.92-1.421-60.002a142.8 142.8 0 0 1-40 17.869c-39.69 10.833-87.669 2.184-123.098-18.041-15.811-9.026-34.53-24.353-39.383-42.434-11.627-6.221-25.828-17.86-25.785-33.324.019-6.631 9.147-6.22 14.008-5.585-16.434-27.395-3.892-41.615 13.354-63.189-1.978-30.935 4.574-46.75 34.387-53.25 2.711-.592 2.454-4.14 5.19-5.065 3.02-1.021 6.166.147 8.89-1.606-.117-3.689-9.711-11.944-4.341-18.645 4.918-6.136 11.529-3.113 16.779.381 12.843-11.694 25.092 5.929 13.006 13.978-1.396.93-1.594 1.884-1.594 3.286 4.077 6.202 8.576-.781 13.291 7.579 36.119 7.857 39.789 23.467 40.663 57.27 13.275 12.617 18.494 25.734 18.416 43.756 2.65.237 6.418 1.118 9.128 1.671 20.06-11.828 41.498-27.653 60.526-41.231 1.434-23.207 7.367-28.416 26.629-40.018 2.024-9.759 3.811-13.455 9.376-21.507-46.645-21.407-91.721-60.539-68.133-117.475-6.646-1.311-13.268-2.548-18.843-6.964-14.476-11.972-14.277-34.8-16.696-51.984-1.295-9.203.408-14.12-7.026-20.924-3.206-3.303-3.846-8.758-4.368-12.894-2.371-18.781 3.065-21.766 20.195-25.388 13.798-2.917 26.413-4.681 40.67-5.698 2.549-5.414 4.932-7.594 9.067-11.831-18.561-7.719-41.537-18.011-52.103-36.227-8.786-15.147 6.949-37.532 24.576-31.84 10.959 3.539 20.181 10.861 30.439 15.978 12.293 6.114 24.852 11.341 37.78 15.902 9.086-42.276 11.095-88.993 2.734-131.568a403 403 0 0 0-6.002-26.096c-1.681-6.561-4.295-13.965-4.599-20.739-.114-2.537.513-4.039 2.253-5.91C338.266 33.91 430.568 30.943 456.753 30.07m160.389 987.2c19.719 4.22 39.573 5.97 59.336 9.05 37.911 5.91 76.447 10.42 114.284 16.22.669-19.74 1.678-41.2 1.844-60.849 1.867-28.835 2.068-60.31 3.026-89.312.779-23.624 2.716-51.232 2.505-74.67-9.373-.801-22.76-2.242-31.83-2.15-.38 2.781-.824 5.69-1.136 8.467 18.832 23.121-33.369 20.122-9.993-1.983.283-2.35.546-5.007.915-7.315-8.299-1.536-20.573-2.48-29.14-3.3a1446 1446 0 0 0-53.83-4.306c-.388 3.313-.592 5.599-.658 8.924 2.288 2.58 4.239 5.057 4.015 8.74-.47 7.741-13.026 10.697-17.243 4.549-2.856-4.165.526-11.302 2.088-15.47.907-2.421 1.223-4.576 1.558-7.086a691 691 0 0 0-31.222-3.235c-1.131 30.435-4.305 63.828-6.508 94.234z"/><defs><linearGradient id="a" x1="449.171" x2="427.512" y1="520.733" y2="339.18" gradientUnits="userSpaceOnUse"><stop offset="0" stop-color="#81b46e"/><stop offset="1" stop-color="#95c399"/></linearGradient></defs><path fill="url(#a)" d="M589.459 330.565c12.203.235 27.609.989 39.872 2.797 14.56 30.2 16.016 84.224 4.715 116.424a125.35 125.35 0 0 1-56.798 68.114c-9.619 5.449-21.569 10.289-30.481 15.527 12.034-2.789 26.027-9.145 37.426-14.154-28.52 27.453-50.97 30.583-83.556 46.041-3.417-3.757-6.542-6.65-12.055-6.595-16.054.16-37.304 12.758-48.714 23.335a299 299 0 0 0-4.087 3.878c-12.52-6.069-24.363-5.667-37.976-3.73-3.9-2.429-5.659-3.645-9.144-6.616-1.506-9.392-2.181-18.892-3.596-28.296 5.874 2.355 10.005 3.634 16.042 5.459-4.821-2.764-13.382-6.702-17.085-9.986 21.338 1.533 45.24 3.197 66.47-.181-3.331-2.496-15.645.763-18.94-1.294-46.404-.96-105.604-14.062-140.142-47.261-2.847-2.654-4.393-4.161-6.861-7.138-20.954-21.166-24.981-40.64-19.892-69.346l3.673-9.269c20.258 3.034 28.237 1.184 47.432.574-.474 3.007-1.588 8.164-.968 10.929 1.325-.987 8.977-27.287 10.298-31.149 6.647-16.518 16.271-28.343 28.636-40.751 19.334-18.574 49.506-13.927 71.464-2.772l1.069 9.554c2.014 14.508 5.819 28.585 13.091 41.376 1.724 1.347 7.815 6.173 9.854 6.821 28.81 9.152 63.385 8.713 93.173 5.92 8.81-.826 25.618-4.259 30.464-10.657 12.678-16.741 10.685-50.133 16.616-67.554"/><defs><linearGradient id="b" x1="479.985" x2="458.31" y1="579.833" y2="343.442" gradientUnits="userSpaceOnUse"><stop offset="0" stop-color="#50764a"/><stop offset="1" stop-color="#5d866d"/></linearGradient></defs><path fill="url(#b)" d="M589.459 330.565c12.203.235 27.609.989 39.872 2.797 14.56 30.2 16.016 84.224 4.715 116.424a125.35 125.35 0 0 1-56.798 68.114c-9.619 5.449-21.569 10.289-30.481 15.527 12.034-2.789 26.027-9.145 37.426-14.154-28.52 27.453-50.97 30.583-83.556 46.041-3.417-3.757-6.542-6.65-12.055-6.595-16.054.16-37.304 12.758-48.714 23.335a299 299 0 0 0-4.087 3.878c-12.52-6.069-24.363-5.667-37.976-3.73-3.9-2.429-5.659-3.645-9.144-6.616-1.506-9.392-2.181-18.892-3.596-28.296 5.874 2.355 10.005 3.634 16.042 5.459-4.821-2.764-13.382-6.702-17.085-9.986 21.338 1.533 45.24 3.197 66.47-.181-3.331-2.496-15.645.763-18.94-1.294-46.404-.96-105.604-14.062-140.142-47.261l2.322.053c10.118 2.235 26.194 12.144 39.139 15.221 54.251 12.895 111.176 16.315 165.962 5.689 30.723-5.959 77.033-22.96 94.756-49.692l1.21 1.073c3.538-6.873 7.656-8.518 10.875-17.949l-.281-.538a46.6 46.6 0 0 0 2.461-18.869c-.791-9.614-4.087-16.565-11.389-22.735l-12.664-7.435c-4.613 7.211-7.963 11.498-16.293 14.539-26.24 9.581-116.368 15.59-128.156-17.349 1.724 1.347 7.815 6.173 9.854 6.821 28.81 9.152 63.385 8.713 93.173 5.92 8.81-.826 25.618-4.259 30.464-10.657 12.678-16.741 10.685-50.133 16.616-67.554"/><path fill="#476e72" d="M601.11 343.215c2.985-2.695 7.252-6.266 11.331-5.768 8.681 1.059 8.962 14.281 2.817 18.644-4.238 3.009-9.883 2.174-14.116.261-4.396-5.022-2.774-7.87-.032-13.137"/><path fill="#476e72" d="M587.66 387.736c4.156-.236 6.811-.318 10.949-.11 3.855 2.308 12.819 8.364 9.018 13.767-2.524 3.587-7.164 4.04-11.162 4.887l-12.664-7.435-.534-.643c1.599-2.047 3.161-6.844 3.222-9.504z"/><path fill="#6ea192" d="M587.66 387.736c2.204-7.646 4.374-15.839 5.867-23.656 1.22-6.385 1.566-13.809 3.254-20.007 2.034-1.243 1.559-.836 4.329-.858-2.742 5.267-4.364 8.115.032 13.137-1.482 9.836-.339 20.923-2.533 31.274-4.138-.208-6.793-.126-10.949.11"/><path fill="#476e72" d="M605.674 448.422c16 8.008-3.066 29.894-10.875 17.949 3.538-6.873 7.656-8.518 10.875-17.949"/><path fill="#1c281b" d="M431.552 541.288a645 645 0 0 0 26.789-.642l.413.823 1.224-.533.005.038c-3.333 1.116-6.072 1.082-9.491 1.608-3.331-2.496-15.645.763-18.94-1.294"/><path fill="#32545d" d="M586.489 388.698c-.061 2.66-1.623 7.457-3.222 9.504-1.409-4.675-.18-6.392 3.222-9.504"/><path fill="#476e72" d="M620.11 362.626c11.134.622 15.133 17.414 2.755 24.795-14.555-2.287-14.1-17.174-2.755-24.795"/><path fill="#476e72" d="M615.84 401.997c11.961.524 15.269 11.568 9.249 21.021-9.405-.819-10.449-7.104-12.44-15.024.997-1.99 2.134-4.028 3.191-5.997"/><path fill="#a1c4ad" d="M264.657 417.543c2.414.593 5.23 1.359 7.633 1.782-.564 5.325-1.68 14.09-1.601 19.223.23 14.781 8.667 28.756 17.772 39.892 1.792 2.191 9.519 10.856 9.931 12.584-1.281 1.274-1.15.869-3.43 1.156l-1.23 1.9-2.322-.053c-2.847-2.654-4.393-4.161-6.861-7.138-20.954-21.166-24.981-40.64-19.892-69.346"/><path fill="#a8c27d" d="M284.549 486.889c3.025.905 7.582 3.586 10.413 5.291l-1.23 1.9-2.322-.053c-2.847-2.654-4.393-4.161-6.861-7.138"/><path fill="#476e72" d="M353.728 347.877c19.334-18.574 49.506-13.927 71.464-2.772l1.069 9.554c-4.622-.981-11.019-4.205-15.863-5.621-15.07-4.406-34.603-5.228-49.996-2.213-2.242.298-4.473.539-6.674 1.052"/><path fill="#6a7e4f" d="M268.33 408.274c20.258 3.034 28.237 1.184 47.432.574-.474 3.007-1.588 8.164-.968 10.929-4.529-1.009-17.141.713-22.594.821-7.688.152-12.314-.208-19.91-1.273-2.403-.423-5.219-1.189-7.633-1.782z"/><path fill="#a1c4ad" d="M353.728 347.877c2.201-.513 4.432-.754 6.674-1.052-1.033 6.688-21.924 37.184-27.565 43.795-2.132 2.498-5.805.582-7.745-1.992 6.647-16.518 16.271-28.343 28.636-40.751"/><path fill="#476e72" d="m605.393 447.884.281.538c-3.219 9.431-7.337 11.076-10.875 17.949l-1.21-1.073c-.938-9.52 4.001-13.852 11.804-17.414"/><path fill="#6a7e4f" d="M525.953 442.065c-2.976-.226-5.335.02-7.373-2.041l.136-1.096c4.91-3.94 15.764-1.152 20.272 2.579 3.139 2.598 4.272 4.442 5.856 8.019.633 9.424-16.596 3.269-20.839 1.091-23.816 17.065-28.695 19.141-57.323 24.203-5.917 3.027-34.672 10.522-43.26 12.956-14.819 4.2-36.331 12.651-50.538 15.873a46.7 46.7 0 0 1-14.004 1.028c-21.951-1.753-41.293-27.951-54.878-43.87-6.308-.196-19.414-4.188-21.532-10.645.326-2.104-.182-1.374 1.155-2.51 2.35.675 4.073 4.159 6.936 6.076 6.892 4.615 14.65 2.376 22.145.912 10.43 15.877 30.612 28.721 47.349 37.121 32.397-15.249 56.362-21.216 91.893-21.018 29.552.165 51.398-10.164 74.005-28.678"/><path fill="#2c2c2e" d="M525.953 442.065c-2.976-.226-5.335.02-7.373-2.041l.136-1.096c4.91-3.94 15.764-1.152 20.272 2.579 3.139 2.598 4.272 4.442 5.856 8.019.633 9.424-16.596 3.269-20.839 1.091-23.816 17.065-28.695 19.141-57.323 24.203-23.419-.907-56.925 2.933-79.033 10.605-9.648 3.348-18.011 7.82-28.841 11.156-21.396-10.801-32.261-19.561-48.552-37.183l-6.254 1.409c-6.308-.196-19.414-4.188-21.532-10.645.326-2.104-.182-1.374 1.155-2.51 2.35.675 4.073 4.159 6.936 6.076 6.892 4.615 14.65 2.376 22.145.912 10.43 15.877 30.612 28.721 47.349 37.121 32.397-15.249 56.362-21.216 91.893-21.018 29.552.165 51.398-10.164 74.005-28.678"/><path fill="#6a7e4f" d="M531.247 443.161c3.371 1.858 10.214 5.817 13.597 6.365.633 9.424-16.596 3.269-20.839 1.091 2.312-1.849 5.164-5.178 7.242-7.456"/><path fill="#476e72" d="M588.567 419.914c12.053 2.664 9.288 13.631 1.413 20.062-12.436-3.723-9.299-13.238-1.413-20.062"/><path fill="#131213" d="m399.792 408.192-.66.506-.585-.406c-.209-5.762 7.534-16.284 12.296-15.604 11.875 1.695.705 12.427-2.598 14.974q-4.224.31-8.453.53"/><path fill="#6a7e4f" d="M403.116 403.138c2.095.772 3.41.797 4.139 2.987l.99 1.537q-4.224.31-8.453.53z"/><path fill="#6a7e4f" d="m403.116 403.138 4.744-4.305a2.23 2.23 0 0 0 2.64 2.911c-1.069 1.286-2.665 2.931-3.245 4.381-.729-2.19-2.044-2.215-4.139-2.987"/><path fill="#6a7e4f" d="M407.86 398.833a2.231 2.231 0 0 1 4.328.639 2.23 2.23 0 1 1-4.328-.639"/><path fill="#2c2c2e" d="M339.525 406.533c-2.951-3.058-6.299-7.839-3.48-11.92 7.895-4.079 13.109 7.315 12.366 13.577l-.718.812c-1.447-.958-.828-.349-1.701-2.089-2.571.101-3.924.269-6.467-.38"/><path fill="#6a7e4f" d="M339.525 406.533c.35-2.564-.528-5.426.223-7.317 2.645-.096 5.238 5.481 6.244 7.697-2.571.101-3.924.269-6.467-.38"/><path fill="#a1c4ad" d="m328.108 399.229.655.628c.607 2.352.234 4.216-.001 6.647l-.691-.468c-.587-2.233-.177-4.464.037-6.807"/><path fill="#a8c27d" d="M501.878 569.083c10.914-4.378 21.832-8.165 32.66-12.798 20.61-8.818 37.105-20.917 54.663-34.649-4.933 24.868-5.044 42.665 19.676 55.705-13.404 17.198-16.07 34.584-13.457 56.095 3.621 29.214 20.698 63.282 53.26 66.575 2.506.253 15.608.965 15.106 3.448-3.962 19.627-11.603 35.478 4.851 53.643 1.272 14.23 2.895 16.663-.694 30.692-2.297-.14-4.73-.343-7.019-.329l-1.497 6.461c-4.024.722-29.943 4.886-31.398 6.438l-.421-1.525c-5.061-2.114-43.813 14.046-53.083 9.584 14.13-4.5 27.875-6.146 43.357-11.543-6.137.958-12.494 1.862-18.57 3.093-55.568 11.252-112.028 19.918-168.898 17.718-4.916-.19-14.744.575-15.44-5.721.597-9.984-1.164-28.284-1.45-38.815-.492-18.183.545-30.79 2.534-48.662 16.482-.183 32.929 1.39 49.788 1.076a500.2 500.2 0 0 0 129.943-21.03c-6.525-.842-24.984 3.769-32.184 4.95-23.261 3.815-51.267 10.895-74.688 11.665-10.31.338-66.241 3.087-72.207-1.268-1.567-4.027-1.182-20.629-.559-25.314.058-14.583 2.12-31.46 2.938-46.358l1.139-12.437c5.454-1.328 8.61-2.123 13.905-4.253 13.712 10.223 34.174 23.808 52.019 21.55 23.296-2.947 14.674-32.688 8.813-47.018 5.212-13.237 9.254-22.229 6.913-36.973"/><path fill="#a8c27d" d="M595.789 704.539a584 584 0 0 1 17.772-4.106c3.572 4.085 9.021 10.034 11.293 14.791 6.624 14.027 7.939 30.31 8.515 45.578.297 7.846.023 21.204-6.811 26.387-7.409 5.618-22.015 7.777-31.225 9.791a705.7 705.7 0 0 1-130.906 16.77c-13.997.523-36.378 1.827-49.453-1.78.597-9.984-1.164-28.284-1.45-38.815-.492-18.183.545-30.79 2.534-48.662 16.482-.183 32.929 1.39 49.788 1.076a500.2 500.2 0 0 0 129.943-21.03"/><path fill="#6a7e4f" d="M501.878 569.083c10.914-4.378 21.832-8.165 32.66-12.798 20.61-8.818 37.105-20.917 54.663-34.649-4.933 24.868-5.044 42.665 19.676 55.705-13.404 17.198-16.07 34.584-13.457 56.095 3.621 29.214 20.698 63.282 53.26 66.575 2.506.253 15.608.965 15.106 3.448-3.962 19.627-11.603 35.478 4.851 53.643 1.272 14.23 2.895 16.663-.694 30.692-2.297-.14-4.73-.343-7.019-.329l-1.497 6.461c-4.024.722-29.943 4.886-31.398 6.438l-.421-1.525c-5.061-2.114-43.813 14.046-53.083 9.584 14.13-4.5 27.875-6.146 43.357-11.543-6.137.958-12.494 1.862-18.57 3.093-55.568 11.252-112.028 19.918-168.898 17.718-4.916-.19-14.744.575-15.44-5.721 13.075 3.607 35.456 2.303 49.453 1.78a705.7 705.7 0 0 0 130.906-16.77c9.21-2.014 23.816-4.173 31.225-9.791 6.834-5.183 7.108-18.541 6.811-26.387-.576-15.268-1.891-31.551-8.515-45.578-2.272-4.757-7.721-10.706-11.293-14.791a584 584 0 0 0-17.772 4.106c-6.525-.842-24.984 3.769-32.184 4.95-23.261 3.815-51.267 10.895-74.688 11.665-10.31.338-66.241 3.087-72.207-1.268-1.567-4.027-1.182-20.629-.559-25.314.471 5.823.136 16.856.147 23.069 15.171 2.197 31.359 1.497 46.648 1.702 30.896.73 60.186-6.127 90.237-11.704 20.413-3.789 34.783-5.81 54.347-12.936a3306 3306 0 0 1-13.779-38.133c-7.685-21.242-13.297-44.253-35.298-54.054-17.898-7.972-32.073-1.355-48.923 4.939l-3.758 10.223c3.483 14.504 7.205 39.513-9.339 46.78-20.981 9.217-47.378-6.977-63.244-18.95-5.082.447-9.177 1.529-14.1 2.706l1.139-12.437c5.454-1.328 8.61-2.123 13.905-4.253 13.712 10.223 34.174 23.808 52.019 21.55 23.296-2.947 14.674-32.688 8.813-47.018 5.212-13.237 9.254-22.229 6.913-36.973"/><path fill="#2c83b7" d="M716.36 864.986c12.034 2.602 39.097 84.807-20.109 86.227.047 4.595.753 12.992-1.474 16.712-1.693 1.005-.973.759-3.252.486-1.463-5.461-.982-12.777-.116-18.301-13.937-9.159-20.779-21.511-17.203-38.219 4.352-20.337 25.642-36.196 42.154-46.905m-24.271 79.696c.421-2.851.817-5.814 1.34-8.636-3.77-5.089-8.266-10.697-8.789-17.174l.53-1.164c3.691.485 7.765 8.61 9.694 11.898a290 290 0 0 1 3.898-15.355c-2.72-4.592-6.419-10.159-6.042-15.652l.709-.935c3.313 1.019 5.652 5.851 7.228 8.818l.263.499c1.297-4.175 6.971-22.027 12.016-20.574.335.894.592 1.398.737 2.344a788 788 0 0 1-5.551 13.052c3.895-2.109 7.167-4.245 11.65-4.555l.939.534c-.993 4.743-10.725 8.814-14.874 10.401-2.348 7.594-4.694 15.04-6.684 22.744 5.294-2.78 13.163-7.81 18.613-8.381l1.098.467c-.449 4.988-16.494 12.124-20.875 14.339l-1.337 9.048c24.443-2.173 33.487-17.509 31.471-40.964-.678-7.878-6.207-28.918-11.779-34.189-25.006 17.135-57.302 45.417-24.255 73.435"/><defs><linearGradient id="c" x1="586.226" x2="383.051" y1="123.775" y2="108.844" gradientUnits="userSpaceOnUse"><stop offset="0" stop-color="#2b355d"/><stop offset="1" stop-color="#5564a1"/></linearGradient></defs><path fill="url(#c)" d="M426.514 35.947c5.725-1.352 22.149-.857 28.5-.87 46.551-.092 93.552 5.012 137.95 19.768-7.585 29.19-14.282 57.83-16.746 88.077-1.092 13.407.364 25.686-.333 38.489-7.101 1.359-15.063 1.987-22.322 2.725a2937 2937 0 0 1-38.042 3.687c-7.606.675-16.844 1.219-24.201 2.253-25.116.927-49.717 2.972-75.054 1.9-4.269-.181-16.721.21-20.292-.501-6.292-.364-12.641-.613-18.942-.899-2.725-.525-8.465-.873-11.432-1.139-4.744.162-15.458-1.427-20.372-2.071-2.18-.032-4.5-.422-6.676-.715 4.563-43.826-3.944-89.226-16.539-131.07 2.567-1.477 3.735-2.029 6.467-3.132 24.977-10.964 70.219-15.226 98.034-16.502"/><path fill="#8490c4" d="M328.48 52.45c24.977-10.965 70.219-15.227 98.034-16.503-3.505 3.792-21.746 5.962-28.183 7.464a69.3 69.3 0 0 0-12.094 3.91c8.234 41.044 13.612 83.333 13.082 125.235-.056 4.418.223 14.664-1.346 18.197-.909.393-1.04.505-1.999.722-6.292-.364-12.641-.613-18.942-.899-2.725-.525-8.465-.873-11.432-1.139-4.744.162-15.458-1.427-20.372-2.071-2.18-.032-4.5-.422-6.676-.715 4.563-43.826-3.944-89.226-16.539-131.07 2.567-1.477 3.735-2.029 6.467-3.132"/><path fill="#525c90" d="M322.013 55.582c2.567-1.478 3.735-2.03 6.467-3.133 4.128 2.096 17.027 1.981 22.375 2.078 8.265 32.675 13.17 60.779 14.689 94.813.646 14.452-.012 26.064.056 40.097-4.744.162-15.458-1.427-20.372-2.071-2.18-.032-4.5-.422-6.676-.715 4.563-43.826-3.944-89.226-16.539-131.07"/><path fill="#a8c27d" d="M574.525 808.423c9.27 4.462 48.022-11.698 53.083-9.584l.421 1.525c-.489 4.26-.94 8.621-1.497 12.863.065 14.582-1.404 29.914-2.523 44.512-24.278 11.165-44.621 30.569-53.859 55.969-5.549 15.259-7.369 28.527 5.43 40.225-34.597 6.637-67.672 10.869-103.023 7.216-5.116-.529-15.003-1.653-19.829-2.956-8.539-11.062-14.296-19.076-19.126-32.451-14.709-38.464-17.619-65.379-18.284-105.807 56.457 3.234 103.963.438 159.207-11.512"/><path fill="#6a7e4f" d="M626.532 813.227c.065 14.582-1.404 29.914-2.523 44.512-24.278 11.165-44.621 30.569-53.859 55.969-5.549 15.259-7.369 28.527 5.43 40.225-34.597 6.637-67.672 10.869-103.023 7.216-5.116-.529-15.003-1.653-19.829-2.956-8.539-11.062-14.296-19.076-19.126-32.451 31.123 6.176 86.174-.616 114.589-16.637 14.797-9.218 21.198-26.533 33.05-38.723 9.948-10.232 21.75-18.398 31.76-28.516 6.984-7.059 11.201-19.012 13.531-28.639"/><path fill="#c36545" d="M430.219 295.886c.87-.951 1.708-1.833 2.824-2.508 17.793-10.759 90.165-8.466 111.862-6.189a275.4 275.4 0 0 1 42.887 7.746l1.681.346c6.154 3.087 3.017 13.267 2.422 18.823-.816 7.621-5.706 14.32-7.604 21.612-4.31 18.174-3.215 39.059-11.863 56.008-6.432 12.605-27.498 13.688-40.069 13.906-15.842 3.144-66.185 1.223-80.26-6.399-15.799-4.351-22.303-42.127-23.957-56.394-6.162-2.534-8.8-4.838-16.439-7.007-21.809-6.193-38.749-4.373-58.398 6.016-3.004 4.013-5.095 6.077-8.592 9.565.56-11.18 2.602-37.488-4.764-44.725-12.767-12.541-81.703-9.704-93.12.974-11.566 10.819-6.65 69.668 5.879 81.474 12.268 11.737 49.141 8.387 65.228 6.479l-1.237 6.494c-.307 1.126-.521 2.764-1.818 3.074-12.463 2.973-38.89 1.854-50.686-1.255-5.044-1.304-11.523-3.058-15.886-6.139-13.882-10.26-13.939-33.318-15.959-49.208-1.96-15.427-.1-14.204-10.716-26.083-.13-4.668-.433-9.454-.673-14.126-.338-5.519-.773-9.211 5.276-11.487 7.139-2.686 15.791-4.374 23.325-5.508 30.203-4.55 71.572-8.919 100.859 1.942 12.94 7.254 2.638 29.396 12.334 29.421 13.897-7.228 31.583-6.658 46.578-3.431 4.7.903 8.209 3.014 13.218 3.038 4.442-3.037 4.692-18.587 7.668-26.459"/><path fill="#dda183" d="M430.219 295.886c.87-.951 1.708-1.833 2.824-2.508 17.793-10.759 90.165-8.466 111.862-6.189a275.4 275.4 0 0 1 42.887 7.746c-1.145 1.51-1.56 2.665-3.657 2.814-6.451.459-14.108-1.6-20.524-2.552a361 361 0 0 0-19.51-2.16c-24.352-2.034-48.6-2.527-73.031-.96-12.674.814-24.111 3.167-36.61 4.863-1.743.237-2.744-.379-4.241-1.054"/><path fill="#dda183" d="M220.961 308.37c-.338-5.519-.773-9.211 5.276-11.487 7.139-2.686 15.791-4.374 23.325-5.508 30.203-4.55 71.572-8.919 100.859 1.942-5.563 3.526-26.777.474-34.568.388-25.629-.285-73.389.247-94.892 14.665"/><path fill="#775340" d="M589.473 295.281c6.154 3.087 3.017 13.267 2.422 18.823-.816 7.621-5.706 14.32-7.604 21.612-4.31 18.174-3.215 39.059-11.863 56.008-6.432 12.605-27.498 13.688-40.069 13.906-5.649-.235-9.469-1.671-14.853-3.081 11.94-2.083 32.902-1.813 42.422-7.659 15.235-9.356 15.594-39.29 18.885-54.894 1.441-6.832 4.348-14.243 5.834-21.046 1.739-7.96 2.868-15.648 4.826-23.669"/><path fill="#823a25" d="M452.099 399.231c6.019.225 13.094 1.759 19.398 2.388a261.4 261.4 0 0 0 46.009.93c5.384 1.41 9.204 2.846 14.853 3.081-15.842 3.144-66.185 1.223-80.26-6.399"/><path fill="#dda183" d="M362.755 322.738c13.897-7.228 31.583-6.658 46.578-3.431-1.094 1.349-1.955 2.493-3.899 2.368-7.085-.458-36.764 4.436-41.506 2.358z"/><path fill="#775340" d="M353.305 341.846c8.839-16.691 68-15.857 74.837.991-6.162-2.534-8.8-4.838-16.439-7.007-21.809-6.193-38.749-4.373-58.398 6.016"/><path fill="#775340" d="M316.699 402.107c-.307 1.126-.521 2.764-1.818 3.074-12.463 2.973-38.89 1.854-50.686-1.255 6.983-1.45 21.648-.189 29.364-.423 7.862-.239 15.317-.898 23.14-1.396"/><path fill="#131213" d="m490.732 296.671.424-.059c22.649-.566 74.885-1.62 77.727 29.696 1.459 16.068.294 44.741-9.894 57.889-7.517 9.7-27.715 11.127-38.774 12.349-15.905.33-50.13 1.158-62.474-8.498-15.887-12.428-24.539-63.883-11.535-80.41 7.413-9.421 32.856-10.13 44.526-10.967"/><path fill="#bbf2f8" d="M481.784 301.017c21.621-1.553 42.615-.507 63.781 4.253 2.272.691 4.03 1.025 5.894 2.478 7.121 4.577 11.366 8.05 13.337 16.768q.197.875.342 1.759c.872 18.721 1.047 53.797-19.309 62.196-2.227 1.186-2.835 1.327-5.39 1.465-11.136.651-21.67 2.629-32.803 2.756-9.544.108-19.423-1.546-28.837-1.104-2.6-.018-3.004-.002-5.4-.964l-6.398-1.745c-18.264-5.103-22.661-37.541-23.098-53.646-.175-7.696-.722-19.618 5.075-25.504 5.309-5.389 19.627-8.359 27.003-8.227 1.925-.222 3.869-.342 5.803-.485"/><path fill="#476e72" d="M492.544 315.675c16.429-8.576 23.13-9.496 39.021 1.139a45.6 45.6 0 0 1 12.184 28.561c1.71 29.055-26.529 57.82-51.768 34.6a39.36 39.36 0 0 1-12.768-27.83c-.522-15.249 3.093-25.583 13.331-36.47"/><path fill="#bbf2f8" d="M498.539 321.153c15.438 1.019 16.212 17.071 2.883 24.272-14.741-.03-16.066-16.529-2.883-24.272"/><path fill="#bbf2f8" d="M520.061 356.353a5.25 5.25 0 0 1 6.205 6.776 5.247 5.247 0 1 1-6.205-6.776"/><path fill="#476e72" d="M467.001 388.879c-18.264-5.103-22.661-37.541-23.098-53.646-.175-7.696-.722-19.618 5.075-25.504 5.309-5.389 19.627-8.359 27.003-8.227-.052 3.057-7.2 12.676-9.279 16.264-7.419 20.611-8.307 41.144.634 61.848 1.316 3.049 5.88 8.395 6.063 11.01z"/><path fill="#6f9aa0" d="M467.001 388.879c-1.686-3.292-7.297-10.905-8.147-13.58-4.487-14.9-6.891-32.706-4.399-48.128 1.136-7.033 4.672-11.726 12.247-9.405-7.419 20.611-8.307 41.144.634 61.848 1.316 3.049 5.88 8.395 6.063 11.01z"/><path fill="#8ecbdc" d="M481.784 301.017c21.621-1.553 42.615-.507 63.781 4.253 2.713 5.269 5.49 9.99 7.78 15.483-6.286-1.572-15.738-4.589-21.78-3.939-15.891-10.635-22.592-9.715-39.021-1.139-3.807-1.716-16.808-.362-21.865-.033 3.898-6.981 5.711-8.968 11.105-14.625"/><path fill="#32545d" d="M545.565 305.27c2.272.691 4.03 1.025 5.894 2.478 7.121 4.577 11.366 8.05 13.337 16.768q.197.875.342 1.759c.872 18.721 1.047 53.797-19.309 62.196-2.227 1.186-2.835 1.327-5.39 1.465a64.4 64.4 0 0 0 9.544-13.205c10.553-19.306 9.237-35.78 3.362-55.978-2.29-5.493-5.067-10.214-7.78-15.483"/><path fill="#6ea192" d="M557.621 325.332c1.978.145 5.851.246 7.517.943.872 18.721 1.047 53.797-19.309 62.196.995-2.944 4.502-6.779 6.085-9.661 9.99-18.185 10.246-34.228 5.707-53.478"/><path fill="#476e72" d="M551.459 307.748c7.121 4.577 11.366 8.05 13.337 16.768q.197.875.342 1.759c-1.666-.697-5.539-.798-7.517-.943-1.335-5.789-5.467-12.25-6.162-17.584"/><path fill="#32545d" d="M475.981 301.502c1.925-.222 3.869-.342 5.803-.485-5.394 5.657-7.207 7.644-11.105 14.625-7.979 18.927-10.359 39.896-2.463 59.319a53 53 0 0 0 10.583 16.627c-2.6-.018-3.004-.002-5.4-.964-.183-2.615-4.747-7.961-6.063-11.01-8.941-20.704-8.053-41.237-.634-61.848 2.079-3.588 9.227-13.207 9.279-16.264"/><path fill="#6ea192" d="M646.754 690.134c-20.065-4.073-30.945-13.363-39.848-32.283-9.598-20.394-11.117-61.643 12.762-73.257 10.185-4.953 32.897-.005 43.553 4.104 10.227 4.069 21.204 8.851 30.693 14.473 4.984 2.069 9.696 4.859 14.414 7.494 8.53 4.529 17.701 9.559 25.714 14.924a205 205 0 0 1 17.929 12.168c4.017 2.851 6.728 5.128 9.81 9.003 18.72 19.172 28.444 47.537 28.312 74.138-.125 25.459-14.694 61.016-46.006 53.914 2.188-5.337 4.152-11.051 1.254-16.457-5.73-10.685-16.718-14.198-27.745-9.711-8.616 3.506-8.54 15.562-12.149 15.74-1.159-1.331-1.334-2.76-1.602-4.527-1.349-8.871-5.322-12.353-12.252-17.539-12.396-5.194-17.141-2.022-22.658 9.465a150 150 0 0 1-2.037-3.996c-6.851-14.123-3.348-27.788 1.531-41.718 8.92-20.235 19.992-28.184 37.435-39.895-13.202.367-30.307 20.672-38.088 30.707-14.257-8.007-27.576-15.188-37.915-28.218-1.797-1.342-4.538-4.055-6.257-5.666 5.59 12.531 12.95 18.597 23.15 27.137"/><path fill="#476e72" d="M730.558 631.278c1.22-2.428 1.704-3.551 3.484-5.689a205 205 0 0 1 17.929 12.168c4.017 2.851 6.728 5.128 9.81 9.003 18.72 19.172 28.444 47.537 28.312 74.138-.125 25.459-14.694 61.016-46.006 53.914 2.188-5.337 4.152-11.051 1.254-16.457-5.73-10.685-16.718-14.198-27.745-9.711-8.616 3.506-8.54 15.562-12.149 15.74-1.159-1.331-1.334-2.76-1.602-4.527-1.349-8.871-5.322-12.353-12.252-17.539 3.899.396 8.196 2.581 11.821 4.212 20.573-12.412 30.418-6.434 51.162-5.646l.793.027c8.333-5.915 10.443-16.577 12.081-25.976l1.398-.298c-1.708-.947-1.091-4.393-1.068-6.592.132-12.549-2.604-22.992-6.375-34.784l-.934-.434c-.14-2.233-4.815-9.943-6.198-12.2-14.626-2.33-9.892-6.889-18.372-16.511-3.182-3.611-9.645-8.289-13.734-11.293 2.774-.46 5.619-1.027 8.391-1.545"/><path fill="#32545d" d="M761.405 673.261c5.956-.043 7.753-.186 13.078 2.164 6.373 7.957 13.351 28.177 3.754 36.321-2.594 2.202-6.112 2.533-9.389 2.891-1.708-.947-1.091-4.393-1.068-6.592.132-12.549-2.604-22.992-6.375-34.784"/><path fill="#32545d" d="M751.971 637.757c4.017 2.851 6.728 5.128 9.81 9.003-.522 5.518 1.212 14.188-7.881 12.286-6.066-1.256-15.2-9.549-13.997-16.107.775-4.228 9.155-3.795 12.068-5.182"/><path fill="#476e72" d="M646.754 690.134c-20.065-4.073-30.945-13.363-39.848-32.283-9.598-20.394-11.117-61.643 12.762-73.257 10.185-4.953 32.897-.005 43.553 4.104-13.153 3.221-32.15 6.197-39.487 18.74-8.941 15.286-4.189 36.233 2.238 51.57 1.223 2.918 3.014 6.774 3.889 9.655-1.797-1.342-4.538-4.055-6.257-5.666 5.59 12.531 12.95 18.597 23.15 27.137"/><path fill="#6f9aa0" d="M702.555 684.818c2.868.974 4.819.838 7.839.88 2.398 2.414 3.997 3.877 3.971 7.531-.049 7.192-5.211 14.666-10.304 19.343-7.079 6.501-16.812 12.374-26.169 7.202-3.302-9.827 5.731-23.027 12.978-29.02 3.818-3.158 7.036-4.478 11.685-5.936"/><path fill="#a1c4ad" d="M705.864 666.174a302 302 0 0 1 14.099-4.538c-7.908 9.216-11.101 12.558-17.408 23.182-4.649 1.458-7.867 2.778-11.685 5.936-7.247 5.993-16.28 19.193-12.978 29.02-.515 2.991-.621 4.235-2.861 6.227-9.422 2.758-4.572-15.011-6.602-19.932 8.92-20.235 19.992-28.184 37.435-39.895"/><path fill="#476e72" d="m760.471 672.827.934.434c3.771 11.792 6.507 22.235 6.375 34.784-.023 2.199-.64 5.645 1.068 6.592l-1.398.298c-24.164-6.708-35.873-32.269-6.979-42.108"/><path fill="#32545d" d="M708.328 610.665c8.53 4.529 17.701 9.559 25.714 14.924-1.78 2.138-2.264 3.261-3.484 5.689-2.772.518-5.617 1.085-8.391 1.545l-1.06-.336c-4.344-4.036-8.257-6.962-12.824-11.447l-1.04-2.705c.253-2.804.603-4.909 1.085-7.67"/><path fill="#476e72" d="M693.914 603.171c4.984 2.069 9.696 4.859 14.414 7.494-.482 2.761-.832 4.866-1.085 7.67-4.453-4.906-10.458-9.252-13.329-15.164"/><path fill="#476e72" d="M708.283 621.04c4.567 4.485 8.48 7.411 12.824 11.447-8.063-1.249-11.289-3.169-12.824-11.447"/><path fill="#476e72" d="M674.502 602.477c12.821-.482 29.109 7.523 23.17 22.775-1.777 4.563-4.814 7.993-8.02 11.592-13.104 10.15-19.026-2.718-20.758-14.163-1.517-10.028-3.914-14.69 5.608-20.204"/><path fill="#476e72" d="M641.333 622.526c11.863.281 13.544 14.186 5.615 22.165a31 31 0 0 1-1.323-.05c-8.779-.556-9.56-9.902-8.794-16.686 1.705-2.717 2.198-3.199 4.502-5.429"/><path fill="#6f9aa0" d="M661.061 650.288c11.791-.231 13.966 11.261 6.238 19.045-10.736 1.534-15.375-11.829-6.238-19.045"/><path fill="#476e72" d="M710.461 639.559c14.544-.568 9.342 10.693.534 16.195-13.845.608-9.495-10.817-.534-16.195"/><path fill="#476e72" d="M729.211 669.376a28 28 0 0 1 1.641-.057c9.478-.016 9.982 10.057 2.966 16.108-10.675 1.14-11.396-9.353-4.607-16.051"/><path fill="#a1c4ad" d="M717.413 703.656c2.58.161 5.519-.073 7.191 2.022-.609 1.909-.786 1.541-2.683 3.066-2.528.068-5.922.463-7.331-1.904.8-2.084.778-1.57 2.823-3.184"/><path fill="#a8c27d" d="M326.067 594.608c3.705-8.427 8.904-18.363 14.52-25.618-1.673 17.691-.166 18.883 6.683 35.659l-1.999 5.631c-3.813 10.831-8.488 28.478 2.981 36.614 17.832 3.107 33.5-6.461 46.414-17.663 9.466 5.128 13.736 5.281 24.306 6.602a431 431 0 0 0-5.857 52.99c-.511 10.257-.361 21.866-1.123 31.772-22.323-.066-81.572-9.549-99.912-20.379l-8.205-2.941c23.835 16.723 76.322 24.972 105.251 25.774 3.57 2.466 2.524 5.881 2.424 10.156-.454 19.523-3.12 39.039-.917 58.537.887 7.847 1.037 16.214 1.138 24.123-34.609-3.632-69.749-8.313-101.482-22.77-3.042-1.386-9.048-3.679-12.125-3.78-1.131-.229-6.442-2.623-9.439-3.374-.134-2.515-.712-5.087-1.194-7.569-10.891-21.28 3.989-65.711 7.086-88.382 4.842-35.447 16.028-63.16 31.45-95.382"/><path fill="#6a7e4f" d="M348.252 646.894c17.832 3.107 33.5-6.461 46.414-17.663 9.466 5.128 13.736 5.281 24.306 6.602a431 431 0 0 0-5.857 52.99c-.511 10.257-.361 21.866-1.123 31.772-22.323-.066-81.572-9.549-99.912-20.379 6.301.528 12.451 3.012 18.764 4.347 22.105 4.673 44.634 8.976 67.034 12.002 4.532.612 10.206.45 10.757-5.756 1.785-20.086 1.532-42.982 5.085-62.609-5.828-.467-12.224-2.057-17.92-3.413-10.559 5.728-27.763 15.439-40.256 11.133-4.119-1.42-5.695-5.277-7.292-9.026"/><path fill="#6a7e4f" d="M409.126 723.049c3.57 2.466 2.524 5.881 2.424 10.156-.454 19.523-3.12 39.039-.917 58.537.887 7.847 1.037 16.214 1.138 24.123-34.609-3.632-69.749-8.313-101.482-22.77-3.042-1.386-9.048-3.679-12.125-3.78-1.131-.229-6.442-2.623-9.439-3.374-.134-2.515-.712-5.087-1.194-7.569 10.252 4.26 20.277 9.732 30.569 14.047a242.9 242.9 0 0 0 90.328 19.446c-.561-17.568-3.427-35.271-2.085-53.119.896-11.923 2.07-23.757 2.783-35.697"/><path fill="#6a7e4f" d="M326.067 594.608c3.705-8.427 8.904-18.363 14.52-25.618-1.673 17.691-.166 18.883 6.683 35.659l-1.999 5.631c-5.4-5.06-13.273-10.967-19.204-15.672"/><path fill="#6ea192" d="M311.24 871.573c38.085 52.261 66.882 72.775 130.081 89.368-4.3 32.175 1.483 54.469 5.647 85.629 1.988 14.88-80.077 21.62-91.098 23.47.132-3.44.321-7 .365-10.42-2.059-8.59-6.525-21.16-18.58-16.31-8.638 3.48-13.718 13.87-17.142 22.08l-7.916.05c.365-12.23 1.379-29.02-13.909-32-7.816 3.2-9.746 4.8-15.405 11.07-.111-6.53-.221-8.32-2.702-14.3 8.804-8.31 22.721-15.71 34.053-25.94-2.151-10.62-4.928-20.841-6.926-31.64l-1.53-6.954c-2.052-9.318-3.149-33.336-1.96-42.771-.114-10.898 2.301-25.766 3.855-36.759.978-5.108 1.899-9.526 3.167-14.573"/><path fill="#476e72" d="M311.24 871.573c38.085 52.261 66.882 72.775 130.081 89.368-4.3 32.175 1.483 54.469 5.647 85.629 1.988 14.88-80.077 21.62-91.098 23.47.132-3.44.321-7 .365-10.42.222 1.79.169 2.8 1.103 4.29 8.41.1 23.27-14.32 29.088-20.23 8.964-9.1 8.763-20.06 7.996-31.92a46 46 0 0 1-5.904-3.46c-11.895-8.29-5.138-16.554 1.128-24.993-1.661-18.937-10.815-19.144-22.603-31.363-12.803-13.271-25.282-27.082-37.704-40.725-.247 5.821-.176 6.91-3.197 11.876-2.832-4.825-6.148-12.309-8.432-17.46.68-.396 3.617-1.422 4.886-2.026l.024-1.192c-2.252-4.92-10.306-12.732-14.547-16.271.978-5.108 1.899-9.526 3.167-14.573"/><path fill="#32545d" d="M391.5 983.762c14.443 1.572 22.62 12.16 13.131 25.158-1.851 1.09-8.914 4.49-9.767.99-1.214-4.99-4.839-21.821-3.364-26.148"/><path fill="#32545d" d="M423.145 988.639c9.997.748 8.93 7.208 5.803 14.261-8.991-1.59-9.985-7.027-5.803-14.261"/><path fill="#32545d" d="M400.851 957.233c8.619.071 10.877 4.632 6.356 11.595-7.249-.78-10.808-5.01-6.356-11.595"/><defs><linearGradient id="d" x1="332.164" x2="290.739" y1="916.584" y2="947.237" gradientUnits="userSpaceOnUse"><stop offset="0" stop-color="#83b5a8"/><stop offset="1" stop-color="#b2c4ba"/></linearGradient></defs><path fill="url(#d)" d="M308.073 886.146c4.241 3.539 12.295 11.351 14.547 16.271l-.024 1.192c-1.269.604-4.206 1.63-4.886 2.026-8.286 17.062 7.45 16.336 8.153 19.773 2.576 12.595.77 29.814 1.499 42.993-6.062 1.335-11.516 2.744-17.508 4.377l-2.146-.148-1.53-6.954c-2.052-9.318-3.149-33.336-1.96-42.771-.114-10.898 2.301-25.766 3.855-36.759"/><path fill="#6f9aa0" d="M306.178 965.676c-2.052-9.318-3.149-33.336-1.96-42.771.07 1.061-.026 5.709 1.101 5.942 12.208 2.529 23.415 22.121 14.047 32.42-2.959 3.252-11.231 2.482-13.188 4.409"/><path fill="#a1c4ad" d="M314.634 1004.27c2.45 1.84 2.944 2.18 5.822 3.43 4.929 1.96 8.068 3.05 13.318 4.25-6.421 8.12-22.08 17.76-32.075 21.25-.65.23-2.169-.05-3.011.24-7.816 3.2-9.746 4.8-15.405 11.07-.111-6.53-.221-8.32-2.702-14.3 8.804-8.31 22.721-15.71 34.053-25.94"/><path fill="#2c2c2e" d="M327.362 968.401c3.849-4.181 2.618-10.372 5.789-12.026.888 1.664.032 5.524-.517 7.37a14.9 14.9 0 0 1-4.165 6.76l-1.416.757c-3.899.841-13.937 3.515-17.199 1.516 5.992-1.633 11.446-3.042 17.508-4.377"/><path fill="#131213" d="M320.456 1007.7c3.576-.44 11.948 1.54 14.83 3.59l-.302.59-1.21.07c-5.25-1.2-8.389-2.29-13.318-4.25"/><path fill="#a1c4ad" d="m327.053 971.262 1.416-.757c5.209 4.281 4.21 11.266 2.571 17.057l-.365-12.769z"/><path fill="#476e72" d="M348.776 956.685c13.448 1.917 12.335 12.534 3.343 19.957-11.72 1.72-12.061-12.989-3.343-19.957"/><path fill="#476e72" d="M345.453 933.994a4.169 4.169 0 1 1 1.236 8.245 4.169 4.169 0 0 1-1.236-8.245"/><path fill="#6ea192" d="M330.92 574.743c-15.169 27.947-24.856 48.998-34.215 79.847-3.216 16.538-6.021 33.171-10.158 49.504-2.08 8.216-3.474 12.302-10.83 17.077-11.934 7.746-25.928 13.878-39.949 16.541-3.84 1.082-6.527 1.655-10.461 2.359-25.182 2.778-38.355.903-63.286-4.48-8.8-2.193-21.891-6.729-29.901-10.741-22.613-9.649-35.206-21.378-48.595-41.747 1.602 1.033 3.247 2.291 4.8 3.422 10.174 2.433 18.828-1.298 22.057-12.09.703-2.349-.292-4.552 1.239-6.846l.675.119c3.312 7.177-.028 18.762 5.601 30.428l2.362 2.623.473-.38-.084-1.736c-1.378-3.242-2.187-6.041-3.209-9.417 15.348 12.428 34.414 6.721 31.486-15.352l9.97-.077c-4.098 3.835-5.267 5.478-7.768 10.51 20.436-15.312 34.11-17.437 57.277-6.534-6.364-6.706-9.272-8.413-18.189-10.509 20.213-9.496 27.612-16.339 35.317-37.114 17.167 3.743 21.52 9.647 31.462 22.973-5.075-11.79-7.572-15.132-17.477-23.055l3.937-2.03c3.679-2.508 8.082-5.102 11.903-7.478 11.349-8.196 23.872-16.532 35.489-24.825 6.798-4.882 13.696-10.025 21.148-13.845 6.915-4.178 10.879-5.6 18.926-7.147"/><path fill="#476e72" d="M252.068 687.966c10.731-4.983 21.088-11.419 29.877-19.388 4.734-4.291 9.38-9.545 14.244-13.566l.516-.422c-3.216 16.538-6.021 33.171-10.158 49.504-2.08 8.216-3.474 12.302-10.83 17.077-11.934 7.746-25.928 13.878-39.949 16.541-3.84 1.082-6.527 1.655-10.461 2.359-25.182 2.778-38.355.903-63.286-4.48-8.8-2.193-21.891-6.729-29.901-10.741-22.613-9.649-35.206-21.378-48.595-41.747 1.602 1.033 3.247 2.291 4.8 3.422 10.174 2.433 18.828-1.298 22.057-12.09.703-2.349-.292-4.552 1.239-6.846l.675.119c3.312 7.177-.028 18.762 5.601 30.428l2.362 2.623.473-.38-.084-1.736c16.974 2.035 33.382 4.757 50.55 4.665q.353-.517.722-1.022c8.795-11.944 19.046-7.93 28.719-.395 9.652-1.334 18.55-3.192 28.029-5.357 3.643-11.382 13.491-22.278 23.4-8.568"/><path fill="#32545d" d="M171.198 703.308c6.087-.306 26.245-2.498 30.467 1.557a4.43 4.43 0 0 1 1.392 3.205c-.015 2.6-2.482 6.493-4.241 8.353-12.033 8.743-31.317 4.024-27.618-13.115"/><path fill="#32545d" d="M132.12 724.85c3.061-4.841 7.441-9.389 13.235-10.118 16.011-2.013 20.297 7.475 16.666 20.859-8.8-2.193-21.891-6.729-29.901-10.741"/><path fill="#32545d" d="m225.307 740.071-.081-.73c-4.118-4.984-6.531-9.861-1.95-15.465a19.59 19.59 0 0 1 13.76-7.11c4.093-.264 9.383 1.858 9.344 6.657-.041 5.027-7.447 9.765-10.756 13.223l.144 1.066c-3.84 1.082-6.527 1.655-10.461 2.359"/><path fill="#6ea192" d="M88.324 686.525c10.175 2.433 18.829-1.298 22.058-12.09.703-2.349-.292-4.552 1.239-6.846l.675.119c3.312 7.177-.028 18.762 5.601 30.428-5.904.476-27.793-5.569-29.573-11.611"/><path fill="#32545d" d="M277.692 698.23c15.177 2.174-2.229 19.305-10.785 21.972-12.254-4.011-3.677-15.144 3.108-19.413 2.709-1.704 4.653-2.043 7.677-2.559"/><path fill="#32545d" d="m251.264 688.511.446.541c2.575 10.934-8.921 21.305-19.686 16.575-6.461-7.008-2.63-9.462 4.005-11.273 4.609-1.257 10.664-4.013 15.235-5.843"/><path fill="#32545d" d="M199.688 720.491c8.038.239 8.74 5.762 2.552 10.312-8.241-.746-9.4-5.675-2.552-10.312"/><path fill="#6ea192" d="M255.357 620.56c11.349-8.196 23.872-16.532 35.489-24.825.902 6.841.295 8.762-2.548 15.084-.756 2.336-1.876 6.2-2.758 8.359-2.805 3.939-6.314 7.318-11.376 7.014-2.811-.011-4.866-.411-7.629-.864-4.706-1.112-7.164-2.066-11.178-4.768"/><path fill="#6f9aa0" d="M266.535 625.328c2.794-4.109 17.015-14.028 21.763-14.509-.756 2.336-1.876 6.2-2.758 8.359-2.805 3.939-6.314 7.318-11.376 7.014-2.811-.011-4.866-.411-7.629-.864"/><path fill="#a1c4ad" d="M255.357 620.56c4.014 2.702 6.472 3.656 11.178 4.768 2.763.453 4.818.853 7.629.864l2.504.634.083.556c-3.652 4.238-14.607 11.963-19.641 15.667-4.507-6.069-7.541-10.283-13.656-15.011 3.679-2.508 8.082-5.102 11.903-7.478"/><path fill="#a1c4ad" d="M311.994 581.89c.962 2.275-23.745 36.282-26.454 37.288.882-2.159 2.002-6.023 2.758-8.359 2.843-6.322 3.45-8.243 2.548-15.084 6.798-4.882 13.696-10.025 21.148-13.845"/><path fill="#6f9aa0" d="M230.196 637.499c2.64-.185 5.331-.167 7.981-.195 6.179 6.163 8.132 12.019-.134 17.675-13.155.851-18.546-13.277-7.847-17.48"/><path fill="#476e72" d="M282.899 633.952c13.52-.475 11.911 10.933 3.457 17.944-12.287.514-13.954-11.894-3.457-17.944"/><path fill="#a8c27d" d="M288.725 785.941c2.997.751 8.308 3.145 9.439 3.374 37.867 20.462 68.79 25.894 111.481 30.266 1.193.817 1.534.672 1.705 2.238.392 3.606.528 7.619.727 11.236q.495 10.834 1.549 21.628c2.757 27.993 9.003 56.956 22.188 82.061 3.458 6.585 8.597 14.077 12.759 20.277-38.087-3.13-92.53-34.427-116.818-64.023-2.512-3.062-6.762-8.483-8.226-12.092a104 104 0 0 1-3.299-4.429c-17.704-25.145-37.067-58.751-31.505-90.536"/><path fill="#6a7e4f" d="M409.645 819.581c1.193.817 1.534.672 1.705 2.238.392 3.606.528 7.619.727 11.236q.495 10.834 1.549 21.628c2.757 27.993 9.003 56.956 22.188 82.061 3.458 6.585 8.597 14.077 12.759 20.277-38.087-3.13-92.53-34.427-116.818-64.023-2.512-3.062-6.762-8.483-8.226-12.092 5.869 3.355 13.162 10.416 19.602 14.538 27.858 17.834 49.981 23.708 81.797 29.72-13.013-31.998-17.098-71.336-15.283-105.583"/><defs><linearGradient id="e" x1="142.928" x2="121.847" y1="653.329" y2="545.458" gradientUnits="userSpaceOnUse"><stop offset="0" stop-color="#8f5b32"/><stop offset="1" stop-color="#b18159"/></linearGradient></defs><path fill="url(#e)" d="M94.597 555.278c13.389-26.937 106.4-21.867 91.097 23.561.955 15.327 7.41 30.668 22.678 36.34-2.578 22.809-40.467 36.888-60.547 37.777-4.86.216-10.004.079-14.647.432-6.64-3.378-10.824-5.731-16.155 1.242-1.205 4.016-1.731 5.596-3.576 9.321-6.345-4.197-9.79-9.091-14.681-14.931-5.043-4.092-8.081-5.333-14.313-6.626-2.77 1.612-3.71 2.625-6.015 4.833-6.938-6.808-10.154-10.634-12.514-20.037-8.038-22.811 17.339-40.476 26.917-58.263 3.874-7.193-1.146-7.134 1.756-13.649"/><path fill="#775340" d="M94.597 555.278c13.389-26.937 106.4-21.867 91.097 23.561-.563-4.173-.32-6.956-.141-11.122-14.436-23.573-52.582-27.62-76.95-19.623-4.003 1.313-9.16 5.077-13.416 6.931z"/><path fill="#775340" d="M98.766 649.02c5.994 1.325 12.369 3.677 18.257 5.61-1.205 4.016-1.731 5.596-3.576 9.321-6.345-4.197-9.79-9.091-14.681-14.931"/><path fill="#775340" d="M65.924 627.19c7.015 6.772 10.34 10.078 18.53 15.204-2.771 1.612-3.71 2.625-6.016 4.833-6.938-6.808-10.154-10.634-12.514-20.037"/><defs><linearGradient id="f" x1="704.125" x2="573.499" y1="966.237" y2="991.683" gradientUnits="userSpaceOnUse"><stop offset="0" stop-color="#4c7977"/><stop offset="1" stop-color="#86b4a4"/></linearGradient></defs><path fill="url(#f)" d="M584.989 1061.53c8.249-26.22 7.33-36.12 1.623-62.806-5.881-27.501-11.281-59.146-3.932-86.814 5.882-22.144 21.653-34.53 40.653-45.32-1.1 7.798-1.623 18.531-2.166 26.509l-2.865 43.908-.822 7.872c-.197 10.838-1.145 23.632-2.257 34.388-2.959-1.508-4.124-1.951-6.377-4.411-2.238-3.134-3.293-6.665-4.51-10.279-1.201 9.181 3.328 13.131 10.623 16.906l.4.202a143 143 0 0 0-1.227 16.29c-.657 7.445-1.208 15.685-1.19 23.145a4862 4862 0 0 0 103.328 15.23c2.786 8.02 6.808 18.6 7.911 26.98.969 7.34-3.298 11.94-7.608 17.02-5.5-11.53-15.435-26.94-30.852-17.2-8.119 5.12-10.349 15.29-12.01 24.17-5.155-.17-7.916-.13-12.878 1.22-1.395-6.05-2.305-10.75-5.328-16.29-5.405-9.9-16.613-17.39-27.668-10.64-8.503 5.2-11.869 14.08-14.22 23.35-1.771-.22-3.641-.39-5.426-.58-2.469-15.56-2.583-29.83-23.202-22.85"/><path fill="#476e72" d="M612.942 1021.12c-7.329-1.45-21.806-12.19-14.514-21.286 2.872-3.583 11.137-2.218 15.704-1.859-.657 7.445-1.208 15.685-1.19 23.145"/><path fill="#a1c4ad" d="M606.666 949.811c2.074 1.919 4.383 1.747 5.29 4.518 1.847 5.645-.129 15.589-3.11 20.527-2.238-3.134-3.293-6.665-4.51-10.279-1.022-3.924-3.671-9.598-4.151-13.164 3.015.265 3.937-.116 6.481-1.602"/><path fill="#6f9aa0" d="M601.191 934.755c2.012-1.361 2.323-1.79 4.634-1.932 5.703 2.177 3.163 13.439.841 16.988-2.544 1.486-3.466 1.867-6.481 1.602-1.313-2.712-1.895-3.776-2.632-6.715 1.087-3.301 2.43-6.663 3.638-9.943"/><path fill="#a1c4ad" d="M617.48 944.879c-1.925-.513-2.119-.65-3.524-2.069-1.467-4.324 1.04-4.84 4.346-5.803z"/><path fill="#a1c4ad" d="M597.553 944.698c-.341-4.01.175-7.46 3.638-9.943-1.208 3.28-2.551 6.642-3.638 9.943"/><path fill="#131213" d="M632.839 1031.86c8.952-1.09 30.628-.08 39.928 1.07-3.329.88-8.224 1.1-11.768 1.39a358 358 0 0 1-39.821-.99c4.247-.86 7.379-1.11 11.661-1.47"/><path fill="#476e72" d="m280.046 303.1 6.599.039c-4.691 5.583-6.578 8.22-9.681 14.924 5.41-.383 14.318-1.285 19.327-.592 4.235-3.053 6.121-4.191 11.197-5.309l-.959-.511c-1.072.2-1.671.414-2.732.211-.669-2.213 1.147-7.439 3.28-8.543 3.078.749 5.09.946 8.13-.015 9.399-.222 22.39 1.697 24.899 12.538 2.957 12.78 1.333 26.053 1.239 38.986l-5.554 7.292c-3.683 5.247-8.825 13.38-12.07 18.934a729 729 0 0 1-3.837 10.309c-7.356 1.018-16.936 1.841-23.973 3.101q-3.39.015-6.78-.028c-5.1-.814-13.547-1.255-19.002-1.766-2.097-.153-3.215-.641-5.185-1.305-2.918-1.114-5.56-2.131-7.962-4.144-10.539-8.83-11.378-30.155-12.383-43.22-.86-3.175-.684-11.494-.262-14.901l1.607-13.378c.362-.914 1.179-2.239 1.687-3.138 5.311-6.054 10.942-6.614 18.509-8.107.772-.298 6.415-.743 7.533-.838 1.731.005 4.568-.362 6.373-.539"/><path fill="#32545d" d="m280.046 303.1 6.599.039c-4.691 5.583-6.578 8.22-9.681 14.924-8.938 28.623-6.879 57.599 18.947 76.401q-3.39.015-6.78-.028c-5.1-.814-13.547-1.255-19.002-1.766-2.097-.153-3.215-.641-5.185-1.305-2.918-1.114-5.56-2.131-7.962-4.144-10.539-8.83-11.378-30.155-12.383-43.22-.86-3.175-.684-11.494-.262-14.901l1.607-13.378c.362-.914 1.179-2.239 1.687-3.138 5.311-6.054 10.942-6.614 18.509-8.107.772-.298 6.415-.743 7.533-.838 1.731.005 4.568-.362 6.373-.539"/><path fill="#6f9aa0" d="m280.046 303.1 6.599.039c-4.691 5.583-6.578 8.22-9.681 14.924-8.938 28.623-6.879 57.599 18.947 76.401q-3.39.015-6.78-.028c-5.1-.814-13.547-1.255-19.002-1.766-.182-9.352-2.382-20.721-3.457-30.235-2.441-21.59 1.295-38.299 7.001-58.796 1.731.005 4.568-.362 6.373-.539"/><path fill="#32545d" d="m280.046 303.1 6.599.039c-4.691 5.583-6.578 8.22-9.681 14.924-8.938 28.623-6.879 57.599 18.947 76.401q-3.39.015-6.78-.028c-.058-.568-.256-1.882-.729-2.317-20.794-19.091-23.196-49.747-14.01-75.116 1.505-4.157 4.503-7.546 6.412-11.385.514-1.034-.294-1.795-.758-2.518"/><path fill="#bbf2f8" d="M244.62 336.335c5.677 1.122 10.849 2.406 16.462 3.823-.113 8.879-.001 15.491.747 24.243.433 5.068 4.176 24.024 3.115 26.964-2.918-1.114-5.56-2.131-7.962-4.144-10.539-8.83-11.378-30.155-12.383-43.22z"/><path fill="#8e7364" d="M245.944 315.722c6.312 2.39 11.786 4.547 17.967 7.164-1.12 4.692-2.175 9.076-2.567 13.922-4.112-1.027-13.852-2.882-16.542-5.569l-.465-2.139z"/><path fill="#bbf2f8" d="m266.14 304.477 1.548.411c1.163 2.838-2.137 11.202-3.144 14.414-5.692-2.095-11.46-4.075-16.913-6.718 5.311-6.054 10.942-6.614 18.509-8.107"/><path fill="#bbf2f8" d="M276.964 318.063c5.41-.383 14.318-1.285 19.327-.592-12.388 17.341-17.051 49.925 2.561 63.709a29.2 29.2 0 0 0 13.704 5.027c3.071-1.301 8.821-4.385 11.165-5.153a729 729 0 0 1-3.837 10.309c-7.356 1.018-16.936 1.841-23.973 3.101-25.826-18.802-27.885-47.778-18.947-76.401"/><path fill="#6f9aa0" d="M315.207 303.304c9.399-.222 22.39 1.697 24.899 12.538 2.957 12.78 1.333 26.053 1.239 38.986l-5.554 7.292c-2.15-1.683 1.221-32.671-11.087-44.613-5.046-4.895-10.464-5.428-17.216-5.345l-.959-.511c-1.072.2-1.671.414-2.732.211-.669-2.213 1.147-7.439 3.28-8.543 3.078.749 5.09.946 8.13-.015"/><path fill="#bbf2f8" d="M299.432 322.217c3.669.669 6.526 1.392 9.089 4.478a10.54 10.54 0 0 1 2.378 8.182c-.641 5.115-3.025 7.131-6.718 10.02l-.675-.003c-14.256-.128-13.49-14.771-4.074-22.677"/><path fill="#bbf2f8" d="M315.339 355.349c8.239.761 7.569 5.137 4.305 11.046-8.522-.267-7.884-5.388-4.305-11.046"/><path fill="#525c90" d="M628.591 204.363c13.518-1.809 36.069 3.248 42.556 17.271.915 1.979 1.787 5.747.912 7.824-2.181.149-13.101-6.067-17.244-6.779-23.902-4.105-47.491 5.585-69.784 12.867a2156 2156 0 0 1-45.08 14.054c-90.016 27.059-181.39 28.83-267.535-11.673-14.714-7.261-19.645-14.181-36.803-13.324 3.998-11.271 6.81-14.355 18.124-18.474 10.497 3.405 21.013 9.954 30.724 15.321a238 238 0 0 0 27.195 12.949c72.314 28.428 151.271 22.885 224.641 1.586a367 367 0 0 0 36.221-12.511c19.298-7.782 35.361-15.735 56.073-19.111"/><path fill="#544646" d="M641.125 444.118c7.184 6.309 9.323 9.408 13.828 17.532 4.855 10.926 5.599 20.99 1.247 32.365a58.6 58.6 0 0 1-6.09 11.588c-4.928 7.419-14.888 17.688-10.645 27.393 9.282 21.235 54.432 22.303 65.573 63.784.808 2.312 1.688 6.134 2.334 8.614-17.498-10.082-39.096-22.277-59.106-25.7-11.215-1.919-19.459.53-31.284-3.672-25.927-9.213-30.358-34.072-20.36-57.385 7.026-16.837 19.697-26.122 29.323-41.101 6.898-10.735 10.878-21.469 15.18-33.418"/><path fill="#8e7364" d="M705.038 596.78c-7.042-4.549-12.763-13.244-21.021-17.6-18.237-9.799-46.634-13.437-60.211-30.211-17.235-21.294 7.935-49.94 19.125-67.587 3.876-6.113 6.607-15.521 12.022-19.732 4.855 10.926 5.599 20.99 1.247 32.365a58.6 58.6 0 0 1-6.09 11.588c-4.928 7.419-14.888 17.688-10.645 27.393 9.282 21.235 54.432 22.303 65.573 63.784"/><path fill="#2c2c2e" d="M398.823 193.509c10.361-.249 22.441.462 33.059.559 15.83.109 31.659-.321 47.459-1.289 5.221-.303 16.279-.712 20.776-2.038 1.43 11.695.603 25.217 1.984 37.16.389 3.367 1.586 7.666 2.33 11.177-1.603 1.319-4.044 1.719-6.071 2.01-33.272 4.788-68.573 11.507-102.25 8.227a45 45 0 0 1-2.802-.376c2.517-3.001 5.207-49.159 5.515-55.43"/><path fill="#8e7364" d="M654.167 509.195c4.974.605 10.345 1.509 15.335 2.257 7.501 2.331 24.173 5.668 29.977 8.931 12.797 7.195 49.801 51.574 50.933 63.767 3.461 15.657 1.69 30.298-2.545 45.509l-9.136-6.234c-8.828-5.32-17.833-10.033-26.642-15.546-1.223-6.37-2.101-11.421-3.676-17.781-8.133-21.206-25.031-32.401-43.1-43.426-2.233-.803-6.742-3.167-9.041-4.291a83 83 0 0 1-3.879-2.123c-5.658-3.355-7.559-6.884-9.143-13.006 2.27-9.216 4.488-11.126 10.917-18.057"/><path fill="#775340" d="M654.167 509.195c4.974.605 10.345 1.509 15.335 2.257 7.501 2.331 24.173 5.668 29.977 8.931 12.797 7.195 49.801 51.574 50.933 63.767 3.461 15.657 1.69 30.298-2.545 45.509l-9.136-6.234c-8.828-5.32-17.833-10.033-26.642-15.546-1.223-6.37-2.101-11.421-3.676-17.781 8.739 8.266 6.313 15.68 20.879 21.382 3.451-2.387 5.003-3.527 7.157-7.33 3.937-6.952 2.755-17.004.409-24.434-7.305-23.132-25.317-44.147-46.637-55.631-5.214-2.801-11.607-5.378-17.529-3.301-6.879 2.413-10.458 9.546-9.806 16.565.324 3.5 1.288 6.038 2.427 9.323-2.233-.803-6.742-3.167-9.041-4.291a83 83 0 0 1-3.879-2.123c-5.658-3.355-7.559-6.884-9.143-13.006 2.27-9.216 4.488-11.126 10.917-18.057"/><path fill="#544646" d="M654.167 509.195c4.974.605 10.345 1.509 15.335 2.257-11.049 1.888-11.233 22.623-13.23 30.929a83 83 0 0 1-3.879-2.123c-5.658-3.355-7.559-6.884-9.143-13.006 2.27-9.216 4.488-11.126 10.917-18.057"/><path fill="#544646" d="M750.412 584.15c3.461 15.657 1.69 30.298-2.545 45.509l-9.136-6.234c12.279-13.507 8.258-23.67 11.681-39.275"/><path fill="#525c90" d="M689.894 540.531c17.149.181 32.62 23.998 38.197 38.482 2.806 7.29 4.753 14.013-1.91 19.553-19.096-.503-14.233-18.417-21.977-30.368-3.709-5.596-10.673-8.265-15.21-13.064-5.692-6.021-4.281-9.526.9-14.603"/><path fill="#775340" d="M761.582 575.301c4.979-2.339 10.348-4.996 15.346-7.195 8.632 8.134 11.085 13.248 16.166 23.925a684 684 0 0 1 6.619 18.385c5.026 20.077 8.628 38.012 10.517 58.544.455 4.689 1.383 13.066 1.276 17.704.101 5.551.509 14.746-.497 19.983-1.201 6.136-2.836 9.709-5.472 15.224-4.43-1.843-6.332-2.782-10.464-5.28-.474-3.803-.688-7.866-.959-11.707-5.132-25.729-12.596-41.919-29.542-61.619-4.435-4.049-7.948-7.075-12.675-10.77 4.459-16.156 5.544-36.151 1.372-52.418 3.081-2.152 4.921-3.078 8.313-4.776"/><path fill="#8e7364" d="m790.855 592.304 2.239-.273a684 684 0 0 1 6.619 18.385c-1.259 4.664-9.373 9.166-12.596 12.972 1.57 4.412 1.953 7.569 1.95 12.24-5.895 9.242-2.753 17.63-7.219 21.288-1.258-.113-1.682-.114-2.933-.413-.464-1.191-2.001-4.021-2.643-5.292-8.491-9.768-6.121-28.579-5.267-40.729 15.712 9.52 24.502-2.132 19.85-18.178"/><path fill="#525c90" d="m780.271 623.265 6.846.123c1.57 4.412 1.953 7.569 1.95 12.24-5.895 9.242-2.753 17.63-7.219 21.288-1.258-.113-1.682-.114-2.933-.413-.464-1.191-2.001-4.021-2.643-5.292-1.447-10.157.024-18.613 3.999-27.946"/><path fill="#775340" d="M799.713 610.416c5.026 20.077 8.628 38.012 10.517 58.544l-.424.594-.975-.04c-15.44-14.406-19.473-9.988-19.764-33.886.003-4.671-.38-7.828-1.95-12.24 3.223-3.806 11.337-8.308 12.596-12.972"/><path fill="#383e63" d="M789.067 635.628c.291 23.898 4.324 19.48 19.764 33.886l.975.04.424-.594c.455 4.689 1.383 13.066 1.276 17.704-2.76 2.199-8.288 6.884-11.413 5.037-4.004-2.367-8.949-13.889-11.326-17.979-3.356-5.776-7.451-11.438-9.852-17.219 1.251.299 1.675.3 2.933.413 4.466-3.658 1.324-12.046 7.219-21.288"/><path fill="#525c90" d="M771.005 610.482c-4.903-15.694 4.45-30.753 19.85-18.178 4.652 16.046-4.138 27.698-19.85 18.178"/><path fill="#544646" d="M753.269 580.077c3.081-2.152 4.921-3.078 8.313-4.776-.31 8.14.579 15.199.592 22.991.028 16.23-.292 28.868 2.398 44.973-4.435-4.049-7.948-7.075-12.675-10.77 4.459-16.156 5.544-36.151 1.372-52.418"/><path fill="#544646" d="M794.114 704.884c2.602 1.28 5.186 2.665 7.926 3.579l8.969-1.816c-1.201 6.136-2.836 9.709-5.472 15.224-4.43-1.843-6.332-2.782-10.464-5.28-.474-3.803-.688-7.866-.959-11.707"/><path fill="#476e72" d="M323.708 263.169c15.752 1.932 32.102 5.753 48.648 7.928 4.502.217 13.863.561 18.146 1.575 10.348.797 18.047.779 28.431.503 6.103-.546 16.558-.313 22.984-.369 8.765-.323 16.478-1.228 25.148-2.502-4.884 4.846-7.486 7.564-11.264 13.496-15.974 1.527-29.837 1.91-32.268 21.006-.002 4.185-.514 9.763-.781 14.036-23.912-6.915-36.46-7.82-60.493-.506q-.714-8.621-1.225-17.257c-.546-3.536-1.875-6.184-4.549-8.625-11.406-10.413-58.04-9.523-74.258-8.877 9.08-11.822 24.993-21.076 40.011-15.03 8.309 3.346 15.933 9.78 22.97 15.298-5.598-11.313-11.123-14.393-21.5-20.676"/><path fill="#6ea192" d="M361.034 301.079c13.225 1.197 26.729 2.757 39.913 3.741l.726.078c1.391 1.202 3.175 2.967 5.064 2.561 6.541-1.404 9.943-2.612 16.796-2.653-.002 4.185-.514 9.763-.781 14.036-23.912-6.915-36.46-7.82-60.493-.506q-.714-8.621-1.225-17.257"/><path fill="#32545d" d="M372.356 271.097c4.502.217 13.863.561 18.146 1.575-.168 2.149-.403 2.797-.849 5.048-1.539 7.758-17.237 15.187-21.25 6.186-1.963-4.404 1.663-8.14 3.575-12.026z"/><path fill="#32545d" d="M400.947 304.82c-4.437-17.009 10.236-25.336 15.396-9.722-2.175 11.705-3.643 10.036-14.67 9.8z"/><path fill="#32545d" d="M418.933 273.175c6.103-.546 16.558-.313 22.984-.369-5.376 1.063-11.889 12.813-18.656 10.207-3.254-1.253-3.759-6.931-4.328-9.838"/><path fill="#b6b5ad" d="m812.687 810.732 16.375-5.187 9.95 138.678c1.436 20.451 4.263 50.513 4.212 70.457-7.52-5.81-17.72-11.35-26.166-16.043-.713-16.307-.929-32.992-1.159-49.327-.568-40.202-2.37-80.587-2.624-120.771l-1.101-.074c-.08-5.562-.472-11.661-.723-17.259z"/><path fill="#544646" d="m811.451 811.206 1.236-.474c.16 5.015.83 13.252.588 17.807l-1.101-.074c-.08-5.562-.472-11.661-.723-17.259"/><defs><linearGradient id="g" x1="500.164" x2="450.025" y1="637.486" y2="578.638" gradientUnits="userSpaceOnUse"><stop offset="0" stop-color="#313b63"/><stop offset="1" stop-color="#4a5487"/></linearGradient></defs><path fill="url(#g)" d="M431.398 602.008c4.99-16.215 15.672-22.092 29.66-29.848 7.09-3.931 30.381-14.786 34.926-4.804 6.033 13.249-3.564 26.428-4.234 39.512.784 10.193 8.728 24.793 4.05 34.839-6.483 13.923-31.662 3.545-41.476-1.737-17.132-9.222-24.061-12.89-23.88-32.975 4.051 2.184 10.897 6.406 15.376 5.288.173-.258.679-.953.756-1.206l-4.541-2.019a274 274 0 0 1-8.026-3.98l8.476-1.634c2.864-.672 7.846-1.474 9.601-3.752-3.178-2.186-16.876 1.357-20.688 2.316"/><path fill="#a6c6da" d="m434.009 605.078 8.476-1.634c1.793.175 3.774.307 5.517.695 3.172 1.638 5.343 2.816 4.287 6.821-2.257 1.36-3.207.95-5.713.117l-4.541-2.019a274 274 0 0 1-8.026-3.98"/><path fill="#525c90" d="m434.009 605.078 8.476-1.634c1.793.175 3.774.307 5.517.695-3.115 1.266-4.491 1.855-5.967 4.919a274 274 0 0 1-8.026-3.98"/><path fill="#bbf2f8" d="M464.974 575.705a5.703 5.703 0 1 1 2.983 11.01 5.703 5.703 0 0 1-2.983-11.01"/><path fill="#8490c4" d="M464.42 631.415a5.431 5.431 0 1 1 3.414 10.311 5.431 5.431 0 0 1-3.414-10.311"/><path fill="#8490c4" d="M477.778 600.652c9.567-4.422 8.614 14.26 1.3 10.78-5.319-3.557-5.178-6.105-1.3-10.78"/><path fill="#a6c6da" d="M477.778 600.652q.75 5.378 1.3 10.78c-5.319-3.557-5.178-6.105-1.3-10.78"/><path fill="#544646" d="M345.228 187.366c4.914.644 15.628 2.233 20.372 2.071 2.967.266 8.707.614 11.432 1.139-2.455.02-3.649-.254-5.552 1.21 8.203.939 19.052 1.753 27.343 1.723-.308 6.271-2.998 52.429-5.515 55.43l-33.921-4.926c-9.65-.922-20.153-3.927-29.346-7.014 3.314-10.223 4.672-23.023 6.259-33.679.687-4.616 1.044-9.695 2.368-14.136 2.066-1.199 3.74.007 6.56-1.818"/><path fill="#2c2c2e" d="M345.228 187.366c4.914.644 15.628 2.233 20.372 2.071 2.967.266 8.707.614 11.432 1.139-2.455.02-3.649-.254-5.552 1.21a67 67 0 0 1-5.895.111c-1.683 10.259-2.275 21.946-3.495 32.429-.506 4.347-2.719 16.409-2.703 19.687-9.65-.922-20.153-3.927-29.346-7.014 3.314-10.223 4.672-23.023 6.259-33.679.687-4.616 1.044-9.695 2.368-14.136 2.066-1.199 3.74.007 6.56-1.818"/><path fill="#b6b5ad" d="M811.451 811.206c.251 5.598.643 11.697.723 17.259-.335 40.213.011 80.429 1.037 120.631.298 14.41-.322 35.674 1.094 49.627a827 827 0 0 0-19.813 37.837c-.108-18.41.759-36.917 1.425-55.324l2.855-84.506.909-29.575c.124-3.885.566-12.674.232-16.45 1.084-9.363.498-22.874 1.396-33.513z"/><defs><linearGradient id="h" x1="388.033" x2="343.331" y1="602.026" y2="599.296" gradientUnits="userSpaceOnUse"><stop offset="0" stop-color="#445085"/><stop offset="1" stop-color="#5f689d"/></linearGradient></defs><path fill="url(#h)" d="M346.143 567.015c11.362-10.01 38.68 11.111 48.15 18.604-.585.802-3.111 4.379-3.633 4.864-1.38 3.446-2.095 5.326-2.992 8.901-4.624-2.631-7.132-4.278-12.386-5.043l-.168.794c4.427 3.395 10.212 5.823 14.877 9.488-5.391.928-7.497 1.285-12.388 3.545 3.731-.16 6.875-.429 10.592-.824.463 8.718.588 11.402 4.099 19.707-9.842 7.357-48.776 32.756-46.689 3.705 1.408-10.15 3.013-16.202 6.383-25.617-6.544-15.612-10.778-21.356-5.845-38.124"/><path fill="#383e63" d="M378.413 609.273c-3.131-2.777-8.188-10.766-5.965-15.011 1.842-.499.929-.49 2.834.079l-.168.794c4.427 3.395 10.212 5.823 14.877 9.488-5.391.928-7.497 1.285-12.388 3.545 3.731-.16 6.875-.429 10.592-.824.463 8.718.588 11.402 4.099 19.707-9.842 7.357-48.776 32.756-46.689 3.705 2.061.655 5.207 1.564 7.156 2.331 1.042.32 1.842.414 2.616 1.072 1.345-3.765 3.524-6.348 5.847-9.607 1.028 1.063 1.865 1.819 2.711 3.034 5.125-1.225 7.043-5.354 9.625-9.506-2.167-1.974-3.961-3.565-2.661-6.497 2.472-2.042 4.356-1.958 7.514-2.31"/><path fill="#a6c6da" d="M378.413 609.273c2.259.421 1.463-.036 3.036 1.574.942 3.462-.12 5.699-3.185 7.577-2.153.322-2.515.132-4.704-.344-2.167-1.974-3.961-3.565-2.661-6.497 2.472-2.042 4.356-1.958 7.514-2.31"/><path fill="#a6c6da" d="M361.224 624.552c1.028 1.063 1.865 1.819 2.711 3.034-1.742 4.353-2.995 8.666-8.558 6.573 1.345-3.765 3.524-6.348 5.847-9.607"/><path fill="#383e63" d="M346.143 567.015c11.362-10.01 38.68 11.111 48.15 18.604-.585.802-3.111 4.379-3.633 4.864-3.557-3.338-16.696-8.201-21.723-11.249-6.708-4.067-15.513-9.938-22.794-12.219"/><path fill="#8ecbdc" d="M352.761 633.087c-.986-8.066.657-9.858 8.463-8.535-2.323 3.259-4.502 5.842-5.847 9.607-.774-.658-1.574-.752-2.616-1.072"/><path fill="#bbf2f8" d="M359.986 583.021a5.63 5.63 0 0 1 7.458 6.391 5.628 5.628 0 1 1-7.458-6.391"/><defs><linearGradient id="i" x1="663.421" x2="685.083" y1="478.966" y2="457.311" gradientUnits="userSpaceOnUse"><stop offset="0" stop-color="#8e7163"/><stop offset="1" stop-color="#9f8672"/></linearGradient></defs><path fill="url(#i)" d="M648.492 444.317c21.612 4.238 40.127 18.122 57.101 31.356 3.972 3.214 6.769 6.442 9.883 10.463l3.428 5.086c-4.245 10.541-8.289 17.863-13.711 27.847-18.013-8.683-30.199-10.169-49.935-11.404 1.74-3.826 3.517-7.646 5.109-11.535 2.722-6.303 3.086-11.554 3.342-18.281.289-14.417-6.427-23.224-15.217-33.532"/><path fill="#775340" d="M705.593 475.673c3.972 3.214 6.769 6.442 9.883 10.463l3.428 5.086c-4.245 10.541-8.289 17.863-13.711 27.847-18.013-8.683-30.199-10.169-49.935-11.404 1.74-3.826 3.517-7.646 5.109-11.535 2.722-6.303 3.086-11.554 3.342-18.281 3.9 8.883 12.425 14.882 21.829 16.505 14.46 2.494 18.146-7.234 20.055-18.681"/><path fill="#544646" d="m715.476 486.136 3.428 5.086c-4.245 10.541-8.289 17.863-13.711 27.847-18.013-8.683-30.199-10.169-49.935-11.404 1.74-3.826 3.517-7.646 5.109-11.535 8.209 6.441 31.859 15.621 42.28 12.823 6.143-1.649 9.928-16.719 12.577-22.298z"/><path fill="#525c90" d="M665.462 456.988c4.57 2.787 7.942 6.716 12.242 9.585 6.194 4.133 25.253 6.266 14.466 17.125-4.75 1.66-11.81.123-15.822-2.683-8.277-5.792-17.605-13.556-10.886-24.027"/><path fill="#8e7364" d="M722.421 494.016c3.433 1.82 5.017 2.631 8.029 5.01 17.749 16.243 27.492 29.502 38.71 50.838 1.393 2.559 2.174 4.176 3.291 6.866l2.023 7.656c-8.241 3.259-15.354 7.366-22.857 12.015-2.024-3.127-4.104-6.218-5.834-9.516-8.12-11.954-17.176-22.71-26.539-33.656-3.442-2.822-9.158-8.833-12.502-12.166l3.33-3.633c4.646-6.747 8.775-15.901 12.349-23.414"/><path fill="#775340" d="M722.421 494.016c3.433 1.82 5.017 2.631 8.029 5.01-14.698 10.346-11.951 24.571-2.66 37.86 8.764 12.537 28.582 33.979 41.37 12.978 1.393 2.559 2.174 4.176 3.291 6.866l2.023 7.656c-8.241 3.259-15.354 7.366-22.857 12.015-2.024-3.127-4.104-6.218-5.834-9.516-8.12-11.954-17.176-22.71-26.539-33.656-3.442-2.822-9.158-8.833-12.502-12.166l3.33-3.633c4.646-6.747 8.775-15.901 12.349-23.414"/><path fill="#544646" d="M745.783 566.885c6.146-1.51 12.394-3.021 18.12-5.748 3.001-1.43 5.447-2.994 8.548-4.407l2.023 7.656c-8.241 3.259-15.354 7.366-22.857 12.015-2.024-3.127-4.104-6.218-5.834-9.516"/><path fill="#544646" d="m706.742 521.063 3.33-3.633.281.481c2.804 4.73 7.943 10.271 8.891 15.318-3.442-2.822-9.158-8.833-12.502-12.166"/><path fill="#525c90" d="M729.994 512.25c3.913.069 5.324.712 8.556 2.545 4.751 6.436 4.55 14.934 9.345 20.371 5.524 6.263 13.998 6.554 6.391 16.102-15.099.452-33.39-24.032-24.292-39.018"/><path fill="#775340" d="M205.634 599.493c2.917-4.448 2.854-5.179 2.7-10.556 17.577 22.382 21.071 42.263-.858 63.124 4.494-10.512 9.67-21.581 5.041-33.143a101 101 0 0 0-1.827-4.196c3.682 37.951-13.677 51.359-49.689 54.248q-6.838.5-13.693.497c-5.34-7.183-7.427-9.969-14.13-16.079 4.643-.353 9.787-.216 14.647-.432 20.08-.889 57.969-14.968 60.547-37.777 8.166-3.488 7.504-7.168 5.941-15.014-.785 3.467-1.499 7.006-2.683 10.352-2.546-3.336-4.193-7.225-5.996-11.024"/><defs><linearGradient id="j" x1="557.946" x2="592.286" y1="246.644" y2="319.794" gradientUnits="userSpaceOnUse"><stop offset="0" stop-color="#406b69"/><stop offset="1" stop-color="#638b86"/></linearGradient></defs><path fill="url(#j)" d="M529.385 259.636c8.606-1.445 35.26-2.331 43.595-.916 17.062 2.897 41.342 36.795 48.819 50.597-5.477-1.388-11.414-3.022-16.885-4.257-5.015-.452-8.437.392-8.884-5.151-.563-8.336-7.653-9.053-14.339-10.91-6.014-2.085-17.127-3.571-23.826-4.628-.563-1.668-.7-2.423-1.728-3.816-6.276-11.309-14.593-16.897-26.752-20.919"/><path fill="#32545d" d="M581.691 288.999c2.15-4.371 1.071-12.614 6.704-13.688 10.016-1.911 16.223 15.014 16.929 21.646-.095 1.604-.51 6.78-.41 8.103-5.015-.452-8.437.392-8.884-5.151-.563-8.336-7.653-9.053-14.339-10.91"/><path fill="#476e72" d="M596.03 299.909c3.826-.936 5.744-1.357 9.294-2.952-.095 1.604-.51 6.78-.41 8.103-5.015-.452-8.437.392-8.884-5.151"/><path fill="#525c90" d="M392.992 596.72c.835-16.7 28.61-13.431 38.685-8.775-1.278 3.669-2.452 6.645-3.979 10.22l-.856 3.162c-.06 11.013-.956 17.728 3.672 27.738-18.893 4.808-38.038 4.919-38.529-19.686-.094-5.025-.146-7.767 1.007-12.659"/><path fill="#383e63" d="M419.587 613.87c2.249-3.209 6.153-8.869 7.255-12.543-.06 11.013-.956 17.728 3.672 27.738-18.893 4.808-38.038 4.919-38.529-19.686.859 3.067 2.079 3.564 4.794 5.095q1.342.752 2.703 1.472c3.552-.055 3.793.068 7.115 1.054l.795.229.475.144c1.069-.512 9.672-2.855 11.72-3.503"/><path fill="#8490c4" d="M399.482 615.946c3.552-.055 3.793.068 7.115 1.054l.795.229.475.144c2.494 12.884-14.608 9.371-8.385-1.427"/><path fill="#383e63" d="M392.992 596.72c.835-16.7 28.61-13.431 38.685-8.775-1.278 3.669-2.452 6.645-3.979 10.22l-1.706-2.168c-2.688-4.406-4.268-3.61-8.654-2.239-5.947.762-7.762.893-13.569-.303a5.058 5.058 0 0 0-9.407 1.149z"/><path fill="#bbf2f8" d="M394.362 594.604a5.058 5.058 0 1 1 9.836 2.364 5.058 5.058 0 0 1-9.836-2.364"/><path fill="#bbf2f8" d="M417.338 593.758c4.386-1.371 5.966-2.167 8.654 2.239-1.066 3.489-2.079 6.046-6.081 6.174-4.042-2.052-3.322-4.57-2.573-8.413"/><path fill="#476e72" d="M459.887 282.585a43 43 0 0 1 9.023-8.05c11.625-7.746 34.602-11.29 48.82-11.702 5.931-.172 12.338 1.941 17.763 4.141 5.045 2.046 16.317 13.13 20.644 13.581 1.028 1.393 1.165 2.148 1.728 3.816-37.469-4.072-61.223-3.433-97.978-1.786"/><path fill="#544646" d="M336.003 527.073c4.038 1.196 8.75 2.991 12.779 4.408 3.75 1.367 8.128 2.836 11.78 4.308-3.77 4.041-8.105 8.986-11.432 12.93-2.949 3.496-11.898 17.46-14.933 18.872-12.102 5.629-22.628 8.561-34.144 16.348.639-3.624 1.385-7.017 2.798-10.439 4.133-12.391 12.578-16.916 22.932-24.045 3.084-9.968 4.783-13.72 10.22-22.382"/><path fill="#775340" d="M336.003 527.073c4.038 1.196 8.75 2.991 12.779 4.408-4.844 5.522-8.735 11.057-12.615 17.291-5.827 9.362-14.564 15.917-24.303 20.79-2.55 1.275-6.068 4.049-9.013 3.938 4.133-12.391 12.578-16.916 22.932-24.045 3.084-9.968 4.783-13.72 10.22-22.382"/><defs><linearGradient id="k" x1="645.298" x2="621.085" y1="1086.82" y2="1076.056" gradientUnits="userSpaceOnUse"><stop offset="0" stop-color="#b5c69d"/><stop offset="1" stop-color="#e0e9cd"/></linearGradient></defs><path fill="url(#k)" d="M616.9 1088.89c3.809-22.14 19.671-39.71 36.59-14.67 2.685 5.44 3.675 9.99 4.422 16.02-5.94 4.6-12.033 9.48-19.265 11.88-12.315 2.24-16.559-3.61-21.747-13.23"/><path fill="#a8c27d" d="M653.49 1074.22c2.685 5.44 3.675 9.99 4.422 16.02-5.94 4.6-12.033 9.48-19.265 11.88 1.813-7.27 5.171-15.25 8.149-22.2 1.774-4.14 2.714-4.29 6.694-5.7"/><path fill="#383e63" d="m794.885 725.582.562-2.48c3.262-2.936 7.865.037 10.269 2.734 9.337 17.683 1.702 40.622-3.455 58.699-1.103 3.867-3.027 10.666-6.316 13.011-1.766-.748-1.314-.762-2.534-2.832 1.796-7.494-5.916-26.205-9.832-33.537 3.318-6.532 5.616-10.954 7.877-17.989a76.7 76.7 0 0 0 3.429-17.606"/><path fill="#775340" d="m794.885 725.582.562-2.48c3.262-2.936 7.865.037 10.269 2.734 9.337 17.683 1.702 40.622-3.455 58.699-1.103 3.867-3.027 10.666-6.316 13.011-1.766-.748-1.314-.762-2.534-2.832 2.519-5.559 5.155-8.553 6.869-16.196 1.936-8.636 5.963-21.791 1.458-30.025-2.126-3.884-6.334-4.324-10.282-5.305a76.7 76.7 0 0 0 3.429-17.606"/><path fill="#2c2c2e" d="m794.885 725.582.562-2.48c3.262-2.936 7.865.037 10.269 2.734-2.29-.199-9.171-1.177-10.831-.254"/><path fill="#dbe1ba" d="M90.252 543.157c12.857-21.684 63.473-19.237 84.081-10.13l-.274 1.464c-2.42.45-2.568-.122-4.915-.304 2.737 3.018 5.015 3.216 7.47 6.157l1.329.851c1.043 2.352 3.861 6.993 4.298 8.285-17.222-12.572-31.448-12.969-51.706-13.589-18.28 2.596-37.747 4.87-40.952 27.014-.712 4.92-.323 6.309-3.873 10.231l-.827.86-.619-.725c-1.293-9.195.56-22.057 5.988-30.114"/><path fill="#c5a758" d="M92.029 547.174c10.875-10.656 22.264-13.942 37.181-14.572 2.721.174 12.237.565 14.489.997-2.671.237-10.429 1.639-13.164 2.292-18.28 2.596-37.747 4.87-40.952 27.014-.712 4.92-.323 6.309-3.873 10.231l-.827.86-.619-.725c-1.293-9.195.56-22.057 5.988-30.114 2.01 1.654 1.723 1.085 1.777 4.017"/><path fill="#dcc367" d="M90.252 543.157c2.01 1.654 1.723 1.085 1.777 4.017-4.965 9.564-3.835 13.74-6.127 23.997-.216.966-.238.858-.192 1.965l-.827.86-.619-.725c-1.293-9.195.56-22.057 5.988-30.114"/><path fill="#b19045" d="M143.699 533.599c13.027 1.562 20.229 2.734 32.915 6.745l1.329.851c1.043 2.352 3.861 6.993 4.298 8.285-17.222-12.572-31.448-12.969-51.706-13.589 2.735-.653 10.493-2.055 13.164-2.292"/><path fill="#dcc367" d="M129.21 532.602c12.147-2.019 28.008-1.771 39.934 1.585 2.737 3.018 5.015 3.216 7.47 6.157-12.686-4.011-19.888-5.183-32.915-6.745-2.252-.432-11.768-.823-14.489-.997"/><path fill="#c36545" d="M596.437 307.257c11.531 2.782 37.827 8.106 46.965 14.944 3.449 7.387 5.634 15.967 4.977 24.163-1.39 2.081-2.261 3.275-4.658 3.878-6.217-1.603-7.219-14.116-9.822-16.579-6.75-6.387-31.389-5.672-41.182-7.251l2.583-9.281c.405-3.154.947-6.745 1.137-9.874"/><path fill="#775340" d="m592.717 326.412 2.583-9.281c.419 1.397.556 2.679 2.068 3.378 10.778 4.984 27.538 1.286 37.273 8.637 5.535 4.179 8.64 12.47 13.738 17.218-1.39 2.081-2.261 3.275-4.658 3.878-6.217-1.603-7.219-14.116-9.822-16.579-6.75-6.387-31.389-5.672-41.182-7.251"/><path fill="#b6b5ad" d="M676.955 792.471c26.655 2.148 52.87 4.725 79.639 6.433.113 3.407.955 9.601-1.803 11.724-23.855-3.327-56.298-5.112-80.857-7.127.91-3.955 1.843-7.156 3.021-11.03"/><path fill="#dbe1ba" d="m689.798 1063.88 5.004-1.73c12.451 4.81 15.27 9.77 19.275 22.37-3.077 6.62-3.744 8-10.435 10.72-10.234-.39-17.607-3.31-27.05-6.78 1.255-11.12 3.579-18.01 13.206-24.58"/><path fill="#a8c27d" d="m689.798 1063.88 5.004-1.73c12.451 4.81 15.27 9.77 19.275 22.37-3.077 6.62-3.744 8-10.435 10.72.121-2.16-.046-3.44-.251-5.56-.853-9.33-2.075-20.96-12.373-24.26z"/><path fill="#a1c4ad" d="m689.798 1063.88 1.22 1.54c-5.818 5.56-11.491 12.59-3.887 20.25 3.686 3.71 10.378 5.97 15.581 4.85l.679-.84c.205 2.12.372 3.4.251 5.56-10.234-.39-17.607-3.31-27.05-6.78 1.255-11.12 3.579-18.01 13.206-24.58"/><path fill="#a8c27d" d="M711.83 759.705c4.505-8.658 9.706-10.166 18.688-8.656 7.06 2.419 10.57 5.022 13.926 11.872l.555 1.138c-3.777 9.177-12.708 23.896-24.786 19.35-7.071-2.662-9.77-17.275-8.383-23.704"/><path fill="#dbe1ba" d="M711.83 759.705c4.505-8.658 9.706-10.166 18.688-8.656-.571 11.717-.565 19.652-10.747 27.069-4.799-5.573-7.47-10.949-7.941-18.413"/><path fill="#dbe1ba" d="M119.677 657.939c3.153-4.568 6.449-4.687 11.061-1.31 7.291 5.34 15.713 16.971 16.082 26.284-6.938 10.687-19.504 15.785-26.769 2.063-4.299-8.12-2.979-18.654-.374-27.037"/><path fill="#a8c27d" d="M146.82 682.913c-6.938 10.687-19.504 15.785-26.769 2.063-4.299-8.12-2.979-18.654-.374-27.037l.345.574c8.934 15.213 2.414 24.77 26.798 24.4"/><path fill="#a8c27d" d="M677.269 774.443c-6.644-10.16-9.393-33.732 10.192-30.089 8.034 4.56 10.929 7.234 13.451 16.362q.376 1.362.7 2.739c-4.53 7.657-16.046 24.087-24.343 10.988"/><path fill="#dbe1ba" d="M677.269 774.443c-6.644-10.16-9.393-33.732 10.192-30.089 1.751 8.307 2.238 15.254-2.67 22.794a23.86 23.86 0 0 1-7.522 7.295"/><path fill="#a8c27d" d="M82.324 649.174c.958-.917 2.157-2.384 3.668-2.129 11.932 2.012 25.459 19.106 20.207 31.182l-.336.307c-4.483 4.025-5.199 4.665-11.067 6.275-16.971-4.482-14.53-21.921-12.472-35.635"/><path fill="#dbe1ba" d="M82.324 649.174c.958-.917 2.157-2.384 3.668-2.129 11.932 2.012 25.459 19.106 20.207 31.182-19.608-5.173-14.073-22.062-23.875-29.053"/><path fill="#a8c27d" d="M278.558 1064.55c3.249-10.03 15.484-40.19 28.504-21.66 2.865 9.49 2.908 13.58 2.327 23.34-6.598 1.06-22.922 4.48-28.891 1.34-1.243-.65-1.43-1.75-1.94-3.02"/><path fill="#dbe1ba" d="M278.558 1064.55c3.249-10.03 15.484-40.19 28.504-21.66-7.317 8.68-16.153 20.77-28.504 21.66"/><path fill="#dbe1ba" d="M575.898 1088.56c-.209-.29-.585-1.19-.751-1.55.365-5.9 2.858-12.9 6.427-17.6 6.201-8.16 12.021-8.46 19.685-2.69 4.005 7.38 3.864 10.43 3.722 19.05-9.02 2.41-20.15 6.24-29.083 2.79"/><path fill="#a8c27d" d="M601.259 1066.72c4.005 7.38 3.864 10.43 3.722 19.05-9.02 2.41-20.15 6.24-29.083 2.79 8.332-1.11 19.188-15.45 25.361-21.84"/><path fill="#a8c27d" d="M323.071 1070.53c2.738-10.61 13.392-34 26.636-20.11 3.608 7.87 3.875 10.99 3.861 19.72-8.211 1.75-23.456 5.57-30.497.39"/><path fill="#dbe1ba" d="M323.071 1070.53c2.738-10.61 13.392-34 26.636-20.11-6.114 7.31-16.671 19.93-26.636 20.11"/><path fill="#b6b5ad" d="M815.637 1001.09c5.07 2.4 21.915 11.61 26.233 14.74l-.101.71-2.456 1.67c-8.836-.28-24.959 4.63-30.742 11.84-4.984 3.15-7.439 5.7-13.326 8.93 6.975-12.37 13.642-25.34 20.392-37.89"/><path fill="#c5a758" d="M174.333 533.027c6.011 2.878 8.299 4.031 13.227 8.5 5.474 5.3 7.16 8.15 9.848 15.342 1.677 8.029 4.4 22.23 2.122 29.96.117 1.46-.962 5.345-1.348 6.972-2.007-1.554-3.909-3.421-5.774-5.159-.466-14.999-.096-22.481-7.736-35.751-1.263-1.397-1.469-1.768-2.431-3.411-.437-1.292-3.255-5.933-4.298-8.285l-1.329-.851c-2.455-2.941-4.733-3.139-7.47-6.157 2.347.182 2.495.754 4.915.304z"/><path fill="#b19045" d="M184.672 552.891c1.312 1.15 3.727 3.425 5.203 4.155 1.678 3.079 4.323 8.739 5.83 11.257.52 5.535 1.44 15.025 2.577 20.222l.357-1.558.891-.138c.117 1.46-.962 5.345-1.348 6.972-2.007-1.554-3.909-3.421-5.774-5.159-.466-14.999-.096-22.481-7.736-35.751"/><path fill="#f4dc81" d="M174.333 533.027c6.011 2.878 8.299 4.031 13.227 8.5-.59 1.642-1.358 3.486-1.584 5.189l-.696-.118c-2.59-2.535-4.243-3.462-7.337-5.403l-1.329-.851c-2.455-2.941-4.733-3.139-7.47-6.157 2.347.182 2.495.754 4.915.304z"/><path fill="#dbe1ba" d="M187.56 541.527c5.474 5.3 7.16 8.15 9.848 15.342l-2.534 2.178c-2.96-4.949-4.886-8.172-8.898-12.331.226-1.703.994-3.547 1.584-5.189"/><path fill="#c5a758" d="M177.943 541.195c3.094 1.941 4.747 2.868 7.337 5.403.603 3.306 3.028 7.207 4.595 10.448-1.476-.73-3.891-3.005-5.203-4.155-1.263-1.397-1.469-1.768-2.431-3.411-.437-1.292-3.255-5.933-4.298-8.285"/><path fill="#b6b5ad" d="M766.933 800.378c17.137.262 36.715 2.678 54.202 3.693l-8.821 2.857c-4.833 2.21-8.446 4.616-12.905 7.453-9.679-1.283-22.824-2.213-32.648-2.874z"/><path fill="#a8c27d" d="M256.087 1056.99c1.836-7.05 7.253-15.13 12.511-20.11 4.515-4.28 10.438-7.18 11.783 1.4-1.212 6.83-2.589 13.6-4.557 20.26-4.683.49-15.662 1.29-19.617-.9z"/><path fill="#dbe1ba" d="M256.087 1056.99c1.836-7.05 7.253-15.13 12.511-20.11 4.515-4.28 10.438-7.18 11.783 1.4-8.393 4.69-14.147 12.23-21.692 18.01-.688.53-1.735.71-2.602.7"/><path fill="#a8c27d" d="M58.055 649.307c.068-2.395-.269-1.631.949-3.462 5.075-3.095 14.547 2.163 18.745 5.333-.246 1.687-.475 3.55-.778 5.21.131 8.141.293 11.964 2.32 20.072-11.428-7.123-17.627-14.341-21.236-27.153"/><path fill="#dbe1ba" d="M58.055 649.307c.068-2.395-.269-1.631.949-3.462 5.075-3.095 14.547 2.163 18.745 5.333-.246 1.687-.475 3.55-.778 5.21-.39 2.124-.633 3.978-.893 6.105z"/><path fill="#8ecbdc" d="M286.645 303.139c6.806-.892 21.765-.915 28.562.165-3.04.961-5.052.764-8.13.015-2.133 1.104-3.949 6.33-3.28 8.543 1.061.203 1.66-.011 2.732-.211l.959.511c-5.076 1.118-6.962 2.256-11.197 5.309-5.009-.693-13.917.209-19.327.592 3.103-6.704 4.99-9.341 9.681-14.924"/><path fill="#544646" d="M776.127 770.46c.928 2.16 1.902 5.075 2.725 7.345 1.262 4.076 4.045 14.896 2.744 18.849-1.711.508-3.744.042-5.567-.195-2.818.065-5.635-.336-8.441-.649-.862-6.134-1.97-11.928-3.13-18.014 4.19-2.41 7.661-4.675 11.669-7.336"/><path fill="#775340" d="M778.852 777.805c1.262 4.076 4.045 14.896 2.744 18.849-1.711.508-3.744.042-5.567-.195.009-5.876-.679-13.921 2.823-18.654"/><path fill="#544646" d="M708.321 774.979c1.041 1.059 1.732 2.939 2.499 4.31 3.469 6.194 4.821 7.225 10.75 10.494 9.827-1.832 13.404-4.359 20.422-11.303q6.17 1.295 12.297 2.781a36 36 0 0 1-2.357 1.991c-15.218 11.754-26.441 9.714-44.406 7.556.046-5.849.24-10.011.795-15.829"/><path fill="#6a7e4f" d="M366.692 543.346c2.449 2.281 1.039 9.044 2.119 12.694 1.452 4.911 4.344 8.431 7.259 12.603-4.379-2.382-8.014-3.96-12.566-5.931-4.337-1.59-9.18-2.063-13.759-2.636 5.5-6.995 10.27-10.867 16.947-16.73"/><path fill="#2c83b7" d="M757.505 778.734c5.557.612 5.813 9.35 6.134 13.881.893 12.613.219 25.182-2.562 37.524-.66.664-.563.464-1.566.813l-1.115-.84c-1.074-3.343.653-17.203.9-22.254.552-11.291-.885-18.297-1.791-29.124"/><path fill="#2c83b7" d="M780.36 764.633c5.485 2.118 12.011 28.648 8.955 33.649-.975-.297-1.99-.666-2.96-.998-2.488-2.923-1.745-11.245-2.742-14.887-1.125-4.111-3.931-8.5-4.885-12.749-.565-2.512.275-2.99 1.632-5.015"/><path fill="#c5a758" d="M128.084 502.228a6.897 6.897 0 1 1 11.189 8.068 6.897 6.897 0 0 1-11.189-8.068"/><path fill="#dbe1ba" d="M128.084 502.228a6.9 6.9 0 0 1 7.402-2.622c1.499 4.849-.348 10.196-5.854 7.78-1.618-1.889-1.499-2.575-1.548-5.158"/><path fill="#dcc367" d="M146.081 501.029a6.77 6.77 0 0 1 11.362 4.251 6.77 6.77 0 1 1-13.508.674 6.77 6.77 0 0 1 2.146-4.925"/><path fill="#dbe1ba" d="M146.081 501.029a6.77 6.77 0 0 1 6.315-1.612c.365 2.016.804 2.974-.07 4.681-1.645 1.469-2.245 1.558-4.361 2.379l.524 1.57c-.814 1.143-2.003 1.846-2.439 2.845a6.774 6.774 0 0 1 .031-9.863"/><path fill="#c5a758" d="M146.05 510.892a6.774 6.774 0 0 1 .031-9.863c-.174 2.794-.527 3.636 1.884 5.448l.524 1.57c-.814 1.143-2.003 1.846-2.439 2.845"/><path fill="#c5a758" d="M182.902 533.709c3.706.742 8.657 4.028 11.242 6.75 10.913 11.491 10.708 27.377 10.457 42.009l-.931-.743c-1.718-3.641-1.24-12.242-1.754-16.749-1.693-14.835-8.287-22.232-19.014-31.267"/><path fill="#544646" d="M696.268 777.379c1.148 1.463.17 10.102.009 12.459-5.155-.173-10.041-.727-15.136-1.443l-1.484-.349-.296-.876c2.107-4.38 8.163-3.871 12.381-6.227 1.616-.903 3.147-2.331 4.526-3.564"/><path fill="#2c83b7" d="M703.351 769.007c.721.319 1.186.66 1.857 1.082.889 3.182-.455 18.542-2.237 20.922-7.832-2.194-1.702-17.162.38-22.004"/><path fill="#2c83b7" d="M671.084 801.464c-1.123 4.116-.95 18.947-4.181 20.963-3.633-4.006-.631-16.91.267-21.929 1.473.436 2.402.731 3.914.966"/><path fill="#2c83b7" d="M667.17 800.498c1.76-6.719 3.119-13.69 7.607-19.005l.994-.401c1.507 3.329-3.686 16.113-4.687 20.372-1.512-.235-2.441-.53-3.914-.966"/><path fill="#775340" d="M194.514 596.804c3.193.876 5.454 1.884 8.509 3.181l5.282 11.247c-6.669-1.627-11.618-8.255-13.791-14.428"/><path fill="#b6b5ad" d="m663.626 796.693.603.927c-.168 2.704.275 2.455-1.073 4.257-4.027 1.594-12.437.054-17.02-.47l-1.406-.186.126-.546c3.48-1.287 14.568-3.168 18.77-3.982"/><path fill="#c5a758" d="M146.807 514.3c5.633 1.58 2.602 2.877 5.014 6.201 3.58 4.934 8.285-1.299 12.016 5.13-10.496 1.024-16.477.272-17.03-11.331"/><path fill="#544646" d="M754.657 786.865c1.208 1.16 2.001 3.678 2.209 5.363-1.67 3.809-6.604 2.357-10.052 1.908-.298-.006-1.214-.232-1.547-.305l.167-.955c2.394-2.282 6.284-4.31 9.223-6.011"/><path fill="#c5a758" d="M134.825 515.366c1.117.39 1.057.464 1.889 1.339.583 2.229-.204 3.988-.849 6.276-4.009.72-9.016 1.253-13.121 1.806-.669-.04-1.122-.22-1.783-.4l.161-.697c1.986-.977 7.754-1.828 10.629-2.57 1.248-1.863 2.091-3.744 3.074-5.754"/><path fill="#b6b5ad" d="M753.254 829.479c2.293 1.722 1.849 4.188 5.523 5.346 2.816-.366 3.412-2.03 5.911-3.214l.762.545.275 1.938c-5.667 6.643-12.891 4.671-12.471-4.615"/><path fill="#f8f8f9" d="M142.129 511.692c2.831 2.98 3.749 8.483.919 11.731-6.47-1.922-3.775-7.693-.919-11.731"/><path fill="#b6b5ad" d="M660.923 822.132c2.01.933 1.934 3.041 5.044 4.635 2.337.115 3.424-1.148 5.679-2.505l.83.351.355 1.678c-5.952 6.21-11.308 4.645-11.908-4.159"/></svg>