<?xml version="1.0" encoding="UTF-8" standalone="no"?>
<svg
   width="256"
   height="256"
   viewBox="0 0 256 256"
   version="1.1"
   id="svg424"
   sodipodi:docname="bunbrush.svg"
   inkscape:version="1.1.2 (0a00cf5339, 2022-02-04)"
   xmlns:inkscape="http://www.inkscape.org/namespaces/inkscape"
   xmlns:sodipodi="http://sodipodi.sourceforge.net/DTD/sodipodi-0.dtd"
   xmlns="http://www.w3.org/2000/svg"
   xmlns:svg="http://www.w3.org/2000/svg">
  <sodipodi:namedview
     id="namedview426"
     pagecolor="#ffffff"
     bordercolor="#666666"
     borderopacity="1.0"
     inkscape:pageshadow="2"
     inkscape:pageopacity="0.0"
     inkscape:pagecheckerboard="0"
     showgrid="false"
     inkscape:zoom="3.0546875"
     inkscape:cx="128"
     inkscape:cy="128"
     inkscape:window-width="1920"
     inkscape:window-height="935"
     inkscape:window-x="0"
     inkscape:window-y="0"
     inkscape:window-maximized="1"
     inkscape:current-layer="svg424" />
  <path
     fill="#0F0D0D"
     transform="scale(0.25 0.25)"
     d="M627.252 48.1216C632.801 47.8753 636.312 48.2291 641.18 51.5122C654.122 60.2414 660.689 84.472 663.059 99.327C670.957 148.826 659.211 200.257 633.304 242.912C627.577 252.341 621.632 260.426 615.338 269.364C626.295 297.31 628.984 304.091 628.44 335.08C640.554 354.744 641.463 381.074 633.559 402.815C630.932 410.043 626.053 414.891 620.181 419.669C621.225 422.799 623.635 428.782 621.541 431.493C619.842 431.887 619.54 431.877 617.967 432.703C617.078 434.275 617.057 437.255 616.897 439.184C625.302 435.88 632.953 435.648 641.74 434.528C646.079 433.975 650.258 432.788 654.662 432.563C655.95 433.471 656.648 435.007 656.427 436.6C654.664 449.294 649.37 459.094 640.107 467.821C644.404 470.586 665.871 485.025 667.312 488.11C667.301 488.904 667.251 489.769 666.689 490.4C653.892 504.764 628.935 508.996 611.594 501.278C607.385 499.405 603.6 496.57 600.055 493.925C607.308 507.296 612.773 517.976 614.904 533.492C615.836 538.79 614.993 545.964 616.637 551.025C622.123 567.916 626.849 583.782 630.668 601.137C634.198 597.927 646.079 587.49 651.024 589.752C651.801 590.575 652.156 591.031 652.268 592.189C652.605 595.691 654.21 595.589 656.785 597.881C662.191 602.691 662.749 609.301 663.097 616.066C704.368 619.54 739.957 641.424 745.958 684.935C791.402 678.543 874.974 694.403 864.874 756.061C878.231 760.557 891.726 766.432 902.334 775.853C922.337 793.617 926.588 825.809 907.424 845.845C889.718 864.356 866.163 867.21 842.019 868.257C842.019 876.702 841.663 884.158 839.019 892.25C831.554 915.098 808.934 930.36 786.917 937.018C756.872 946.102 724.687 946.684 694.223 939.479C685.702 937.464 678.432 934.844 670.204 932.059C668.257 934.052 666.289 936.024 664.3 937.974C596.001 1004.51 443.728 1003.85 377.106 935.42C369.711 939.03 362.719 942.272 355.02 945.165C308.637 959.255 244.23 955.083 207.874 918.88C195.396 906.454 192.644 893.399 193.133 876.345C171.741 874.466 152.881 870.851 135.009 857.976C108.472 838.859 112.011 804.157 130.238 780.508C142.723 764.308 157.162 758.115 177.076 755.659C175.957 707.792 208.86 682.065 255.161 684.516C257.785 662.289 268.114 644.544 286.498 631.684C301.2 621.401 320.806 613.82 338.838 613.331C338.943 605.537 339.205 597.747 339.624 589.964C340.742 572.235 340.965 563.432 354.549 551.468C349.442 536.761 354.361 519.303 367.942 511.946C379.923 505.456 387.512 503.063 398.31 493.099C395.405 485.168 396.321 481.556 401.658 475.104C401.39 471.194 401.388 469.079 401.582 465.159C402.711 463.378 404.112 461.471 405.333 459.726C394.207 452.286 383.629 443.591 378.909 431.177C378.062 428.951 377.361 428.492 375.132 427.745L374.292 427.467C370.376 423.36 374.15 413.353 373.488 408.398C373.457 408.166 371.177 406.763 371.094 405.931C370.462 399.544 380.322 390.139 383.661 384.868C385.716 381.625 386.229 380.702 387.66 377.7C386.654 376.619 385.693 375.497 384.779 374.337C370.104 355.742 374.665 339.441 379.868 318.8C385.444 296.679 388.511 290.25 406.188 276.216C408.826 267.262 414.744 260.016 420.392 252.717C403.497 222.924 396.28 196.578 392.265 162.569C381.376 166.953 370.309 169.784 358.492 169.745C349.075 169.714 338.491 166.96 331.773 159.974C328.417 156.483 326.567 152.036 326.81 147.171C327.231 138.722 333.014 132.159 339.082 126.881C356.837 111.439 417.669 80.3966 440.679 82.0861C448.317 82.6469 453.996 85.5938 458.907 91.4337C463.366 96.737 466.282 103.104 468.739 109.527C480.861 141.205 478.687 176.801 475.773 209.896C478.531 208.635 481.342 207.494 484.199 206.477C515.731 194.939 529.737 203.755 557.947 216.798C555.941 170.385 563.986 114.691 591.214 75.6123C599.405 63.8559 612.408 50.505 627.252 48.1216Z"
     id="path4" />
  <path
     fill="white"
     transform="scale(0.25 0.25)"
     d="M257.515 687.375C260.406 673.123 262.314 663.036 271.5 650.829C286.035 631.513 309.003 620.483 332.506 616.562C334.73 616.191 336.839 616.093 338.605 617.456C338.786 618.548 338.982 621.161 337.374 621.264C332.201 621.556 324.783 621.491 320.538 624.874C295.518 644.808 320.232 684.556 333.913 702.901C340.469 710.806 350.134 721.849 360.925 723.799C373.921 726.147 378.073 718.736 386.854 713.103C402.061 703.757 419.211 695.22 437.046 692.874C439.543 693.076 442.794 693.924 445.211 694.449C458.131 697.256 471.241 698.922 484.196 701.518C491.604 720.973 506.218 756.012 535.202 741.051C541.81 737.64 548.188 731.755 554.966 727.804C571.186 718.348 589.186 712.021 603.998 700.403C612.024 694.032 616.911 687.285 622.385 678.924C633.731 677.407 639.712 675.441 648.196 668.001L648.294 667.615C649.487 663.2 650.011 662.704 653.53 659.612C658.874 654.917 662.051 651.016 665.099 644.613C666.764 638.955 668.045 632.356 665.902 626.374C665.266 624.597 662.871 624.084 662.423 621.569C663.035 619.874 662.516 620.392 663.687 619.4C667.123 619.04 670.755 619.753 674.119 620.329C699.224 624.63 723.585 638.934 735.811 661.85C740.486 670.611 741.758 678.46 743.862 687.96C780.235 685.609 816.627 686.475 846.431 711.394C863.242 725.449 863.024 737.7 862.063 758.089C878.007 764.626 898.891 772.434 908.384 787.886C923.527 811.013 918.129 837.41 894.687 852.399C876.185 864.228 859.472 863.671 838.962 865.552C838.957 884.621 836.201 900.024 821.748 913.45C787.346 945.41 727.48 946.965 684.628 933.525C679.494 931.914 673.982 929.761 669.093 928.53C646.939 955.223 605.236 972.882 571.993 979.67C509.281 992.478 422.966 980.418 377.543 931.634C370.01 935.299 362.592 938.93 354.652 941.666C320.695 953.105 283.898 952.932 250.05 941.172C230.848 934.464 210.016 922.133 200.565 903.185C195.417 892.866 195.894 885.002 196.538 873.911C185.934 872.683 175.752 871.666 165.429 868.754C139.339 861.393 115.543 845.255 119.302 815.1C119.774 811.332 120.535 807.606 121.578 803.955C132.631 773.732 149.353 763.05 179.97 758.249L179.966 756.979C179.956 736.623 183.395 720.422 198.442 705.713C215.368 689.167 235.306 687.347 257.515 687.375Z"
     id="path6" />
  <path
     fill="#EBE0D1"
     transform="scale(0.25 0.25)"
     d="M908.384 787.886C923.527 811.013 918.129 837.41 894.687 852.399C876.185 864.228 859.472 863.671 838.962 865.552C838.957 884.621 836.201 900.024 821.748 913.45C787.346 945.41 727.48 946.965 684.628 933.525C679.494 931.914 673.982 929.761 669.093 928.53C646.939 955.223 605.236 972.882 571.993 979.67C509.281 992.478 422.966 980.418 377.543 931.634C370.01 935.299 362.592 938.93 354.652 941.666C320.695 953.105 283.898 952.932 250.05 941.172C230.848 934.464 210.016 922.133 200.565 903.185C195.417 892.866 195.894 885.002 196.538 873.911C185.934 872.683 175.752 871.666 165.429 868.754C139.339 861.393 115.543 845.255 119.302 815.1C119.774 811.332 120.535 807.606 121.578 803.955C135.801 832.495 158.242 841.172 188.654 840.518C194.527 840.392 214.226 836.838 217.732 838.38C219.285 843.678 217.821 850.52 217.863 855.904C218.389 922.191 319.693 921.839 358.842 892.814C360.752 891.398 363.023 890.411 364.578 888.626C377.547 892.661 387.362 892.546 400.512 888.923C421.849 916.444 451.773 927.88 485.443 932.187C529.362 937.807 584.421 931.151 620.36 903.357C624.326 900.289 633.357 892.265 636.838 888.746C654.769 895.474 671.377 894.431 687.942 884.62C689.934 886.048 691.841 886.985 694.169 887.845C725.625 899.472 760.707 902.774 792.249 889.574C813.177 880.816 825.518 864.992 823.635 841.964C823.354 838.533 821.513 832.055 822.669 829.165C823.522 828.468 824.604 828.087 825.709 828.151C854.609 829.824 888.813 825.044 903.439 796.494C904.946 793.552 906.487 790.619 908.384 787.886Z"
     id="path8" />
  <path
     fill="#EBE0D1"
     transform="scale(0.25 0.25)"
     d="M665.099 644.613C672.359 648.41 680.886 651.325 683.239 660.068C687.675 676.556 665.076 686.016 654.565 691.032C656.109 695.622 657.586 700.534 655.136 705.121C646.351 721.571 579.906 739.892 560.447 745.105C536.505 751.519 512.554 754.012 488.616 745.958C479.561 742.911 470.899 738.52 461.994 735.044C448.46 729.76 433.535 727.842 419.063 727.593C411.193 727.457 403.08 727.766 395.273 728.718C377.549 730.88 358.214 736.487 341.576 726.973C337.346 724.555 333.191 721.065 331.846 716.212C330.573 711.617 331.817 707.026 333.913 702.901C340.469 710.806 350.134 721.849 360.925 723.799C373.921 726.147 378.073 718.736 386.854 713.103C402.061 703.757 419.211 695.22 437.046 692.874C439.543 693.076 442.794 693.924 445.211 694.449C458.131 697.256 471.241 698.922 484.196 701.518C491.604 720.973 506.218 756.012 535.202 741.051C541.81 737.64 548.188 731.755 554.966 727.804C571.186 718.348 589.186 712.021 603.998 700.403C612.024 694.032 616.911 687.285 622.385 678.924C633.731 677.407 639.712 675.441 648.196 668.001L648.294 667.615C649.487 663.2 650.011 662.704 653.53 659.612C658.874 654.917 662.051 651.016 665.099 644.613Z"
     id="path10" />
  <path
     fill="#EBE0D1"
     transform="scale(0.25 0.25)"
     d="M344.09 873.146C344.456 872.314 344.265 872.235 344.971 871.95C347.655 870.87 363.789 878.503 367.812 879.589C372.832 880.949 378.03 881.531 383.227 881.314C394.551 880.907 402.201 877.624 412.439 873.446C414.832 872.47 417.134 871.503 419.632 872.326C420.596 873.691 420.354 872.934 420.243 874.713C416.485 881.367 407.477 886.385 400.512 888.923C387.362 892.546 377.547 892.661 364.578 888.626C356.663 885.572 348.149 880.952 344.09 873.146Z"
     id="path12" />
  <defs
     id="defs19">
    <linearGradient
       id="gradient_0"
       gradientUnits="userSpaceOnUse"
       x1="382.0191"
       y1="890.64349"
       x2="382.53677"
       y2="874.3421">
      <stop
         offset="0"
         stop-color="#100E0D"
         id="stop14" />
      <stop
         offset="1"
         stop-color="#393636"
         id="stop16" />
    </linearGradient>
  </defs>
  <path
     fill="url(#gradient_0)"
     transform="scale(0.25 0.25)"
     d="M344.09 873.146C346.886 874.093 352.845 880.004 355.939 881.971C369.294 890.462 387.686 891.85 402.214 885.705C405.189 884.427 408.047 882.892 410.756 881.118C412.67 879.842 418.659 875.154 420.243 874.713C416.485 881.367 407.477 886.385 400.512 888.923C387.362 892.546 377.547 892.661 364.578 888.626C356.663 885.572 348.149 880.952 344.09 873.146Z"
     id="path21" />
  <path
     fill="#EBE0D1"
     transform="scale(0.25 0.25)"
     d="M620.685 876.735L620.69 875.724C623.464 873.434 632.349 879.049 636.585 880.305C640.908 881.559 645.357 882.333 649.85 882.611C660.235 883.256 671.226 881.516 680.878 877.303C684.615 875.672 689.151 872.217 693.311 871.506C695.398 871.149 696.347 871.957 697.753 873.174C695.931 878.119 691.984 881.425 687.942 884.62C671.377 894.431 654.769 895.474 636.838 888.746C630.967 886.266 624.252 882.149 620.685 876.735Z"
     id="path23" />
  <path
     fill="#222124"
     transform="scale(0.25 0.25)"
     d="M697.753 873.174C695.931 878.119 691.984 881.425 687.942 884.62C671.377 894.431 654.769 895.474 636.838 888.746C630.967 886.266 624.252 882.149 620.685 876.735C623.499 877.172 628.535 882.299 631.443 883.741C656.95 896.391 677.965 892.574 697.753 873.174Z"
     id="path25" />
  <defs
     id="defs32">
    <linearGradient
       id="gradient_1"
       gradientUnits="userSpaceOnUse"
       x1="672.25195"
       y1="756.53992"
       x2="671.20721"
       y2="772.58765">
      <stop
         offset="0"
         stop-color="#010102"
         id="stop27" />
      <stop
         offset="1"
         stop-color="#272525"
         id="stop29" />
    </linearGradient>
  </defs>
  <path
     fill="url(#gradient_1)"
     transform="scale(0.25 0.25)"
     d="M678.494 756.676C691.284 755.818 698.512 759.634 706.004 769.432C686.886 753.446 670.173 755.757 653.612 773.577C653.502 769.536 660.153 763.689 663.067 761.131C651.256 757.05 645.998 762.428 637.715 769.714C645.228 759.201 652.991 754.126 665.987 759.98C670.782 758.059 673.399 757.269 678.494 756.676Z"
     id="path34" />
  <path
     fill="#222124"
     transform="scale(0.25 0.25)"
     d="M321.827 744.253C334.439 728.673 353.523 731.435 365.527 746.204C350.179 736.341 339.309 729.759 323.915 745.647C323.199 744.667 323.12 744.882 321.827 744.253Z"
     id="path36" />
  <path
     fill="#0F0D0D"
     transform="scale(0.25 0.25)"
     d="M288.225 755.987C296.643 745.338 303.216 742.844 316.597 744.407C318.13 744.586 320.41 744.827 321.827 744.253C323.12 744.882 323.199 744.667 323.915 745.647C329.516 749.209 331.655 751.16 335.382 756.465C329.036 751.144 323.744 747.248 315.278 746.174C303.093 744.628 297.101 749.183 288.225 755.987Z"
     id="path38" />
  <path
     fill="white"
     transform="scale(0.25 0.25)"
     d="M397.192 337.56C397.787 331.263 399.877 326.223 405.119 322.259C427.84 305.075 463.656 303.877 490.917 306.584C522.185 309.689 556.681 319.578 577.391 344.353C587.018 355.87 588.697 372.193 595.705 385.736C601.6 397.126 609.181 401.851 614.559 412.426C616.44 416.124 619.713 425.06 619.448 429.183C618.146 429.401 615.269 427.481 613.768 426.683C614.243 430.344 615.345 436.342 614.266 439.65L612.64 440.302C611.983 443.077 611.083 448.711 608.948 450.455C606.619 450.24 606.803 448.531 606.236 446.32C604.548 449.136 601.44 456.235 598.712 457.009C596.819 457.546 595.697 456.849 593.298 458.608C560.691 482.519 507.885 487.867 468.794 481.944C441.725 477.843 403.154 461.079 386.278 438.318C385.351 437.067 384.134 435.01 383.617 433.556C382.123 431.744 380.125 424.02 378.561 420.596C377.553 421.651 376.398 423.101 375.436 424.245C375.151 415.006 376.109 412.456 378.741 403.545L373.896 404.406C378.225 394.758 384.732 390.249 387.733 384.147C393.053 373.331 394.893 350.353 397.192 337.56Z"
     id="path40" />
  <path
     fill="#D3D9E1"
     transform="scale(0.25 0.25)"
     d="M397.192 337.56C397.787 331.263 399.877 326.223 405.119 322.259C427.84 305.075 463.656 303.877 490.917 306.584C522.185 309.689 556.681 319.578 577.391 344.353C587.018 355.87 588.697 372.193 595.705 385.736C601.6 397.126 609.181 401.851 614.559 412.426C616.44 416.124 619.713 425.06 619.448 429.183C618.146 429.401 615.269 427.481 613.768 426.683C614.243 430.344 615.345 436.342 614.266 439.65L612.64 440.302C611.983 443.077 611.083 448.711 608.948 450.455C606.619 450.24 606.803 448.531 606.236 446.32C604.548 449.136 601.44 456.235 598.712 457.009C596.819 457.546 595.697 456.849 593.298 458.608C560.691 482.519 507.885 487.867 468.794 481.944C441.725 477.843 403.154 461.079 386.278 438.318C385.351 437.067 384.134 435.01 383.617 433.556C384.942 434.087 395.298 444.011 398.378 446.275C421.394 463.203 448.785 473.168 477.298 474.987C519.18 477.478 583.411 463.234 596.034 411.508C597.452 405.696 588.389 394.797 587.011 389.662C581.51 369.152 575.366 347.162 555.91 335.377C516.863 311.901 430.909 302.812 397.192 337.56Z"
     id="path42" />
  <path
     fill="#0F0D0D"
     transform="scale(0.25 0.25)"
     d="M499.649 388.619C497.058 374.245 496.636 359.25 505.566 346.999C521.675 324.899 543.674 333.857 554.184 354.658L561.11 353.177C560.332 355.221 557.625 362.26 557.298 364.011C554.845 377.142 554.595 382.383 548.712 394.546C549.655 395.558 549.645 395.489 550.769 396.33L550.578 397.003C547.326 398.187 541.777 397.9 538.161 398.249C529.554 399.078 521.689 402.132 514 405.92C517.352 402.895 519.42 401.274 523.285 398.86L522.757 397.861C519.723 396.06 517.179 393.539 515.351 390.521C509.551 381.027 510.942 368.786 513.263 358.516C511.648 359.586 510.065 360.665 508.39 361.639C506.276 363.549 504.181 365.481 502.108 367.436C499.889 375.19 500.124 380.603 499.649 388.619Z"
     id="path44" />
  <path
     fill="#3C5989"
     transform="scale(0.25 0.25)"
     d="M522.586 350.166C525.135 345.075 532.761 343.682 536.907 346.796C549.033 355.904 549.213 372.896 547.92 385.858C547.399 382.914 545.895 381.731 543.905 379.569C541.33 382.456 539.478 384.78 535.981 386.646C526.645 391.627 524.265 381.936 521.405 375.472C518.413 373.195 515.604 378.074 513.803 380.331C513.116 376.724 512.874 373.046 513.084 369.38C513.34 364.499 514.199 360.369 517.9 357.054C519.685 353.552 520.103 353.008 522.586 350.166Z"
     id="path46" />
  <path
     fill="white"
     transform="scale(0.25 0.25)"
     d="M522.586 350.166C528.196 351.481 531.447 353.761 530.108 360.12C529.366 363.648 525.044 368.286 521.208 366.577C517.63 364.983 517.946 360.198 517.9 357.054C519.685 353.552 520.103 353.008 522.586 350.166Z"
     id="path48" />
  <path
     fill="#64D3E6"
     transform="scale(0.25 0.25)"
     d="M513.803 380.331C515.604 378.074 518.413 373.195 521.405 375.472C524.265 381.936 526.645 391.627 535.981 386.646C539.478 384.78 541.33 382.456 543.905 379.569C545.895 381.731 547.399 382.914 547.92 385.858C546.561 389.465 545.741 391.639 543.941 395.021C535.747 395.54 531.06 395.679 523.285 398.86L522.757 397.861C522.363 396.237 517.294 389.075 516.167 386.541C515.275 384.534 514.779 382.757 514.054 380.95L513.803 380.331Z"
     id="path50" />
  <path
     fill="#D3D9E1"
     transform="scale(0.25 0.25)"
     d="M502.791 364.868C505.04 355.446 509.95 347.925 519.404 344.323C521.154 343.656 524.698 342.939 526.428 343.742C518.274 349.06 518.076 349.89 513.263 358.516C511.648 359.586 510.065 360.665 508.39 361.639C506.276 363.549 504.181 365.481 502.108 367.436L502.791 364.868Z"
     id="path52" />
  <path
     fill="#9EA5B7"
     transform="scale(0.25 0.25)"
     d="M502.791 364.868L503.3 365.097C504.67 363.59 506.32 361.804 508.39 361.639C506.276 363.549 504.181 365.481 502.108 367.436L502.791 364.868Z"
     id="path54" />
  <path
     fill="#0F0D0D"
     transform="scale(0.25 0.25)"
     d="M396.365 348.43C405.983 352.335 404.282 339.519 414.275 336.553C417.484 335.617 420.936 336.046 423.819 337.737C437.17 345.703 436.669 377.82 429.149 390.067C426.615 393.304 424.989 393.38 422.051 395.848L421.019 395.99C420.393 395.774 401.625 386.657 401.945 386.959C402.455 386.346 402.621 386.333 403.324 385.967C403.105 382.811 400.832 379.406 400.593 376.613C399.705 366.24 399.224 358.572 396.365 348.43Z"
     id="path56" />
  <path
     fill="#3C5989"
     transform="scale(0.25 0.25)"
     d="M421.732 344.863C433.926 350.492 432.704 369.314 431.316 380.533C430.771 382.641 429.188 388.216 429.149 390.067C426.615 393.304 424.989 393.38 422.051 395.848C421.259 393.934 419.105 392.299 417.528 390.878C414.559 385.92 413.404 381.867 411.704 376.328C411.094 371.918 410.239 360.586 413.643 357.403C415.032 352.686 415.692 351.632 418.737 348.051C419.218 346.463 420.36 345.9 421.732 344.863Z"
     id="path58" />
  <path
     fill="#64D3E6"
     transform="scale(0.25 0.25)"
     d="M411.704 376.328C412.199 373.632 412.567 371.46 415.808 371.29C420.493 374.105 418.435 387.022 431.316 380.533C430.771 382.641 429.188 388.216 429.149 390.067C426.615 393.304 424.989 393.38 422.051 395.848C421.259 393.934 419.105 392.299 417.528 390.878C414.559 385.92 413.404 381.867 411.704 376.328Z"
     id="path60" />
  <path
     fill="white"
     transform="scale(0.25 0.25)"
     d="M418.737 348.051C421.093 349.408 422.937 350.215 423.726 352.97C424.407 355.373 424.024 357.953 422.674 360.054C419.224 365.452 415.254 362.436 413.643 357.403C415.032 352.686 415.692 351.632 418.737 348.051Z"
     id="path62" />
  <path
     fill="white"
     transform="scale(0.25 0.25)"
     d="M410.779 359.358C411.468 354.028 416.196 347.589 419.306 343.4L421.732 344.863C420.36 345.9 419.218 346.463 418.737 348.051C415.692 351.632 415.032 352.686 413.643 357.403C410.239 360.586 411.094 371.918 411.704 376.328C413.404 381.867 414.559 385.92 417.528 390.878L415.109 389.823C414.048 389.634 407.509 387.096 405.662 386.485C404.35 376.053 403.455 368.541 406.695 358.123C408.384 358.214 409.933 357.787 410.779 359.358Z"
     id="path64" />
  <path
     fill="#222124"
     transform="scale(0.25 0.25)"
     d="M410.779 359.358C411.468 354.028 416.196 347.589 419.306 343.4L421.732 344.863C420.36 345.9 419.218 346.463 418.737 348.051C415.692 351.632 415.032 352.686 413.643 357.403C410.239 360.586 411.094 371.918 411.704 376.328C413.404 381.867 414.559 385.92 417.528 390.878L415.109 389.823C408.988 380.722 409.113 369.676 410.779 359.358Z"
     id="path66" />
  <path
     fill="#EBE0D1"
     transform="scale(0.25 0.25)"
     d="M406.695 358.123C408.009 353.714 413.22 340.617 419.306 343.4C416.196 347.589 411.468 354.028 410.779 359.358C409.933 357.787 408.384 358.214 406.695 358.123Z"
     id="path68" />
  <path
     fill="#0F0D0D"
     transform="scale(0.25 0.25)"
     d="M447.507 419.704C438.712 414.098 429.759 404.763 447.86 403.227C451.894 403.176 459.941 403.512 462.112 407.454C465.222 413.098 452.846 418.227 449.617 419.777C449.817 422.402 450.132 424.333 450.565 426.896L451.377 427.283C452.405 427.785 453.074 428.283 453.996 428.871C462.577 434.341 471.822 436.532 481.39 431.98C484.009 430.735 487.253 427.572 489.73 426.902L490.076 426.101C492.14 425.808 494.649 426.926 495.28 428.998C493.95 429.757 492.571 428.467 492.393 428.739C485.828 438.769 475.701 443.684 463.731 440.322C459.019 438.999 454.821 436.762 450.395 433.465C443.618 437.771 436.632 439.13 431.68 431.203C430.096 428.669 430.021 426.317 429.466 423.462L433.69 430.118C436.964 430.117 445.602 433.092 448.225 429.14C447.931 426.045 447.735 422.816 447.507 419.704Z"
     id="path70" />
  <path
     fill="#D3D9E1"
     transform="scale(0.25 0.25)"
     d="M450.565 426.896L451.377 427.283C452.405 427.785 453.074 428.283 453.996 428.871C462.577 434.341 471.822 436.532 481.39 431.98C484.009 430.735 487.253 427.572 489.73 426.902C483.373 442.245 453.782 441.239 450.565 426.896Z"
     id="path72" />
  <path
     fill="#D3D9E1"
     transform="scale(0.25 0.25)"
     d="M448.225 429.14C448.548 430.76 448.586 430.648 447.896 432.14C444.066 435.4 436.935 433.682 433.69 430.118C436.964 430.117 445.602 433.092 448.225 429.14Z"
     id="path74" />
  <defs
     id="defs81">
    <linearGradient
       id="gradient_2"
       gradientUnits="userSpaceOnUse"
       x1="442.98557"
       y1="413.28967"
       x2="455.11847"
       y2="404.65399">
      <stop
         offset="0"
         stop-color="#E4859C"
         id="stop76" />
      <stop
         offset="1"
         stop-color="#EDADB9"
         id="stop78" />
    </linearGradient>
  </defs>
  <path
     fill="url(#gradient_2)"
     transform="scale(0.25 0.25)"
     d="M441.859 406.115C445.961 405.502 448.219 405.496 452.411 405.486C455.293 405.752 457.574 405.761 459.861 407.493C461.801 412.079 452.208 416.259 448.794 417.672C445.465 416.087 438.969 411.888 439.159 407.698C439.94 406.735 440.217 406.327 441.859 406.115Z"
     id="path83" />
  <defs
     id="defs90">
    <linearGradient
       id="gradient_3"
       gradientUnits="userSpaceOnUse"
       x1="445.26291"
       y1="404.37158"
       x2="449.75192"
       y2="409.1442">
      <stop
         offset="0"
         stop-color="#F7CEDF"
         id="stop85" />
      <stop
         offset="1"
         stop-color="#FFEEEC"
         id="stop87" />
    </linearGradient>
  </defs>
  <path
     fill="url(#gradient_3)"
     transform="scale(0.25 0.25)"
     d="M441.859 406.115C445.961 405.502 448.219 405.496 452.411 405.486C453.447 407.086 453.385 406.306 453.129 407.834C450.276 410.148 443.916 408.882 441.859 406.115Z"
     id="path92" />
  <path
     fill="#0F0D0D"
     transform="scale(0.25 0.25)"
     d="M448.862 448.421C452.331 448.89 455.674 450.035 458.702 451.792C454.011 452.089 452.394 451.454 448.862 448.421Z"
     id="path94" />
  <path
     fill="#EE95AB"
     transform="scale(0.25 0.25)"
     d="M342.494 589.952C342.493 589.592 342.499 589.233 342.51 588.874C342.798 581.246 344.248 563.581 350.542 559.235C362.937 550.674 392.36 553.409 406.475 554.146C419.879 554.889 433.288 555.531 446.702 556.075C457.886 557.057 473.733 558.363 484.451 561.253C485.566 562.116 485.096 561.924 486.492 562.142C489.867 560.86 490.557 563.073 493.383 564.677C496.479 563.189 505.836 560.664 509.288 560.117C503.781 569.741 504.632 573.215 505.765 583.664C510.485 591.689 513.369 594.049 521.127 599.089C526.361 601.589 525.481 603.205 525.538 608.516C526.005 612.454 526.472 618.844 526.49 622.854C527.195 628.814 527.211 634.35 526.99 640.346L525.03 641.562C516.436 637.627 512.295 646.081 509.856 652.635C511.386 644.529 511.475 642.21 519.018 638.032C502.437 629.659 497.475 634.87 489.521 649.253C490.269 645.252 490.585 643.467 491.906 639.693L492.116 639.079L492.247 638.712C485.523 644.638 479.379 653.704 480.905 663.186L480.895 663.46L480.206 666.089L479.714 662.691L479.877 663.04L479.563 662.906C479.219 665.55 478.793 666.703 478.273 669.075L479.081 679.51C471.127 678.493 459.339 678.294 450.821 677.715C429.817 676.459 408.898 674.063 388.154 670.537C372.998 667.981 353.766 666.381 345.598 651.46C341.849 640.833 340.137 612.84 341.808 601.171C341.947 597.426 342.175 593.685 342.494 589.952Z"
     id="path96" />
  <path
     fill="#D07995"
     transform="scale(0.25 0.25)"
     d="M493.383 564.677C496.479 563.189 505.836 560.664 509.288 560.117C503.781 569.741 504.632 573.215 505.765 583.664C510.485 591.689 513.369 594.049 521.127 599.089C526.361 601.589 525.481 603.205 525.538 608.516C526.005 612.454 526.472 618.844 526.49 622.854C527.195 628.814 527.211 634.35 526.99 640.346L525.03 641.562C516.436 637.627 512.295 646.081 509.856 652.635C511.386 644.529 511.475 642.21 519.018 638.032C502.437 629.659 497.475 634.87 489.521 649.253C490.269 645.252 490.585 643.467 491.906 639.693L492.116 639.079L492.247 638.712C485.523 644.638 479.379 653.704 480.905 663.186L480.895 663.46L480.206 666.089L479.714 662.691L479.877 663.04L479.563 662.906C479.219 665.55 478.793 666.703 478.273 669.075L479.081 679.51C471.127 678.493 459.339 678.294 450.821 677.715C429.817 676.459 408.898 674.063 388.154 670.537C372.998 667.981 353.766 666.381 345.598 651.46C351.482 654.778 358.593 659.787 365.239 661.479C368.853 662.461 369.629 662.91 373.073 661.658C382.086 662.754 391.154 663.341 400.233 663.416C403.632 658.209 408.285 658.043 412.167 662.872C413.506 662.458 421.924 661.868 424.198 661.627C431.226 660.883 435.434 659.981 442.174 657.994C445.02 656.135 445.971 656.144 449.413 656.098C459.471 651.21 469.363 645.022 475.423 635.343C477.373 634.476 478.724 632.649 478.982 630.53C483.283 625.486 486.309 616.769 488.584 610.497C487.013 607.596 487.956 603.974 490.742 602.206C492.838 595.443 493.533 587.616 493.631 580.544C493.68 576.96 492.821 570.225 493.732 567.191L492.077 565.614C489.741 563.812 489.151 563.373 486.492 562.142C489.867 560.86 490.557 563.073 493.383 564.677Z"
     id="path98" />
  <path
     fill="#1F1211"
     transform="scale(0.25 0.25)"
     d="M493.383 564.677C496.479 563.189 505.836 560.664 509.288 560.117C503.781 569.741 504.632 573.215 505.765 583.664C510.485 591.689 513.369 594.049 521.127 599.089C526.361 601.589 525.481 603.205 525.538 608.516C526.005 612.454 526.472 618.844 526.49 622.854C527.195 628.814 527.211 634.35 526.99 640.346L525.03 641.562C516.436 637.627 512.295 646.081 509.856 652.635C511.386 644.529 511.475 642.21 519.018 638.032C502.437 629.659 497.475 634.87 489.521 649.253C490.269 645.252 490.585 643.467 491.906 639.693L492.116 639.079L492.247 638.712C485.523 644.638 479.379 653.704 480.905 663.186L480.895 663.46L480.206 666.089L479.714 662.691L479.877 663.04L479.563 662.906C479.219 665.55 478.793 666.703 478.273 669.075C476.033 649.579 486.813 631.722 507.917 632.068C506.839 611.737 507.952 583.002 493.732 567.191L492.077 565.614C489.741 563.812 489.151 563.373 486.492 562.142C489.867 560.86 490.557 563.073 493.383 564.677Z"
     id="path100" />
  <path
     fill="#D07995"
     transform="scale(0.25 0.25)"
     d="M505.765 583.664C510.485 591.689 513.369 594.049 521.127 599.089C526.361 601.589 525.481 603.205 525.538 608.516C526.005 612.454 526.472 618.844 526.49 622.854C525.013 623.698 523.085 624.32 521.903 625.273C520.138 618.838 515.217 615.347 510.952 621.927L509.999 621.939C508.769 606.786 508.053 598.646 505.525 583.576L505.765 583.664Z"
     id="path102" />
  <path
     fill="#EBE0D1"
     transform="scale(0.25 0.25)"
     d="M525.538 608.516C517.957 609.75 514.956 601.935 521.127 599.089C526.361 601.589 525.481 603.205 525.538 608.516Z"
     id="path104" />
  <path
     fill="#D07995"
     transform="scale(0.25 0.25)"
     d="M510.952 621.927C515.217 615.347 520.138 618.838 521.903 625.273C523.085 624.32 525.013 623.698 526.49 622.854C527.195 628.814 527.211 634.35 526.99 640.346C521.545 637.413 516.241 633.617 510.242 632.262C510.099 628.864 510.069 625.35 509.999 621.939L510.952 621.927Z"
     id="path106" />
  <path
     fill="#D3D9E1"
     transform="scale(0.25 0.25)"
     d="M510.952 621.927C515.217 615.347 520.138 618.838 521.903 625.273C520.76 633.97 510.768 632.194 510.952 621.927Z"
     id="path108" />
  <path
     fill="#D07995"
     transform="scale(0.25 0.25)"
     d="M493.383 564.677C496.479 563.189 505.836 560.664 509.288 560.117C503.781 569.741 504.632 573.215 505.765 583.664L505.525 583.576C501.68 576.224 501.737 570.625 493.383 564.677Z"
     id="path110" />
  <path
     fill="#D3D9E1"
     transform="scale(0.25 0.25)"
     d="M490.742 602.206C492.919 600.824 495.721 600.914 497.805 602.434C499.889 603.953 500.832 606.592 500.183 609.089C499.533 611.585 497.423 613.43 494.863 613.741C492.302 614.052 489.812 612.765 488.584 610.497C487.013 607.596 487.956 603.974 490.742 602.206Z"
     id="path112" />
  <path
     fill="#D3D9E1"
     transform="scale(0.25 0.25)"
     d="M442.174 657.994C445.02 656.135 445.971 656.144 449.413 656.098C463.851 670.148 434.049 673.301 442.174 657.994Z"
     id="path114" />
  <path
     fill="#D3D9E1"
     transform="scale(0.25 0.25)"
     d="M400.233 663.416C403.632 658.209 408.285 658.043 412.167 662.872C412.652 664.941 412.773 666.84 411.594 668.757C410.866 669.922 409.701 670.746 408.361 671.046C403.146 672.236 400.788 667.807 400.233 663.416Z"
     id="path116" />
  <path
     fill="#F1B0B2"
     transform="scale(0.25 0.25)"
     d="M342.494 589.952C342.493 589.592 342.499 589.233 342.51 588.874C342.798 581.246 344.248 563.581 350.542 559.235C362.937 550.674 392.36 553.409 406.475 554.146C419.879 554.889 433.288 555.531 446.702 556.075C457.886 557.057 473.733 558.363 484.451 561.253C485.566 562.116 485.096 561.924 486.492 562.142C489.151 563.373 489.741 563.812 492.077 565.614L491.35 568.273C489.024 569.391 487.451 567.045 484.968 566.229C462.414 558.815 438.587 558.932 415.146 558.734C397.193 558.583 378.227 555.699 360.928 562.047C355.539 564.065 352.818 569.054 350.899 574.204C348.849 579.868 347.579 585.784 347.124 591.791C345.566 590.968 344.148 590.531 342.494 589.952Z"
     id="path118" />
  <path
     fill="white"
     transform="scale(0.25 0.25)"
     d="M365.239 661.479C355.033 645.914 384.883 646.979 373.073 661.658C369.629 662.91 368.853 662.461 365.239 661.479Z"
     id="path120" />
  <path
     fill="#EBE0D1"
     transform="scale(0.25 0.25)"
     d="M475.423 635.343C472.904 636.463 469.947 635.746 468.221 633.595C466.496 631.445 466.436 628.402 468.075 626.186C469.714 623.969 472.641 623.135 475.203 624.156C477.764 625.176 479.316 627.794 478.982 630.53C478.724 632.649 477.373 634.476 475.423 635.343Z"
     id="path122" />
  <path
     fill="#EBE0D1"
     transform="scale(0.25 0.25)"
     d="M342.494 589.952C344.148 590.531 345.566 590.968 347.124 591.791C350.259 596.364 348.8 603.277 342.743 602.5C341.844 601.654 342.106 602.128 341.808 601.171C341.947 597.426 342.175 593.685 342.494 589.952Z"
     id="path124" />
  <path
     fill="#0F0D0D"
     transform="scale(0.25 0.25)"
     d="M408.661 591.55C413.688 592.019 415.166 593.675 418.362 597.171C421.026 594.614 424.24 591.926 428.25 592.157C429.949 592.252 431.538 593.025 432.66 594.303C439.13 601.522 432.521 612.121 426.647 617.4C423.329 620.154 421.074 621.75 417.462 624.039C411.008 619.25 404.738 613.495 401.892 605.761C399.415 599.028 401.68 593.701 408.661 591.55Z"
     id="path126" />
  <path
     fill="white"
     transform="scale(0.25 0.25)"
     d="M408.048 592.928C413.688 593.711 414.676 595.254 418.058 599.605C431.012 585.646 440.349 600.541 427.071 615.216C423.718 618.347 421.195 619.975 417.354 622.529C410.203 616.133 393.983 600.937 408.048 592.928Z"
     id="path128" />
  <path
     fill="#EBE0D1"
     transform="scale(0.25 0.25)"
     d="M447.973 598.818C450.109 597.983 452.53 598.374 454.295 599.839C456.06 601.303 456.89 603.611 456.463 605.864C456.035 608.117 454.418 609.961 452.24 610.678C448.996 611.746 445.492 610.037 444.336 606.824C443.18 603.611 444.793 600.061 447.973 598.818Z"
     id="path130" />
  <path
     fill="#EBE0D1"
     transform="scale(0.25 0.25)"
     d="M353.342 622.223C355.468 621.308 357.924 621.637 359.735 623.078C361.545 624.52 362.416 626.84 362.001 629.117C361.586 631.393 359.952 633.257 357.749 633.966C354.559 634.995 351.123 633.335 349.945 630.196C348.767 627.058 350.263 623.548 353.342 622.223Z"
     id="path132" />
  <path
     fill="#EBE0D1"
     transform="scale(0.25 0.25)"
     d="M392.904 626.351C396.147 625.106 399.783 626.746 400.996 630.002C402.208 633.257 400.532 636.877 397.264 638.057C394.043 639.22 390.485 637.572 389.289 634.362C388.093 631.152 389.706 627.578 392.904 626.351Z"
     id="path134" />
  <path
     fill="#EBE0D1"
     transform="scale(0.25 0.25)"
     d="M379.465 593.764C382.85 593.274 385.992 595.617 386.486 599.001C386.981 602.385 384.64 605.53 381.257 606.028C377.869 606.527 374.718 604.182 374.222 600.793C373.727 597.404 376.075 594.256 379.465 593.764Z"
     id="path136" />
  <path
     fill="#EBE0D1"
     transform="scale(0.25 0.25)"
     d="M471.82 570.707C475.07 569.82 478.43 571.703 479.371 574.937C480.312 578.171 478.486 581.563 475.268 582.558C473.137 583.217 470.817 582.676 469.199 581.142C467.58 579.608 466.914 577.32 467.458 575.158C468.001 572.995 469.669 571.293 471.82 570.707Z"
     id="path138" />
  <path
     fill="#EBE0D1"
     transform="scale(0.25 0.25)"
     d="M430.624 630.171C433.935 630.136 436.683 632.721 436.851 636.028C437.019 639.334 434.546 642.184 431.249 642.484C428.995 642.689 426.81 641.644 425.555 639.76C424.301 637.877 424.178 635.458 425.236 633.457C426.293 631.457 428.361 630.195 430.624 630.171Z"
     id="path140" />
  <path
     fill="#EBE0D1"
     transform="scale(0.25 0.25)"
     d="M360.07 565.693C362.148 564.949 364.466 565.397 366.118 566.861C367.77 568.325 368.494 570.572 368.006 572.725C367.518 574.878 365.896 576.593 363.774 577.202C360.636 578.102 357.35 576.349 356.35 573.241C355.349 570.133 356.996 566.792 360.07 565.693Z"
     id="path142" />
  <path
     fill="#EBE0D1"
     transform="scale(0.25 0.25)"
     d="M440.674 562.827C443.852 562.098 447.034 564.024 447.863 567.178C448.692 570.331 446.868 573.572 443.743 574.501C441.631 575.128 439.345 574.556 437.778 573.007C436.211 571.458 435.612 569.179 436.215 567.06C436.818 564.941 438.527 563.319 440.674 562.827Z"
     id="path144" />
  <path
     fill="#EBE0D1"
     transform="scale(0.25 0.25)"
     d="M399.41 564.78C401.372 563.928 403.64 564.198 405.346 565.487C407.052 566.776 407.932 568.885 407.647 571.004C407.362 573.124 405.958 574.926 403.972 575.719C400.965 576.921 397.549 575.486 396.303 572.497C395.056 569.507 396.44 566.071 399.41 564.78Z"
     id="path146" />
  <path
     fill="white"
     transform="scale(0.25 0.25)"
     d="M547.932 602.144C584.288 599.226 604.405 593.055 614.925 555.621C627.465 592.888 639.195 636.68 621.208 674.423C609.146 699.732 587.583 707.625 564.281 719.312C558.39 722.267 550.908 726.961 545.133 730.508C547.552 723.824 548.513 720.177 548.781 713.016C543.764 729.254 537.368 746.429 515.702 740.663C502.455 737.138 491.497 715.876 488.156 703.945C482.065 687.172 483.032 681.759 480.206 666.089L480.895 663.46L480.905 663.186C479.379 653.704 485.523 644.638 492.247 638.712L492.116 639.079L491.906 639.693C490.585 643.467 490.269 645.252 489.521 649.253C497.475 634.87 502.437 629.659 519.018 638.032C511.475 642.21 511.386 644.529 509.856 652.635C512.295 646.081 516.436 637.627 525.03 641.562C542.104 654.215 544.966 675.506 549.53 694.445C549.322 679.047 546.795 670.164 540.328 656.202C548.955 646.144 548.659 640.715 549.499 627.869C563.637 618.934 572.782 619.39 588.502 621.274C576.318 616.763 568.782 617.164 556.601 621.45C554.036 622.602 551.509 623.676 549.08 625.102C548.882 617.441 548.499 609.786 547.932 602.144Z"
     id="path148" />
  <path
     fill="#D3D9E1"
     transform="scale(0.25 0.25)"
     d="M547.932 602.144C584.288 599.226 604.405 593.055 614.925 555.621C627.465 592.888 639.195 636.68 621.208 674.423C609.146 699.732 587.583 707.625 564.281 719.312C558.39 722.267 550.908 726.961 545.133 730.508C547.552 723.824 548.513 720.177 548.781 713.016C543.764 729.254 537.368 746.429 515.702 740.663C502.455 737.138 491.497 715.876 488.156 703.945C491.28 703.335 491.922 704.144 494.833 705.07C495.937 708.48 496.951 711.955 498.654 715.1C506.905 730.336 520.869 739.063 528.247 717.568C529.194 717.597 531.772 717.614 532.527 717.1C539.688 712.229 548.643 703.909 552.233 696.133C580.782 695.446 606.423 677.161 615.146 650.03C621.343 630.753 620.757 605.27 611.876 587.054C608.523 589.348 603.079 595.865 599.183 599.131C584.494 611.447 574.508 610.644 557.907 615.236C557.205 617.415 556.974 619.206 556.601 621.45C554.036 622.602 551.509 623.676 549.08 625.102C548.882 617.441 548.499 609.786 547.932 602.144Z"
     id="path150" />
  <path
     fill="#0F0D0D"
     transform="scale(0.25 0.25)"
     d="M494.833 705.07C492.875 695.52 490.696 678.897 503.48 675.968C507.237 675.107 512.623 677.718 515.399 680.071C526.014 689.065 529.821 704.303 528.247 717.568C520.869 739.063 506.905 730.336 498.654 715.1C496.951 711.955 495.937 708.48 494.833 705.07Z"
     id="path152" />
  <path
     fill="#F1B0B2"
     transform="scale(0.25 0.25)"
     d="M502.118 718.064C496.158 710.914 492.66 693.213 496.526 684.632C501.905 672.691 513.499 677.646 519.085 686.665C522.021 691.405 523.311 694.523 525.278 699.835C527.076 707.263 528.471 716.952 524.269 723.711C517.427 734.716 506.529 725.938 502.118 718.064Z"
     id="path154" />
  <path
     fill="#EE95AB"
     transform="scale(0.25 0.25)"
     d="M525.278 699.835C527.076 707.263 528.471 716.952 524.269 723.711C517.427 734.716 506.529 725.938 502.118 718.064C506.668 718.863 509.425 722.438 515.221 720.304C524.013 717.069 521.949 705.742 525.278 699.835Z"
     id="path156" />
  <path
     fill="#0F0D0D"
     transform="scale(0.25 0.25)"
     d="M480.905 663.186C481.232 660.906 481.237 659.452 482.467 657.499C489.489 652.88 496.028 673.847 485.609 672.767C482.197 670.677 481.503 667.232 480.895 663.46L480.905 663.186Z"
     id="path158" />
  <path
     fill="#F1B0B2"
     transform="scale(0.25 0.25)"
     d="M484.07 657.699C489.416 660.266 490.106 666.628 488.488 671.77C482.225 671.006 482.01 662.366 484.07 657.699Z"
     id="path160" />
  <path
     fill="#0F0D0D"
     transform="scale(0.25 0.25)"
     d="M495.969 647.735C505.31 650.072 507.634 660.795 501.917 667.632C492.321 665.764 490.066 654.564 495.969 647.735Z"
     id="path162" />
  <path
     fill="#F1B0B2"
     transform="scale(0.25 0.25)"
     d="M496.361 649.224C503.45 651.752 504.967 659.625 501.555 665.795C494.163 665.162 493.129 654.722 496.361 649.224Z"
     id="path164" />
  <path
     fill="#0F0D0D"
     transform="scale(0.25 0.25)"
     d="M512.793 653.963C521.764 654.592 524.456 666.322 518.898 672.591C510.962 671.957 508.027 660.126 512.793 653.963Z"
     id="path166" />
  <path
     fill="#F1B0B2"
     transform="scale(0.25 0.25)"
     d="M513.444 655.179C520.375 656.874 520.631 665.311 518.583 670.877C511.74 669.205 510.547 660.77 513.444 655.179Z"
     id="path168" />
  <path
     fill="#D07995"
     transform="scale(0.25 0.25)"
     d="M462.178 258.627C465.801 257.305 472.738 257.135 476.622 257.142C501.248 257.189 528.969 264.157 551.266 274.476C551.953 274.792 552.637 275.117 553.317 275.449L554.936 276.218C559.673 278.632 569.82 283.664 573.987 286.796C584.278 292.456 601.948 307.043 609.167 315.536C626.436 334.133 636.465 349.152 635.493 375.761C634.912 391.67 631.609 405.286 619.674 416.237L619.214 416.654C614.53 401.845 606.563 399.24 599.257 386.621L598.323 385.063C595.216 378.925 592.391 371.491 590.564 364.885C577.193 316.538 513.16 302.423 469.34 302.98C444.623 303.294 412.126 307.022 396.057 328.447C393.692 331.6 392.034 335.873 389.841 339.345C388.444 339.186 387.847 338.429 386.515 337.496L385.929 338.057C382.4 334.752 381.903 330.426 380.981 325.889C381.042 324.9 381.952 322.731 382.358 321.65C386.824 296.102 396.473 283.871 419.38 271.321C420.726 270.418 420.872 270.758 422.831 270.761C428.686 264.504 451.79 259.906 460.304 258.308L462.178 258.627Z"
     id="path170" />
  <path
     fill="#EE95AB"
     transform="scale(0.25 0.25)"
     d="M462.178 258.627C465.801 257.305 472.738 257.135 476.622 257.142C501.248 257.189 528.969 264.157 551.266 274.476C551.953 274.792 552.637 275.117 553.317 275.449L554.936 276.218C555.28 277.869 555.529 278.87 556.032 280.479C559.862 291.663 557.766 303.389 552.255 313.694C551.366 314.852 551.225 315.506 550.118 315.799C550.122 315.232 550.072 314.808 550.206 314.28C549.152 313.481 544.793 311.294 543.503 310.661C524.164 301.175 500.527 296.666 479.13 294.889C471.02 294.216 459.632 295.094 451.506 295.586C451.37 289.653 451.263 288.324 452.498 282.554C453.548 277.643 457.553 269.854 457.207 265.505L458.106 263.995C459.42 261.601 460.397 260.627 462.178 258.627Z"
     id="path172" />
  <path
     fill="#F1B0B2"
     transform="scale(0.25 0.25)"
     d="M462.178 258.627C465.801 257.305 472.738 257.135 476.622 257.142C501.248 257.189 528.969 264.157 551.266 274.476C551.953 274.792 552.637 275.117 553.317 275.449L554.588 279.81C552.068 279.66 543.249 275.196 540.05 274.424C528.88 271.73 517.466 268.321 506.164 266.366C496.275 264.65 486.237 263.94 476.205 264.247C470.847 264.432 465.051 265.049 459.71 264.97C458.578 264.953 458.853 264.9 458.106 263.995C459.42 261.601 460.397 260.627 462.178 258.627Z"
     id="path174" />
  <path
     fill="#853349"
     transform="scale(0.25 0.25)"
     d="M553.317 275.449L554.936 276.218C555.28 277.869 555.529 278.87 556.032 280.479C559.862 291.663 557.766 303.389 552.255 313.694C551.366 314.852 551.225 315.506 550.118 315.799C550.122 315.232 550.072 314.808 550.206 314.28C556.426 304.843 557.605 290.537 554.588 279.81L553.317 275.449Z"
     id="path176" />
  <path
     fill="#EE95AB"
     transform="scale(0.25 0.25)"
     d="M554.936 276.218C559.673 278.632 569.82 283.664 573.987 286.796C584.278 292.456 601.948 307.043 609.167 315.536C609.315 316.827 609.599 317.26 609.953 318.325C612.819 326.949 614.243 363.497 603.988 366.328C599.813 365.962 596.486 358.676 594.266 355.093C586.66 342.817 579.296 332.243 567.239 323.804C564.045 321.569 554.364 315.85 552.255 313.694C557.766 303.389 559.862 291.663 556.032 280.479C555.529 278.87 555.28 277.869 554.936 276.218Z"
     id="path178" />
  <path
     fill="#E2C9D0"
     transform="scale(0.25 0.25)"
     d="M554.936 276.218C559.673 278.632 569.82 283.664 573.987 286.796C571.363 290.169 559.012 282.257 556.032 280.479C555.529 278.87 555.28 277.869 554.936 276.218Z"
     id="path180" />
  <path
     fill="#EE95AB"
     transform="scale(0.25 0.25)"
     d="M460.304 258.308C457.792 261.216 455.889 263.685 453.59 266.775C448.309 275.636 445.386 286.417 448.205 296.64C439.854 297.739 419.053 303.419 412.798 308.289C409.654 299.742 412.942 286.51 417.628 279.009C419.329 275.307 420.408 273.978 422.831 270.761C428.686 264.504 451.79 259.906 460.304 258.308Z"
     id="path182" />
  <path
     fill="#F1B0B2"
     transform="scale(0.25 0.25)"
     d="M460.304 258.308C457.792 261.216 455.889 263.685 453.59 266.775C447.456 267.985 444.628 268.806 439.069 270.481C434.42 271.882 420.639 279 417.628 279.009C419.329 275.307 420.408 273.978 422.831 270.761C428.686 264.504 451.79 259.906 460.304 258.308Z"
     id="path184" />
  <defs
     id="defs191">
    <linearGradient
       id="gradient_4"
       gradientUnits="userSpaceOnUse"
       x1="408.81332"
       y1="310.26239"
       x2="391.66284"
       y2="294.81549">
      <stop
         offset="0"
         stop-color="#EF84A1"
         id="stop186" />
      <stop
         offset="1"
         stop-color="#EEB6C5"
         id="stop188" />
    </linearGradient>
  </defs>
  <path
     fill="url(#gradient_4)"
     transform="scale(0.25 0.25)"
     d="M419.38 271.321C420.726 270.418 420.872 270.758 422.831 270.761C420.408 273.978 419.329 275.307 417.628 279.009C412.942 286.51 409.654 299.742 412.798 308.289L412.3 310.19C411.431 310.159 411.706 310.339 411.333 310C398.816 316.06 391.393 323.725 384.553 335.326L386.515 337.496L385.929 338.057C382.4 334.752 381.903 330.426 380.981 325.889C381.042 324.9 381.952 322.731 382.358 321.65C386.824 296.102 396.473 283.871 419.38 271.321Z"
     id="path193" />
  <path
     fill="#853349"
     transform="scale(0.25 0.25)"
     d="M419.38 271.321C420.726 270.418 420.872 270.758 422.831 270.761C420.408 273.978 419.329 275.307 417.628 279.009C412.942 286.51 409.654 299.742 412.798 308.289L412.3 310.19C411.431 310.159 411.706 310.339 411.333 310C408.959 304.584 409.123 299.147 409.787 293.449C410.79 284.854 414.839 279.013 419.528 271.951L419.38 271.321Z"
     id="path195" />
  <path
     fill="#4A1E2F"
     transform="scale(0.25 0.25)"
     d="M380.981 325.889C381.042 324.9 381.952 322.731 382.358 321.65C382.616 326.509 382.785 330.751 384.553 335.326L386.515 337.496L385.929 338.057C382.4 334.752 381.903 330.426 380.981 325.889Z"
     id="path197" />
  <path
     fill="#853349"
     transform="scale(0.25 0.25)"
     d="M598.323 385.063C600.993 382.728 603.696 380.425 605.943 377.573C616.75 363.859 617.011 342.605 613.468 326.282C613.319 325.595 613.334 326.015 613.451 325.234C616.411 328.106 616.616 337.679 616.559 341.674C616.306 359.39 614.944 376.038 599.257 386.621L598.323 385.063Z"
     id="path199" />
  <path
     fill="#853349"
     transform="scale(0.25 0.25)"
     d="M460.304 258.308L462.178 258.627C460.397 260.627 459.42 261.601 458.106 263.995L457.207 265.505C449.305 276.144 445.835 289.661 451.776 302.003C450.505 300.204 449.286 298.564 448.205 296.64C445.386 286.417 448.309 275.636 453.59 266.775C455.889 263.685 457.792 261.216 460.304 258.308Z"
     id="path201" />
  <path
     fill="white"
     transform="scale(0.25 0.25)"
     d="M331.556 154.671C329.558 150.772 329.029 148.042 330.345 143.811C335.191 128.221 363.255 113.56 377.915 106.608C395.101 98.4579 428.611 79.9371 447.372 86.3616C455.32 89.0835 460.342 97.6409 463.533 104.933C475.204 131.6 475.915 158.674 474.619 186.957C474.612 194.036 473.682 204.751 472.781 211.854C464.827 215.36 457.367 220.291 450.327 225.36C450.553 221.556 450.795 216.174 451.45 212.434C451.735 183.901 453.083 168.096 442.762 139.901C440.265 134.516 439.328 132.581 435.417 128.196C437.608 125.576 440.957 121.927 442.367 118.98L440.107 120.663C428.037 134.821 412.228 147.787 396.131 157.129C380.797 166.027 342.512 174.056 331.556 154.671Z"
     id="path203" />
  <path
     fill="#D3D9E1"
     transform="scale(0.25 0.25)"
     d="M331.556 154.671C336.147 155.901 337.304 156.612 342.296 157.215C370.922 160.676 398.375 144.92 421.457 129.868C426.649 126.482 434.082 120.715 440.107 120.663C428.037 134.821 412.228 147.787 396.131 157.129C380.797 166.027 342.512 174.056 331.556 154.671Z"
     id="path205" />
  <path
     fill="#D3D9E1"
     transform="scale(0.25 0.25)"
     d="M474.619 186.957C474.612 194.036 473.682 204.751 472.781 211.854C464.827 215.36 457.367 220.291 450.327 225.36C450.553 221.556 450.795 216.174 451.45 212.434C451.47 213.847 451.316 214.959 452.007 216.155L453.076 216.091C458.141 213.141 463.243 209.201 466.713 204.427C470.559 199.137 471.766 192.61 474.619 186.957Z"
     id="path207" />
  <path
     fill="#D3D9E1"
     transform="scale(0.25 0.25)"
     d="M442.367 118.98C443.683 117.168 443.243 117.231 445.016 116.389C448.83 118.436 445.872 137.066 442.762 139.901C440.265 134.516 439.328 132.581 435.417 128.196C437.608 125.576 440.957 121.927 442.367 118.98Z"
     id="path209" />
  <path
     fill="white"
     transform="scale(0.25 0.25)"
     d="M627.065 51.0658C646.193 49.7831 654.138 73.9526 657.639 88.765C673.397 155.445 648.311 228.741 603.386 278.522L596.019 269.603C596.829 268.632 597.608 267.624 598.334 266.58C626.056 226.739 646.867 178.336 642.739 128.878C642.346 124.169 641.55 119.478 640.793 114.845C638.626 105.899 632.87 88.8784 621.912 91.1164C604.745 94.6222 592.056 127.724 587.638 141.453C575.714 178.501 574.109 218.31 579.127 256.451C565.87 246.02 562.786 244.599 561.507 226.995C558.184 181.233 563.832 133.826 584.696 92.4896C593.163 75.7136 608.146 56.2444 627.065 51.0658Z"
     id="path211" />
  <path
     fill="white"
     transform="scale(0.25 0.25)"
     d="M530.018 539.14C531.279 538.691 533.42 536.803 534.651 535.964C545.557 528.532 552.964 517.169 562.797 508.714C566.987 505.111 574.27 501.862 579.197 499.085C584.207 496.262 588.729 493.53 593.589 490.366C602.462 502.052 607.411 513.884 610.796 528.086C611.777 533.668 612.589 539.251 612.561 544.936C612.872 585.921 579.318 600.249 543.212 599.866C529.558 599.722 512.924 597.023 508.036 582.004C508.373 574.578 517.402 569.836 522.695 566.184C514.206 568.885 511.717 570.193 507.093 577.853C505.304 541.228 550.8 562.949 558.745 521.129C549.166 540.227 550.747 536.406 534.497 547.244L533.506 547.336C532.051 546.736 529.865 544.355 528.628 543.152L527.621 542.335C527.781 540.828 528.632 540.528 530.018 539.14Z"
     id="path213" />
  <path
     fill="#D3D9E1"
     transform="scale(0.25 0.25)"
     d="M508.036 582.004C510.56 583.351 513.261 585.459 515.878 586.583C525.473 590.704 537.927 590.342 547.995 589.355C568.348 587.359 590.819 578.514 602.458 560.842C605.469 556.271 607.85 549.951 610.921 545.357C611.347 544.719 611.597 544.938 612.561 544.936C612.872 585.921 579.318 600.249 543.212 599.866C529.558 599.722 512.924 597.023 508.036 582.004Z"
     id="path215" />
  <path
     fill="#D3D9E1"
     transform="scale(0.25 0.25)"
     d="M530.018 539.14C531.279 538.691 533.42 536.803 534.651 535.964C545.557 528.532 552.964 517.169 562.797 508.714C566.987 505.111 574.27 501.862 579.197 499.085C584.207 496.262 588.729 493.53 593.589 490.366C602.462 502.052 607.411 513.884 610.796 528.086C602.86 522.615 600.406 502.39 582.331 505.301C558.084 509.207 549.907 534.966 528.788 543.071C528.735 543.098 528.681 543.125 528.628 543.152L527.621 542.335C527.781 540.828 528.632 540.528 530.018 539.14Z"
     id="path217" />
  <path
     fill="#F1B0B2"
     transform="scale(0.25 0.25)"
     d="M581.586 257.522C575.87 221.846 578.791 185.037 587.66 149.995C591.096 136.419 617.135 68.1071 634.588 104.173C649.037 142.19 634.879 199.447 614.898 233.978C609.259 245.8 601.733 257.346 594.43 268.211L581.586 257.522Z"
     id="path219" />
  <path
     fill="#EE95AB"
     transform="scale(0.25 0.25)"
     d="M581.586 257.522C575.87 221.846 578.791 185.037 587.66 149.995C591.096 136.419 617.135 68.1071 634.588 104.173C630.423 103.372 626.761 103.162 623.104 106.095C604.053 121.377 593.985 158.352 589.857 181.497C586.397 200.903 584.294 229.733 594.38 246.785C595.137 248.066 595.954 248.582 597.268 249.09C604.727 248.838 609.038 236.826 614.898 233.978C609.259 245.8 601.733 257.346 594.43 268.211L581.586 257.522Z"
     id="path221" />
  <path
     fill="#EE95AB"
     transform="scale(0.25 0.25)"
     d="M497.669 205.764C520.995 199.064 538.143 211.958 558.455 220.729C559.706 236.64 559.074 240.801 570.56 252.658C572.21 259.206 591.608 276.386 589.645 286.735C588.008 288.915 584.728 288.49 582.105 288.594C545.556 264.726 509.313 253.017 465.266 255.075C445.849 257.145 432.7 261.513 415.346 270.231L409.802 273.815C410.353 272.727 410.939 271.657 411.558 270.607C427.336 243.373 462.282 215.02 492.705 206.885C495.061 205.746 495.133 205.5 497.669 205.764Z"
     id="path223" />
  <path
     fill="#EE95AB"
     transform="scale(0.25 0.25)"
     d="M492.705 206.885C495.061 205.746 495.133 205.5 497.669 205.764C494.415 208.063 489.767 210.545 487.364 213.52C486.02 217.555 480.423 223.477 478.441 227.537C475.198 234.181 471.956 241.179 469.119 247.99L468.751 248.997C466.266 249.61 465.882 249.811 464.507 252.136C464.331 252.438 464.159 252.743 463.992 253.051L465.266 255.075C445.849 257.145 432.7 261.513 415.346 270.231L409.802 273.815C410.353 272.727 410.939 271.657 411.558 270.607C427.336 243.373 462.282 215.02 492.705 206.885Z"
     id="path225" />
  <path
     fill="#D07995"
     transform="scale(0.25 0.25)"
     d="M492.705 206.885C495.061 205.746 495.133 205.5 497.669 205.764C494.415 208.063 489.767 210.545 487.364 213.52C486.02 217.555 480.423 223.477 478.441 227.537C475.198 234.181 471.956 241.179 469.119 247.99L468.751 248.997C466.266 249.61 465.882 249.811 464.507 252.136C464.331 252.438 464.159 252.743 463.992 253.051L465.266 255.075C445.849 257.145 432.7 261.513 415.346 270.231C416.356 267.797 419.4 264.397 421.591 262.99C438.33 253.611 443.631 251.9 463.322 249.795C464.745 237.294 471.267 228.864 478.948 219.569C480.758 217.784 492.317 207.565 492.705 206.885Z"
     id="path227" />
  <path
     fill="#853349"
     transform="scale(0.25 0.25)"
     d="M492.705 206.885C495.061 205.746 495.133 205.5 497.669 205.764C494.415 208.063 489.767 210.545 487.364 213.52C478.81 220.452 472.182 230.901 468.019 240.992C466.958 243.563 464.584 250.235 463.448 252.023L463.322 249.795C464.745 237.294 471.267 228.864 478.948 219.569C480.758 217.784 492.317 207.565 492.705 206.885Z"
     id="path229" />
  <path
     fill="#F1B0B2"
     transform="scale(0.25 0.25)"
     d="M492.705 206.885C492.317 207.565 480.758 217.784 478.948 219.569C465.683 223.8 425.287 249.704 421.591 262.99C419.4 264.397 416.356 267.797 415.346 270.231L409.802 273.815C410.353 272.727 410.939 271.657 411.558 270.607C427.336 243.373 462.282 215.02 492.705 206.885Z"
     id="path231" />
  <path
     fill="#D07995"
     transform="scale(0.25 0.25)"
     d="M468.751 248.997L469.119 247.99C472.517 248.698 479.913 247.717 484.347 248.154C483.39 249.104 471.078 248.992 468.751 248.997Z"
     id="path233" />
  <defs
     id="defs240">
    <linearGradient
       id="gradient_5"
       gradientUnits="userSpaceOnUse"
       x1="419.12152"
       y1="723.99524"
       x2="368.66406"
       y2="607.40204">
      <stop
         offset="0"
         stop-color="#CAD1DD"
         id="stop235" />
      <stop
         offset="1"
         stop-color="white"
         id="stop237" />
    </linearGradient>
  </defs>
  <path
     fill="url(#gradient_5)"
     transform="scale(0.25 0.25)"
     d="M316.894 643.166C320.729 627.313 320.957 622.863 339.36 624.222C336.814 627.237 332.064 632.276 333.733 636.551C334.401 635.903 337.443 629.094 338.653 627.029C339.054 630.181 340.01 635.761 339.544 638.694L338.394 639.46C330.97 642.288 336.693 656.939 345.855 656.221C351.087 667.958 369.664 668.02 379.782 671.827L385.375 687.506C384.744 683.059 383.835 676.198 381.999 672.181C386.321 672.79 390.733 673.373 395.025 674.122C423.046 679.011 451.019 680.563 479.396 681.594C480.609 687.476 481.679 692.662 483.5 698.419C458.115 693.966 439.684 691.952 415.559 681.612C420.535 685.596 425.748 687.854 431.555 690.379C412.57 695.715 401.99 700.22 385.195 710.512C385.795 705.295 386.012 702.758 385.936 697.577C384.456 704.729 382.071 714.538 375.432 718.321C353.714 730.695 333.403 697.594 324.117 682.718C321.267 678.152 319.43 672.945 316.992 668.628L315.216 662.518C316.91 663.494 320.443 665.489 321.404 663.105C324.03 656.592 319.147 650.515 312.54 651.33C312.483 643.582 312.578 640.675 316.294 633.7C316.362 637.068 316.582 639.81 316.894 643.166Z"
     id="path242" />
  <path
     fill="#0F0D0D"
     transform="scale(0.25 0.25)"
     d="M334.514 662.576C354.122 662.157 376.764 699.649 359.133 710.901C342.675 714.734 316.691 674.521 334.514 662.576Z"
     id="path244" />
  <path
     fill="#F1B0B2"
     transform="scale(0.25 0.25)"
     d="M335.535 664.447C353.988 665.415 373.449 700.535 358.025 709.355C341.051 709.074 319.753 673.44 335.535 664.447Z"
     id="path246" />
  <path
     fill="#0F0D0D"
     transform="scale(0.25 0.25)"
     d="M322.868 639.485C330.632 641.286 335.182 651.721 329.177 657.151C321.965 654.444 316.479 645.709 322.868 639.485Z"
     id="path248" />
  <path
     fill="#F1B0B2"
     transform="scale(0.25 0.25)"
     d="M322.973 641.206C329.337 642.239 331.502 650.312 329.063 655.483C323.578 652.968 319.434 647.015 322.973 641.206Z"
     id="path250" />
  <defs
     id="defs257">
    <linearGradient
       id="gradient_6"
       gradientUnits="userSpaceOnUse"
       x1="520.4093"
       y1="432.15762"
       x2="475.29352"
       y2="527.67438">
      <stop
         offset="0"
         stop-color="#4D6697"
         id="stop252" />
      <stop
         offset="1"
         stop-color="#6587B5"
         id="stop254" />
    </linearGradient>
  </defs>
  <path
     fill="url(#gradient_6)"
     transform="scale(0.25 0.25)"
     d="M407.283 462.47C408.802 462.028 408.968 461.839 410.714 462.764C417.523 466.376 431.343 474.997 438.317 477.484C439.034 478.582 439.458 478.933 439.457 480.214C436.23 479.293 425.499 476.223 422.925 477.258C428.208 479.801 433.579 482.163 439.202 483.858C467.776 492.471 530.787 486.902 559.654 478.337C570.937 474.99 581.221 469.956 591.544 464.394C608.879 478.598 591.67 489.308 579.172 496.263C557.489 508.329 534.916 515.697 510.738 521.04C504.136 522.499 497.408 523.724 490.883 525.318C490.924 520.621 491.047 507.72 487.781 504.552C484.516 501.386 477.957 500.144 474.147 495.712C461.154 494.474 447.9 493.971 434.846 493.642C424.464 493.38 414.119 492.189 404.269 495.797C397.955 489.329 399.036 483.978 403.45 477.064C407.392 481.995 409.86 484.024 415.104 487.493C410.282 481.047 398.696 470.346 407.283 462.47Z"
     id="path259" />
  <path
     fill="#3C5989"
     transform="scale(0.25 0.25)"
     d="M407.283 462.47C408.802 462.028 408.968 461.839 410.714 462.764C417.523 466.376 431.343 474.997 438.317 477.484C439.034 478.582 439.458 478.933 439.457 480.214C436.23 479.293 425.499 476.223 422.925 477.258C412.953 474.456 413.227 468.451 407.283 462.47Z"
     id="path261" />
  <path
     fill="#F1B0B2"
     transform="scale(0.25 0.25)"
     d="M434.415 129.488C452.331 152.21 449.541 199.233 447.833 226.948C441.19 232.202 434.771 237.733 428.594 243.527C426.802 244.258 427.434 243.655 426.601 245.363C425.356 247.347 423.943 248.628 422.312 250.303C408.76 225.753 402.861 206.001 397.644 178.909C396.371 172.894 395.666 167.294 395.115 161.201C397.489 160.016 400.905 157.823 403.28 156.384C403.412 158.207 403.52 159.083 403.868 160.875C404.604 158.44 403.242 157.001 404.54 155.009L405.456 154.84C414.612 150.17 427.175 136.985 434.415 129.488Z"
     id="path263" />
  <path
     fill="white"
     transform="scale(0.25 0.25)"
     d="M405.238 175.26C409.296 203.053 414.565 220.276 426.601 245.363C425.356 247.347 423.943 248.628 422.312 250.303C408.76 225.753 402.861 206.001 397.644 178.909C399.219 177.43 403.116 176.071 405.238 175.26Z"
     id="path265" />
  <defs
     id="defs272">
    <linearGradient
       id="gradient_7"
       gradientUnits="userSpaceOnUse"
       x1="410.75952"
       y1="201.1187"
       x2="417.7598"
       y2="199.54947">
      <stop
         offset="0"
         stop-color="#020101"
         id="stop267" />
      <stop
         offset="1"
         stop-color="#251E1C"
         id="stop269" />
    </linearGradient>
  </defs>
  <path
     fill="url(#gradient_7)"
     transform="scale(0.25 0.25)"
     d="M403.868 160.875C404.604 158.44 403.242 157.001 404.54 155.009L405.456 154.84C407.193 185.647 415.059 215.798 428.594 243.527C426.802 244.258 427.434 243.655 426.601 245.363C414.565 220.276 409.296 203.053 405.238 175.26C403.116 176.071 399.219 177.43 397.644 178.909C396.371 172.894 395.666 167.294 395.115 161.201C397.489 160.016 400.905 157.823 403.28 156.384C403.412 158.207 403.52 159.083 403.868 160.875Z"
     id="path274" />
  <path
     fill="#D3D9E1"
     transform="scale(0.25 0.25)"
     d="M403.28 156.384C403.412 158.207 403.52 159.083 403.868 160.875C404.06 166.038 404.591 170.162 405.238 175.26C403.116 176.071 399.219 177.43 397.644 178.909C396.371 172.894 395.666 167.294 395.115 161.201C397.489 160.016 400.905 157.823 403.28 156.384Z"
     id="path276" />
  <path
     fill="#D3D9E1"
     transform="scale(0.25 0.25)"
     d="M631.442 606.769C631.554 600.962 645.145 593.553 650.027 591.846C649.973 596.704 650.178 598.603 650.729 603.353L653.647 598.006C662.677 608.527 660.89 619.904 657.023 632.021C658.49 630.499 659.862 628.672 661.824 628.125C665.33 629.039 664.004 635.246 663.651 638.273C660.296 651.599 654.931 654.313 644.849 662.575C644.769 664.066 644.853 663.841 645.421 665.25C643.306 671.592 630.25 674.258 624.449 675.427C633.651 655.845 635.091 628.098 631.442 606.769Z"
     id="path278" />
  <path
     fill="white"
     transform="scale(0.25 0.25)"
     d="M631.442 606.769C631.554 600.962 645.145 593.553 650.027 591.846C649.973 596.704 650.178 598.603 650.729 603.353L653.647 598.006C662.677 608.527 660.89 619.904 657.023 632.021C658.49 630.499 659.862 628.672 661.824 628.125C665.33 629.039 664.004 635.246 663.651 638.273C658.215 637.509 655.816 637.335 650.919 634.949C651.151 631.039 652.446 624.469 651.544 620.807C650.899 618.189 644.432 623.438 641.457 621.034C636.853 617.31 637.041 609.043 631.442 606.769Z"
     id="path280" />
  <path
     fill="#6480AF"
     transform="scale(0.25 0.25)"
     d="M617.411 473.907C612.551 473.102 606.586 473.727 602.561 472.237C602.058 472.051 602.076 471.241 601.949 470.561C604.034 465.542 620.841 464.85 625.633 465.918C639.145 468.622 650.685 479.515 663.014 487.418L663.73 488.33C663.54 489.646 663.259 490.397 662.129 491.264C641.975 506.725 615.298 505.942 597.94 487.717C601.168 482.562 601.204 481.427 602.142 475.391C613.957 475.482 621.116 474.977 630.959 482.143L631.183 482.195L631.313 481.729C626.634 476.965 623.492 475.89 617.411 473.907Z"
     id="path282" />
  <path
     fill="#3C5989"
     transform="scale(0.25 0.25)"
     d="M602.142 475.391C613.957 475.482 621.116 474.977 630.959 482.143C626.4 481.857 615.645 479.948 613.683 485.154C613.736 487.208 614.589 488.572 616.142 489.869C628.449 500.149 651.602 496.65 663.014 487.418L663.73 488.33C663.54 489.646 663.259 490.397 662.129 491.264C641.975 506.725 615.298 505.942 597.94 487.717C601.168 482.562 601.204 481.427 602.142 475.391Z"
     id="path284" />
  <path
     fill="#3C5989"
     transform="scale(0.25 0.25)"
     d="M617.411 473.907C612.551 473.102 606.586 473.727 602.561 472.237C602.058 472.051 602.076 471.241 601.949 470.561C604.034 465.542 620.841 464.85 625.633 465.918C623.065 465.945 620.498 465.928 617.931 465.866C617.703 468.586 617.473 471.17 617.411 473.907Z"
     id="path286" />
  <path
     fill="#D07995"
     transform="scale(0.25 0.25)"
     d="M570.56 252.658C577.126 257.532 584.051 261.893 590.148 267.261C595.134 271.652 599.273 276.904 603.76 281.731C606.511 278.722 610.049 274.627 612.897 271.834C621.747 288.847 626.646 311.291 625.267 330.573C609.375 309.816 602.404 304.154 582.105 288.594C584.728 288.49 588.008 288.915 589.645 286.735C591.608 276.386 572.21 259.206 570.56 252.658Z"
     id="path288" />
  <path
     fill="#EE95AB"
     transform="scale(0.25 0.25)"
     d="M405.828 498.21C409.24 495.43 419.098 495.729 423.212 496.103C430.033 496.723 469.294 496.875 472.125 499.104C471.745 500.621 471.548 500.394 470.23 501.667C469.424 503.66 469.065 504.275 468.833 506.367C469.4 507.753 470.004 511.722 470.303 513.381C453.536 513.824 424.928 513.261 407.771 510.372C405.863 510.05 405.138 507.368 404.456 505.535C404.376 502.753 404.753 500.735 405.828 498.21Z"
     id="path290" />
  <path
     fill="#D07995"
     transform="scale(0.25 0.25)"
     d="M404.456 505.535C410.918 506.759 466.195 508.825 468.168 507.095C468.415 506.878 468.611 506.609 468.833 506.367C469.4 507.753 470.004 511.722 470.303 513.381C453.536 513.824 424.928 513.261 407.771 510.372C405.863 510.05 405.138 507.368 404.456 505.535Z"
     id="path292" />
  <path
     fill="#F1B0B2"
     transform="scale(0.25 0.25)"
     d="M405.828 498.21C409.24 495.43 419.098 495.729 423.212 496.103C430.033 496.723 469.294 496.875 472.125 499.104C471.745 500.621 471.548 500.394 470.23 501.667C466.428 502.353 460.458 501.692 456.47 501.455C448.347 500.921 440.221 500.442 432.091 500.019C424.414 499.664 416.819 499.618 409.142 499.458C407.241 499.418 407.283 499.226 405.828 498.21Z"
     id="path294" />
  <defs
     id="defs301">
    <linearGradient
       id="gradient_8"
       gradientUnits="userSpaceOnUse"
       x1="621.17426"
       y1="468.96872"
       x2="626.9856"
       y2="432.65677">
      <stop
         offset="0"
         stop-color="#416095"
         id="stop296" />
      <stop
         offset="1"
         stop-color="#6D8AB3"
         id="stop298" />
    </linearGradient>
  </defs>
  <path
     fill="url(#gradient_8)"
     transform="scale(0.25 0.25)"
     d="M615.901 443.221C616.546 442.89 617.199 442.575 617.86 442.277C621.558 440.613 650.994 435.335 652.822 436.041L652.613 437.913C652.253 448.1 645.132 460.292 636.944 466.258C627.972 462.196 619.837 461.637 610.058 463.266C615.581 458.783 626.678 453.757 628.495 451.904C615.564 454.011 609.931 459.423 599.935 467.479C597.831 465.159 597.251 464.437 595.527 461.837C595.896 461.646 596.263 461.45 596.627 461.249C604.206 457.081 613.476 451.663 615.901 443.221Z"
     id="path303" />
  <path
     fill="#3C5989"
     transform="scale(0.25 0.25)"
     d="M628.495 451.904C629.691 451.399 635.461 451.332 637.503 450.767C644.707 448.773 648.862 443.684 652.613 437.913C652.253 448.1 645.132 460.292 636.944 466.258C627.972 462.196 619.837 461.637 610.058 463.266C615.581 458.783 626.678 453.757 628.495 451.904Z"
     id="path305" />
  <path
     fill="white"
     transform="scale(0.25 0.25)"
     d="M377.492 511.455C390.43 515.219 393.546 520.3 391.185 533.32C389.739 534.412 386.367 536.821 385.228 537.992C385.013 538.231 384.244 539.118 384.025 539.28C376.828 540.398 363.11 546.427 356.295 549.699C355.055 544.945 355.118 542.013 355.357 537.166C357.588 524.368 363.905 514.403 377.492 511.455Z"
     id="path307" />
  <path
     fill="#EBE0D1"
     transform="scale(0.25 0.25)"
     d="M382.867 536.973C383.334 538.044 383.401 538.306 384.025 539.28C376.828 540.398 363.11 546.427 356.295 549.699C355.055 544.945 355.118 542.013 355.357 537.166C363.266 539.716 375.496 540.701 382.867 536.973Z"
     id="path309" />
  <path
     fill="#0F0D0D"
     transform="scale(0.25 0.25)"
     d="M373.189 522.466C380.748 526.897 383.623 528.961 385.228 537.992C385.013 538.231 384.244 539.118 384.025 539.28C383.401 538.306 383.334 538.044 382.867 536.973C381.486 528.988 377.728 528.269 373.189 522.466Z"
     id="path311" />
  <path
     fill="#B6513F"
     transform="scale(0.25 0.25)"
     d="M557.364 510.139C551.959 516.016 548.217 520.226 541.967 525.237C536.077 530.277 530.105 535.221 524.054 540.065C522.35 539.479 518.124 538.145 516.645 537.486C512.029 536.167 509.469 535.705 504.729 535.101C499.418 534.759 495.93 534.449 490.734 533.491C490.73 531.967 490.629 530.274 490.567 528.736C492.311 528.312 494.166 527.937 495.928 527.549C501.509 525.832 511.327 524.004 517.143 522.787C519.156 521.988 520.574 522 522.736 521.809C534.49 518.577 546.051 514.68 557.364 510.139Z"
     id="path313" />
  <path
     fill="#D36750"
     transform="scale(0.25 0.25)"
     d="M517.143 522.787C519.156 521.988 520.574 522 522.736 521.809C519.575 524.763 515.337 528.434 512.409 531.358L511.538 532.111L512.071 532.063L512.238 531.606C512.837 533.321 515.37 535.969 516.645 537.486C512.029 536.167 509.469 535.705 504.729 535.101C499.418 534.759 495.93 534.449 490.734 533.491C490.73 531.967 490.629 530.274 490.567 528.736C492.311 528.312 494.166 527.937 495.928 527.549C501.509 525.832 511.327 524.004 517.143 522.787Z"
     id="path315" />
  <defs
     id="defs322">
    <linearGradient
       id="gradient_9"
       gradientUnits="userSpaceOnUse"
       x1="511.65204"
       y1="524.27258"
       x2="515.34998"
       y2="535.21271">
      <stop
         offset="0"
         stop-color="#8F3A33"
         id="stop317" />
      <stop
         offset="1"
         stop-color="#CB604A"
         id="stop319" />
    </linearGradient>
  </defs>
  <path
     fill="url(#gradient_9)"
     transform="scale(0.25 0.25)"
     d="M517.143 522.787C519.156 521.988 520.574 522 522.736 521.809C519.575 524.763 515.337 528.434 512.409 531.358L511.538 532.111L512.071 532.063L512.238 531.606C512.837 533.321 515.37 535.969 516.645 537.486C512.029 536.167 509.469 535.705 504.729 535.101C507.402 532.802 512.153 529.67 515.402 527.044C516.622 525.781 516.495 526.388 516.721 525.053C513.887 523.294 513.354 525.46 509.644 525.514C510.276 524.878 515.798 523.865 517.513 523.312L517.143 522.787Z"
     id="path324" />
  <path
     fill="#B6513F"
     transform="scale(0.25 0.25)"
     d="M495.928 527.549C501.509 525.832 511.327 524.004 517.143 522.787L517.513 523.312C515.798 523.865 510.276 524.878 509.644 525.514C513.354 525.46 513.887 523.294 516.721 525.053C516.495 526.388 516.622 525.781 515.402 527.044C512.826 524.843 506.596 527.83 502.779 527.83C500.003 527.831 498.792 527.844 495.928 527.549Z"
     id="path326" />
  <path
     fill="#D36750"
     transform="scale(0.25 0.25)"
     d="M512.409 531.358C518.584 530.239 535.311 522.206 541.967 525.237C536.077 530.277 530.105 535.221 524.054 540.065C522.35 539.479 518.124 538.145 516.645 537.486C515.37 535.969 512.837 533.321 512.238 531.606L512.071 532.063L511.538 532.111L512.409 531.358Z"
     id="path328" />
  <path
     fill="#EE95AB"
     transform="scale(0.25 0.25)"
     d="M430.128 546.937C446.01 547.204 497.683 548.535 508.996 559.3L509.288 560.117C505.836 560.664 496.479 563.189 493.383 564.677C490.557 563.073 489.867 560.86 486.492 562.142C485.096 561.924 485.566 562.116 484.451 561.253C473.733 558.363 457.886 557.057 446.702 556.075L446.915 554.441C440.019 553.816 433.11 553.346 426.194 553.031L426.011 547.036C427.81 547.153 428.291 547.223 430.128 546.937Z"
     id="path330" />
  <path
     fill="#1F1211"
     transform="scale(0.25 0.25)"
     d="M446.915 554.441L447.665 554.562C456.834 555.993 478.943 554.676 484.451 561.253C473.733 558.363 457.886 557.057 446.702 556.075L446.915 554.441Z"
     id="path332" />
  <path
     fill="#D07995"
     transform="scale(0.25 0.25)"
     d="M530.644 601.955C536.077 602.571 540.34 602.503 545.778 602.483L546.276 613.569L546.116 614.237C547.786 622.739 546.764 638.654 543.242 646.706C542.202 649.083 540.473 651.49 538.944 653.598C537.068 650.879 534.813 647.987 532.815 645.318C532.806 631.048 532.539 616.073 530.644 601.955Z"
     id="path334" />
  <path
     fill="#D3D9E1"
     transform="scale(0.25 0.25)"
     d="M546.116 614.237C545.797 617.583 546.772 620.822 542.736 622.471C532.893 626.494 534.131 603.966 546.276 613.569L546.116 614.237Z"
     id="path336" />
  <defs
     id="defs343">
    <linearGradient
       id="gradient_10"
       gradientUnits="userSpaceOnUse"
       x1="450.95502"
       y1="522.41058"
       x2="448.77505"
       y2="533.50928">
      <stop
         offset="0"
         stop-color="#B15945"
         id="stop338" />
      <stop
         offset="1"
         stop-color="#D9745F"
         id="stop340" />
    </linearGradient>
  </defs>
  <path
     fill="url(#gradient_10)"
     transform="scale(0.25 0.25)"
     d="M409.5 513.7C413.71 513.777 417.833 514.42 422.112 514.381L423.367 514.656C436.144 520.465 445.048 525.325 459.284 528.245C463.103 529.029 473.24 528.942 475.143 529.993C475.05 532.162 475.418 531.858 474.291 533.108C469.588 534.603 448.576 531.484 442.511 532.422C441.79 532.534 436.682 532.242 435.92 532.038L434.508 532.17C429.379 531.503 422.578 531.593 417.187 531.298C413.928 525.19 411.897 520.086 409.5 513.7Z"
     id="path345" />
  <path
     fill="#D36750"
     transform="scale(0.25 0.25)"
     d="M409.5 513.7C413.71 513.777 417.833 514.42 422.112 514.381C422.493 520.008 430.508 528.524 434.508 532.17C429.379 531.503 422.578 531.593 417.187 531.298C413.928 525.19 411.897 520.086 409.5 513.7Z"
     id="path347" />
  <path
     fill="#843B28"
     transform="scale(0.25 0.25)"
     d="M422.112 514.381L423.367 514.656C423.909 516.87 425.619 517.857 427.461 519.338C426.66 519.975 427.104 519.645 426.115 520.311C428.171 524.697 432.125 529.046 435.92 532.038L434.508 532.17C430.508 528.524 422.493 520.008 422.112 514.381Z"
     id="path349" />
  <path
     fill="#F1B0B2"
     transform="scale(0.25 0.25)"
     d="M491.139 536.967C501.792 536.69 512.39 538.584 522.287 542.535L522.826 542.524C527.218 541.91 526.258 540.143 530.018 539.14C528.632 540.528 527.781 540.828 527.621 542.335L528.628 543.152C529.865 544.355 532.051 546.736 533.506 547.336L534.497 547.244L534.008 548.057L531.136 548.556C525.062 549.675 519.247 552.598 513.93 555.627C508.854 551.778 506.005 550.016 500.111 547.877C493.789 545.927 480.846 544.789 473.671 543.873C475.221 543.406 476.609 543.26 478.21 543.007C485.412 545.668 488.228 542.86 491.139 536.967Z"
     id="path351" />
  <path
     fill="#EE95AB"
     transform="scale(0.25 0.25)"
     d="M522.826 542.524C527.218 541.91 526.258 540.143 530.018 539.14C528.632 540.528 527.781 540.828 527.621 542.335L528.628 543.152C529.865 544.355 532.051 546.736 533.506 547.336L534.497 547.244L534.008 548.057L531.136 548.556C525.062 549.675 519.247 552.598 513.93 555.627C508.854 551.778 506.005 550.016 500.111 547.877C505.565 545.77 518.932 546.184 522.287 542.535L522.826 542.524Z"
     id="path353" />
  <path
     fill="#222124"
     transform="scale(0.25 0.25)"
     d="M522.826 542.524C527.218 541.91 526.258 540.143 530.018 539.14C528.632 540.528 527.781 540.828 527.621 542.335L528.628 543.152C529.865 544.355 532.051 546.736 533.506 547.336L534.497 547.244L534.008 548.057L531.136 548.556C528.477 545.793 526.098 544.34 522.826 542.524Z"
     id="path355" />
  <path
     fill="#D3D9E1"
     transform="scale(0.25 0.25)"
     d="M483.117 503.814C487.622 508.89 488.645 517.437 488.342 524.017C488.085 529.583 489.849 542.973 481.155 541.984C474.669 538.599 479.075 522.724 477.349 516.881C476.005 512.329 469.601 509.359 472.566 503.481C474.098 502.086 474.245 502.118 476.341 501.664C478.78 502.233 480.974 502.558 483.117 503.814Z"
     id="path357" />
  <path
     fill="white"
     transform="scale(0.25 0.25)"
     d="M476.341 501.664C478.78 502.233 480.974 502.558 483.117 503.814C482.803 505.881 482.895 508.079 481.768 509.361C480.985 509.302 480.434 509.296 479.666 509.137C479.054 508.368 478.91 508.349 478.126 507.728C476.174 506.805 474.95 506.542 474.663 504.345C475.165 503.618 475.494 503.115 475.948 502.343L476.341 501.664Z"
     id="path359" />
  <path
     fill="#EBE0D1"
     transform="scale(0.25 0.25)"
     d="M478.126 507.728C478.91 508.349 479.054 508.368 479.666 509.137C479.715 509.608 480.246 510.615 480.473 511.115C479.747 512.638 480.285 512.081 478.837 512.876C477.504 511.949 477.603 512.014 477.009 510.489C477.192 508.355 476.781 509.222 478.126 507.728Z"
     id="path361" />
  <path
     fill="#D07995"
     transform="scale(0.25 0.25)"
     d="M380.981 325.889C381.903 330.426 382.4 334.752 385.929 338.057C386.846 338.773 388.616 339.83 389.661 340.495L387.968 350.538C390.151 345.739 391.394 341.171 393.994 336.341C392.848 342.737 392.439 349.413 391.525 355.866C390.632 362.174 389.373 368.442 388.165 374.699C376.127 356.986 375.168 346.041 380.981 325.889Z"
     id="path363" />
  <path
     fill="#EE95AB"
     transform="scale(0.25 0.25)"
     d="M431.591 534.45L434.356 534.467C445.031 534.705 464.767 534.747 474.714 536.424C475.678 539.21 476.125 540.828 478.21 543.007C476.609 543.26 475.221 543.406 473.671 543.873C471.409 544.082 464.228 543.333 461.77 543.03C450.857 541.684 439.241 542.23 428.443 541.071L428.035 541.094C428.063 538.749 427.453 537.528 427.753 535.381C429.136 534.192 429.271 534.595 431.591 534.45Z"
     id="path365" />
  <path
     fill="white"
     transform="scale(0.25 0.25)"
     d="M431.591 534.45L434.356 534.467C434.464 536.813 434.569 537.083 433.827 539.242C431.962 541.231 431.25 540.972 428.443 541.071L428.035 541.094C428.063 538.749 427.453 537.528 427.753 535.381C429.136 534.192 429.271 534.595 431.591 534.45Z"
     id="path367" />
  <path
     fill="#3C5989"
     transform="scale(0.25 0.25)"
     d="M429.301 514.08C435.406 514.548 441.519 514.903 447.637 515.144C455.59 515.386 463.507 515.781 471.429 514.985C472.617 514.866 473.489 514.53 473.997 515.227C474.815 516.349 475.11 518.158 475.368 519.546L475.394 526.393C455.72 525.751 446.877 522.384 429.301 514.08Z"
     id="path369" />
  <path
     fill="#6480AF"
     transform="scale(0.25 0.25)"
     d="M447.637 515.144C455.59 515.386 463.507 515.781 471.429 514.985C472.617 514.866 473.489 514.53 473.997 515.227C474.815 516.349 475.11 518.158 475.368 519.546C471 520.964 446.962 520.121 444.005 516.795C445.064 515.462 445.572 515.726 447.637 515.144Z"
     id="path371" />
  <path
     fill="#EBE0D1"
     transform="scale(0.25 0.25)"
     d="M394.119 506.606C395.063 503.619 397.495 498.768 401.318 500.673C402.345 502.57 402.005 502.137 401.991 504.587C402.321 506.422 402.58 507.453 403.101 509.246C403.26 510.078 402.502 530.864 402.359 532.502C401.634 535.892 401.474 536.251 398.484 538.006C395.249 536.879 394.994 536.396 393.584 533.322C394.573 524.642 391.736 516.376 394.119 506.606Z"
     id="path373" />
  <defs
     id="defs380">
    <linearGradient
       id="gradient_11"
       gradientUnits="userSpaceOnUse"
       x1="397.15701"
       y1="527.91803"
       x2="402.58707"
       y2="532.27802">
      <stop
         offset="0"
         stop-color="#92959E"
         id="stop375" />
      <stop
         offset="1"
         stop-color="#B8B6BA"
         id="stop377" />
    </linearGradient>
  </defs>
  <path
     fill="url(#gradient_11)"
     transform="scale(0.25 0.25)"
     d="M402.55 509.468L403.101 509.246C403.26 510.078 402.502 530.864 402.359 532.502C401.634 535.892 401.474 536.251 398.484 538.006C395.249 536.879 394.994 536.396 393.584 533.322C395.079 533.658 395.093 533.678 396.615 533.625C398.127 532.415 397.801 532.129 398.537 529.892C398.867 526.604 398.951 522.6 399.105 519.243C399.345 520.025 399.55 521.131 399.731 521.955C399.918 520.87 400.163 519.777 400.388 518.697C401.001 515.498 402.208 512.64 402.55 509.468Z"
     id="path382" />
  <path
     fill="#D3D9E1"
     transform="scale(0.25 0.25)"
     d="M402.55 509.468L403.101 509.246C403.26 510.078 402.502 530.864 402.359 532.502C399.197 530.645 400.599 522.547 400.388 518.697C401.001 515.498 402.208 512.64 402.55 509.468Z"
     id="path384" />
  <path
     fill="#D3D9E1"
     transform="scale(0.25 0.25)"
     d="M398.537 529.892L398.484 538.006C395.249 536.879 394.994 536.396 393.584 533.322C395.079 533.658 395.093 533.678 396.615 533.625C398.127 532.415 397.801 532.129 398.537 529.892Z"
     id="path386" />
  <path
     fill="white"
     transform="scale(0.25 0.25)"
     d="M394.119 506.606C395.063 503.619 397.495 498.768 401.318 500.673C402.345 502.57 402.005 502.137 401.991 504.587C399.184 504.624 398.347 505.463 395.955 506.964C394.724 506.963 395.15 507.11 394.119 506.606Z"
     id="path388" />
  <path
     fill="#605E60"
     transform="scale(0.25 0.25)"
     d="M402.55 509.468C402.208 512.64 401.001 515.498 400.388 518.697C400.163 519.777 399.918 520.87 399.731 521.955C399.55 521.131 399.345 520.025 399.105 519.243C398.907 516.779 400.827 511.312 402.55 509.468Z"
     id="path390" />
  <path
     fill="#F1B0B2"
     transform="scale(0.25 0.25)"
     d="M355.573 553.626C371.143 544.747 375.099 545.07 393.357 545.545C398.474 545.678 405.094 545.284 410.198 546.059C410.304 547.838 410.681 550.685 410.082 552.226C395.499 551.322 369.163 550.996 355.573 553.626Z"
     id="path392" />
  <path
     fill="#E2C9D0"
     transform="scale(0.25 0.25)"
     d="M390.873 542.25C410.698 541.99 432.157 543.335 452.019 544.416C463.879 545.061 505.466 546.257 511.439 556.513L511.083 557.055C508.733 557.098 509.284 556.939 506.903 555.518C487.209 543.202 431.324 546.654 406.763 543.899C403.472 543.53 386.254 544.431 384.432 543.222C385.731 542.295 388.956 542.396 390.873 542.25Z"
     id="path394" />
  <path
     fill="#F1B0B2"
     transform="scale(0.25 0.25)"
     d="M401.201 539.545C404.206 537.807 404.546 536.463 405.962 535.103C407.882 533.259 420.056 533.549 422.736 533.938C425.325 533.866 429.06 533.874 431.591 534.45C429.271 534.595 429.136 534.192 427.753 535.381C427.453 537.528 428.063 538.749 428.035 541.094L419.837 540.961C414.99 540.848 410.075 540.619 405.224 540.438C403.376 540.165 402.955 540.107 401.201 539.545Z"
     id="path396" />
  <path
     fill="#E2C9D0"
     transform="scale(0.25 0.25)"
     d="M422.736 533.938C425.325 533.866 429.06 533.874 431.591 534.45C429.271 534.595 429.136 534.192 427.753 535.381C427.453 537.528 428.063 538.749 428.035 541.094L419.837 540.961C419.749 537.69 418.832 537.669 418.582 534.895C419.817 533.79 420.652 534.122 422.736 533.938Z"
     id="path398" />
  <path
     fill="#EE95AB"
     transform="scale(0.25 0.25)"
     d="M410.198 546.059C414.696 545.841 425.598 546.345 430.128 546.937C428.291 547.223 427.81 547.153 426.011 547.036L426.194 553.031L421.204 552.845C418.388 552.449 413.413 552.505 410.082 552.226C410.681 550.685 410.304 547.838 410.198 546.059Z"
     id="path400" />
  <path
     fill="#F1B0B2"
     transform="scale(0.25 0.25)"
     d="M421.204 552.845C421.498 550.59 421.452 549.671 422.501 547.722C424.22 546.547 423.513 546.869 426.011 547.036L426.194 553.031L421.204 552.845Z"
     id="path402" />
  <path
     fill="#E2C9D0"
     transform="scale(0.25 0.25)"
     d="M527.96 619.531C527.378 616.097 526.36 605.115 527.334 602.013L527.913 601.896C530.145 605.505 530.242 614.841 530.43 619.121C530.565 622.827 531.194 640.561 529.774 642.674C528.124 640.875 528.112 623.444 527.96 619.531Z"
     id="path404" />
  <path
     fill="#F1B0B2"
     transform="scale(0.25 0.25)"
     d="M527.96 619.531C527.378 616.097 526.36 605.115 527.334 602.013L527.913 601.896C530.145 605.505 530.242 614.841 530.43 619.121C528.763 616.612 529.369 611.91 528.654 608.553C528.218 609.652 528.28 617.224 527.96 619.531Z"
     id="path406" />
  <path
     fill="white"
     transform="scale(0.25 0.25)"
     d="M406.008 514.251C407.944 515.994 412.677 527.82 413.472 530.766L412.89 531.293C410.124 531.44 407.457 531.405 404.692 531.388C404.428 525.837 405.219 519.756 406.008 514.251Z"
     id="path408" />
  <path
     fill="white"
     transform="scale(0.25 0.25)"
     d="M392.033 502.003C392.215 503.741 390.414 512.107 390.295 515.174C387.447 513.186 386.89 512.87 383.683 511.643C382.238 511.297 380.906 511.142 379.753 510.255C383.853 507.616 387.978 504.737 392.033 502.003Z"
     id="path410" />
  <path
     fill="#D07995"
     transform="scale(0.25 0.25)"
     d="M338.491 640.075C341.688 642.75 341.047 648.263 344.071 653.32L343.555 654.114C341.109 653.91 339.744 652.297 338.21 650.509C336.564 646.951 336.396 645.776 337.207 641.918L338.491 640.075Z"
     id="path412" />
  <path
     fill="#EE95AB"
     transform="scale(0.25 0.25)"
     d="M337.207 641.918C339.897 644.158 340.468 647.692 338.21 650.509C336.564 646.951 336.396 645.776 337.207 641.918Z"
     id="path414" />
  <path
     fill="#F1B0B2"
     transform="scale(0.25 0.25)"
     d="M313.474 652.245C319.395 652.244 320.789 657.834 320.488 662.836C315.197 662.268 313.331 656.956 313.474 652.245Z"
     id="path416" />
  <path
     fill="#E2C9D0"
     transform="scale(0.25 0.25)"
     d="M391.314 536.272C392.712 538.071 392.852 538.197 394.694 539.571C397.157 539.391 398.725 539.439 401.201 539.545C402.955 540.107 403.376 540.165 405.224 540.438C399.266 540.511 393.308 540.501 387.35 540.41L386.765 540.17C387.392 538.844 389.993 537.232 391.314 536.272Z"
     id="path418" />
  <path
     fill="#A08D99"
     transform="scale(0.25 0.25)"
     d="M394.694 539.571C397.157 539.391 398.725 539.439 401.201 539.545C402.955 540.107 403.376 540.165 405.224 540.438C399.266 540.511 393.308 540.501 387.35 540.41C389.989 539.876 391.922 540.431 394.694 539.571Z"
     id="path420" />
  <path
     fill="#222124"
     transform="scale(0.25 0.25)"
     d="M438.317 477.484C440.069 477.891 445.255 480.616 446.171 481.93C443.762 482.264 441.512 481.444 439.457 480.214C439.458 478.933 439.034 478.582 438.317 477.484Z"
     id="path422" />
</svg>
